SplineFontDB: 1.0
FontName: THK2DJuly8-Bold
FullName: THK2DJuly8-Bold
FamilyName: TH K2D July8
Weight: Bold
Copyright: Copyright (c) 2006 by Department of Intellectual Property (DIP), Ministry of Commerce and Software Industry Promotion Agency (Public Organization) (SIPA). All rights reserved.
Version: 1.1
ItalicAngle: 0
UnderlinePosition: -55
UnderlineWidth: 50
Ascent: 800
Descent: 200
Order2: 1
XUID: [1021 375 425136265 10138363]
FSType: 0
OS2Version: 3
OS2_WeightWidthSlopeOnly: 0
OS2_UseTypoMetrics: 1
CreationTime: 1158666300
ModificationTime: 1174405844
PfmFamily: 17
TTFWeight: 700
TTFWidth: 5
LineGap: 60
VLineGap: 0
Panose: 2 0 5 6 0 0 0 2 0 4
OS2TypoAscent: 0
OS2TypoAOffset: 1
OS2TypoDescent: 0
OS2TypoDOffset: 1
OS2TypoLinegap: 0
OS2WinAscent: -26
OS2WinAOffset: 1
OS2WinDescent: -176
OS2WinDOffset: 1
HheadAscent: -26
HheadAOffset: 1
HheadDescent: 176
HheadDOffset: 1
OS2SubXSize: 700
OS2SubYSize: 650
OS2SubXOff: 0
OS2SubYOff: 140
OS2SupXSize: 700
OS2SupYSize: 650
OS2SupXOff: 0
OS2SupYOff: 477
OS2StrikeYSize: 50
OS2StrikeYPos: 250
OS2FamilyClass: 773
OS2Vendor: 'K2D '
ScriptLang: 2
 1 latn 1 dflt 
 0 
ChainSub: coverage 0 0 'liga' 0 0 0 1
 1 0 1
  Coverage: 64 uni0E48.alt2 uni0E49.alt2 uni0E4A.alt2 uni0E4B.alt2 uni0E4C.alt2
  FCoverage: 7 uni0E33
 1
  SeqLookup: 0 'L027'
EndFPST
ChainSub: coverage 0 0 'liga' 0 0 0 1
 1 1 0
  Coverage: 7 uni0E47
  BCoverage: 12 uni0E2C.alt1
 1
  SeqLookup: 0 'L026'
EndFPST
ChainSub: coverage 0 0 'liga' 0 0 0 1
 1 0 1
  Coverage: 7 uni0E2C
  FCoverage: 39 uni0E34 uni0E35 uni0E36 uni0E37 uni0E47
 1
  SeqLookup: 0 'L026'
EndFPST
ChainSub: coverage 0 0 'liga' 0 0 0 1
 1 0 1
  Coverage: 15 uni0E0E uni0E0F
  FCoverage: 38 uni0E38.alt1 uni0E39.alt1 uni0E3A.alt1
 1
  SeqLookup: 0 'L026'
EndFPST
ChainSub: coverage 0 0 'liga' 0 0 0 1
 1 1 0
  Coverage: 5 a b c
  BCoverage: 23 uni0E1B uni0E1D uni0E1F
 1
  SeqLookup: 0 'L026'
EndFPST
ChainSub: coverage 0 0 'liga' 0 0 0 1
 1 0 1
  Coverage: 5 a b c

StartChar: .notdef
Encoding: 65536 -1 0
Width: 520
Flags: W
Fore
398 39 m 1,0,-1
 398 656 l 1,1,-1
 119 656 l 1,2,-1
 119 39 l 1,3,-1
 398 39 l 1,0,-1
456 0 m 1,4,-1
 61 0 l 1,5,-1
 61 695 l 1,6,-1
 456 695 l 1,7,-1
 456 0 l 1,4,-1
EndSplineSet
EndChar
StartChar: numbersign
Encoding: 35 35 4
Width: 433
Flags: W
Fore
269 449 m 2,0,1
 273 487 273 487 330 480 c 1,2,-1
 311 323 l 1,3,-1
 402 323 l 1,4,5
 402 288 402 288 358 288 c 2,6,-1
 307 288 l 1,7,-1
 295 182 l 1,8,-1
 386 182 l 1,9,10
 386 146 386 146 342 146 c 2,11,-1
 291 146 l 1,12,13
 288 115 288 115 284 84.5 c 128,-1,14
 280 54 280 54 277 25 c 0,15,16
 272 -13 272 -13 215 -5 c 1,17,-1
 233 146 l 1,18,-1
 175 146 l 1,19,20
 173 115 173 115 169 84.5 c 128,-1,21
 165 54 165 54 162 25 c 0,22,23
 157 -13 157 -13 100 -5 c 1,24,-1
 118 146 l 1,25,-1
 30 146 l 1,26,27
 30 182 30 182 73 182 c 2,28,-1
 122 182 l 1,29,-1
 135 288 l 1,30,-1
 46 288 l 1,31,32
 46 323 46 323 89 323 c 2,33,-1
 139 323 l 1,34,-1
 154 449 l 2,35,36
 158 487 158 487 215 480 c 1,37,-1
 196 323 l 1,38,-1
 254 323 l 1,39,-1
 269 449 l 2,0,1
179 182 m 1,40,-1
 237 182 l 1,41,-1
 250 288 l 1,42,-1
 192 288 l 1,43,-1
 179 182 l 1,40,-1
EndSplineSet
EndChar
StartChar: dollar
Encoding: 36 36 5
Width: 473
Flags: W
Fore
100 151 m 2,0,1
 100 130 100 130 108 111.5 c 128,-1,2
 116 93 116 93 130 77.5 c 128,-1,3
 144 62 144 62 163.5 51.5 c 128,-1,4
 183 41 183 41 206 37 c 1,5,-1
 206 229 l 1,6,7
 171 236 171 236 144 245 c 128,-1,8
 117 254 117 254 99 266.5 c 128,-1,9
 81 279 81 279 71 296 c 128,-1,10
 61 313 61 313 59 338 c 0,11,12
 56 363 56 363 65.5 387 c 128,-1,13
 75 411 75 411 94 430 c 128,-1,14
 113 449 113 449 141.5 462 c 128,-1,15
 170 475 170 475 206 479 c 1,16,-1
 206 495 l 2,17,18
 206 531 206 531 264 531 c 1,19,-1
 264 479 l 1,20,21
 327 471 327 471 364 436.5 c 128,-1,22
 401 402 401 402 409 352 c 0,23,24
 411 339 411 339 405.5 330 c 128,-1,25
 400 321 400 321 390.5 315 c 128,-1,26
 381 309 381 309 369 306.5 c 128,-1,27
 357 304 357 304 346 304 c 1,28,29
 347 309 347 309 347 314.5 c 128,-1,30
 347 320 347 320 347 325 c 0,31,32
 347 367 347 367 325.5 398.5 c 128,-1,33
 304 430 304 430 264 438 c 1,34,-1
 264 261 l 1,35,36
 300 254 300 254 330 246.5 c 128,-1,37
 360 239 360 239 382 227 c 128,-1,38
 404 215 404 215 417.5 197 c 128,-1,39
 431 179 431 179 433 152 c 0,40,41
 434 123 434 123 421.5 96.5 c 128,-1,42
 409 70 409 70 385.5 49 c 128,-1,43
 362 28 362 28 331 14 c 128,-1,44
 300 0 300 0 264 -4 c 1,45,-1
 264 -20 l 2,46,47
 264 -56 264 -56 206 -56 c 1,48,-1
 206 -4 l 1,49,50
 174 0 174 0 146.5 11 c 128,-1,51
 119 22 119 22 97 38.5 c 128,-1,52
 75 55 75 55 60 76.5 c 128,-1,53
 45 98 45 98 40 123 c 0,54,55
 37 136 37 136 42 145.5 c 128,-1,56
 47 155 47 155 56 161 c 128,-1,57
 65 167 65 167 77 170 c 128,-1,58
 89 173 89 173 101 173 c 1,59,60
 100 171 100 171 100 167.5 c 128,-1,61
 100 164 100 164 100 161 c 2,62,-1
 100 151 l 2,0,1
369 149 m 0,63,64
 366 179 366 179 338 193 c 128,-1,65
 310 207 310 207 264 218 c 1,66,-1
 264 37 l 1,67,68
 286 41 286 41 306 52 c 128,-1,69
 326 63 326 63 340 78 c 128,-1,70
 354 93 354 93 362 111.5 c 128,-1,71
 370 130 370 130 369 149 c 0,63,64
122 342 m 0,72,73
 124 313 124 313 144.5 297.5 c 128,-1,74
 165 282 165 282 206 272 c 1,75,-1
 206 438 l 1,76,77
 185 434 185 434 169 424.5 c 128,-1,78
 153 415 153 415 141.5 402 c 128,-1,79
 130 389 130 389 125 373.5 c 128,-1,80
 120 358 120 358 122 342 c 0,72,73
EndSplineSet
EndChar
StartChar: percent
Encoding: 37 37 6
Width: 587
Flags: W
Fore
263 283 m 2,0,1
 263 266 263 266 254.5 251.5 c 128,-1,2
 246 237 246 237 231 226.5 c 128,-1,3
 216 216 216 216 196 209.5 c 128,-1,4
 176 203 176 203 153 203 c 256,5,6
 130 203 130 203 109.5 209.5 c 128,-1,7
 89 216 89 216 74 226.5 c 128,-1,8
 59 237 59 237 50.5 251.5 c 128,-1,9
 42 266 42 266 42 283 c 2,10,-1
 42 399 l 2,11,12
 42 415 42 415 50.5 429.5 c 128,-1,13
 59 444 59 444 74 455 c 128,-1,14
 89 466 89 466 109.5 472 c 128,-1,15
 130 478 130 478 153 478 c 256,16,17
 176 478 176 478 196 472 c 128,-1,18
 216 466 216 466 231 455 c 128,-1,19
 246 444 246 444 254.5 429.5 c 128,-1,20
 263 415 263 415 263 399 c 2,21,-1
 263 283 l 2,0,1
98 283 m 2,22,23
 98 263 98 263 114 249.5 c 128,-1,24
 130 236 130 236 153 236 c 0,25,26
 175 236 175 236 191 249.5 c 128,-1,27
 207 263 207 263 207 283 c 2,28,-1
 207 399 l 2,29,30
 207 419 207 419 191 432 c 128,-1,31
 175 445 175 445 153 445 c 0,32,33
 130 445 130 445 114 432 c 128,-1,34
 98 419 98 419 98 399 c 2,35,-1
 98 283 l 2,22,23
543 76 m 2,36,37
 543 60 543 60 534.5 45.5 c 128,-1,38
 526 31 526 31 511 20.5 c 128,-1,39
 496 10 496 10 476 3.5 c 128,-1,40
 456 -3 456 -3 433 -3 c 256,41,42
 410 -3 410 -3 389.5 3.5 c 128,-1,43
 369 10 369 10 354 20.5 c 128,-1,44
 339 31 339 31 330.5 45.5 c 128,-1,45
 322 60 322 60 322 76 c 2,46,-1
 322 192 l 2,47,48
 322 226 322 226 354 249 c 128,-1,49
 386 272 386 272 433 272 c 0,50,51
 479 272 479 272 511 249 c 128,-1,52
 543 226 543 226 543 192 c 2,53,-1
 543 76 l 2,36,37
378 76 m 2,54,55
 378 57 378 57 394 43.5 c 128,-1,56
 410 30 410 30 433 30 c 0,57,58
 455 30 455 30 470.5 43.5 c 128,-1,59
 486 57 486 57 486 76 c 2,60,-1
 486 192 l 2,61,62
 486 212 486 212 470.5 225.5 c 128,-1,63
 455 239 455 239 433 239 c 0,64,65
 410 239 410 239 394 225.5 c 128,-1,66
 378 212 378 212 378 192 c 2,67,-1
 378 76 l 2,54,55
383 480 m 2,68,69
 393 498 393 498 410 502.5 c 128,-1,70
 427 507 427 507 452 494 c 1,71,-1
 203 -1 l 2,72,73
 184 -41 184 -41 134 -15 c 1,74,-1
 383 480 l 2,68,69
EndSplineSet
EndChar
StartChar: ampersand
Encoding: 38 38 7
Width: 450
Flags: W
Fore
333 45 m 1,0,1
 299 21 299 21 257 7.5 c 128,-1,2
 215 -6 215 -6 177 -6 c 0,3,4
 145 -6 145 -6 116.5 4 c 128,-1,5
 88 14 88 14 67 31.5 c 128,-1,6
 46 49 46 49 34 73.5 c 128,-1,7
 22 98 22 98 22 127 c 0,8,9
 22 176 22 176 50.5 211.5 c 128,-1,10
 79 247 79 247 121 269 c 1,11,12
 101 295 101 295 89.5 319.5 c 128,-1,13
 78 344 78 344 78 367 c 0,14,15
 78 389 78 389 86.5 410 c 128,-1,16
 95 431 95 431 111.5 446.5 c 128,-1,17
 128 462 128 462 152 471.5 c 128,-1,18
 176 481 176 481 208 481 c 0,19,20
 257 481 257 481 288 455.5 c 128,-1,21
 319 430 319 430 319 386 c 0,22,23
 319 348 319 348 287.5 314.5 c 128,-1,24
 256 281 256 281 199 255 c 1,25,26
 237 212 237 212 272 173.5 c 128,-1,27
 307 135 307 135 330 113 c 1,28,29
 346 132 346 132 355 155 c 128,-1,30
 364 178 364 178 364 219 c 1,31,32
 395 219 395 219 408.5 208.5 c 128,-1,33
 422 198 422 198 422 181 c 0,34,35
 422 157 422 157 405.5 131 c 128,-1,36
 389 105 389 105 367 80 c 1,37,-1
 374 74 l 2,38,39
 389 59 389 59 406 41.5 c 128,-1,40
 423 24 423 24 441 9 c 1,41,42
 427 -6 427 -6 408 -8 c 128,-1,43
 389 -10 389 -10 372 6 c 2,44,-1
 333 45 l 1,0,1
257 382 m 0,45,46
 257 405 257 405 245 423.5 c 128,-1,47
 233 442 233 442 204 442 c 256,48,49
 175 442 175 442 158.5 421 c 128,-1,50
 142 400 142 400 142 371 c 256,51,52
 142 342 142 342 153 324 c 128,-1,53
 164 306 164 306 176 289 c 1,54,55
 211 307 211 307 234 328 c 128,-1,56
 257 349 257 349 257 382 c 0,45,46
184 34 m 0,57,58
 218 34 218 34 247 46.5 c 128,-1,59
 276 59 276 59 299 78 c 1,60,61
 288 89 288 89 270.5 107 c 128,-1,62
 253 125 253 125 233 146 c 128,-1,63
 213 167 213 167 191.5 190 c 128,-1,64
 170 213 170 213 151 235 c 1,65,66
 140 228 140 228 128.5 219 c 128,-1,67
 117 210 117 210 107 197 c 128,-1,68
 97 184 97 184 91 168 c 128,-1,69
 85 152 85 152 85 132 c 0,70,71
 85 84 85 84 113.5 59 c 128,-1,72
 142 34 142 34 184 34 c 0,57,58
EndSplineSet
EndChar
StartChar: quotesingle
Encoding: 39 39 8
Width: 166
Flags: W
Fore
48 432 m 2,0,1
 46 457 46 457 65.5 469 c 128,-1,2
 85 481 85 481 119 481 c 1,3,-1
 113 374 l 2,4,5
 111 360 111 360 95.5 347 c 128,-1,6
 80 334 80 334 54 334 c 1,7,-1
 48 432 l 2,0,1
EndSplineSet
EndChar
StartChar: parenleft
Encoding: 40 40 9
Width: 211
Flags: W
Fore
45 204 m 256,0,1
 45 251 45 251 53.5 291.5 c 128,-1,2
 62 332 62 332 75.5 366 c 128,-1,3
 89 400 89 400 107 429 c 128,-1,4
 125 458 125 458 144 482 c 0,5,6
 156 498 156 498 173.5 497 c 128,-1,7
 191 496 191 496 202 481 c 1,8,9
 158 428 158 428 133.5 361.5 c 128,-1,10
 109 295 109 295 109 204 c 256,11,12
 109 113 109 113 133.5 47 c 128,-1,13
 158 -19 158 -19 202 -72 c 1,14,15
 191 -87 191 -87 173.5 -88 c 128,-1,16
 156 -89 156 -89 144 -73 c 0,17,18
 125 -49 125 -49 107 -20 c 128,-1,19
 89 9 89 9 75.5 43 c 128,-1,20
 62 77 62 77 53.5 117 c 128,-1,21
 45 157 45 157 45 204 c 256,0,1
EndSplineSet
EndChar
StartChar: asterisk
Encoding: 42 42 11
Width: 308
Flags: W
Fore
184 358 m 1,0,1
 191 348 191 348 198.5 339 c 128,-1,2
 206 330 206 330 213 320 c 1,3,-1
 212 320 l 1,4,5
 220 310 220 310 228.5 299.5 c 128,-1,6
 237 289 237 289 245 279 c 1,7,-1
 189 249 l 1,8,-1
 149 329 l 1,9,10
 147 324 147 324 144 318 c 128,-1,11
 141 312 141 312 139 307 c 2,12,-1
 107 249 l 1,13,-1
 59 280 l 1,14,-1
 119 360 l 1,15,-1
 82 357 l 2,16,17
 69 355 69 355 49.5 354 c 128,-1,18
 30 353 30 353 19 352 c 1,19,-1
 19 396 l 1,20,-1
 121 388 l 1,21,22
 116 396 116 396 109 403.5 c 128,-1,23
 102 411 102 411 97 419 c 2,24,-1
 59 469 l 1,25,-1
 114 502 l 1,26,-1
 153 425 l 1,27,-1
 164 447 l 2,28,29
 169 458 169 458 177.5 474.5 c 128,-1,30
 186 491 186 491 191 502 c 1,31,-1
 245 470 l 1,32,-1
 183 388 l 1,33,-1
 222 391 l 2,34,35
 235 392 235 392 254 393.5 c 128,-1,36
 273 395 273 395 286 397 c 1,37,-1
 286 352 l 1,38,-1
 184 358 l 1,0,1
EndSplineSet
EndChar
StartChar: plus
Encoding: 43 43 12
Width: 420
Flags: W
Fore
178 180 m 1,0,-1
 29 180 l 1,1,2
 29 217 29 217 74 217 c 2,3,-1
 178 217 l 1,4,-1
 178 329 l 2,5,6
 178 369 178 369 240 369 c 1,7,-1
 240 217 l 1,8,-1
 390 217 l 1,9,10
 390 180 390 180 344 180 c 2,11,-1
 240 180 l 1,12,-1
 240 67 l 2,13,14
 240 28 240 28 178 28 c 1,15,-1
 178 180 l 1,0,-1
EndSplineSet
EndChar
StartChar: comma
Encoding: 44 44 13
Width: 148
Flags: W
Fore
26 33 m 256,0,1
 26 50 26 50 40 61 c 128,-1,2
 54 72 54 72 75 72 c 256,3,4
 96 72 96 72 110 61 c 128,-1,5
 124 50 124 50 124 33 c 0,6,7
 124 4 124 4 119 -17 c 128,-1,8
 114 -38 114 -38 106 -52.5 c 128,-1,9
 98 -67 98 -67 88 -77 c 128,-1,10
 78 -87 78 -87 69 -95 c 0,11,12
 62 -100 62 -100 51.5 -99.5 c 128,-1,13
 41 -99 41 -99 35 -93 c 1,14,15
 74 -59 74 -59 75 -6 c 1,16,17
 54 -6 54 -6 40 5 c 128,-1,18
 26 16 26 16 26 33 c 256,0,1
EndSplineSet
EndChar
StartChar: hyphen
Encoding: 45 45 14
Width: 255
Flags: W
Fore
28 179 m 1,0,1
 28 218 28 218 74 218 c 2,2,-1
 226 218 l 1,3,4
 226 179 226 179 180 179 c 2,5,-1
 28 179 l 1,0,1
EndSplineSet
EndChar
StartChar: period
Encoding: 46 46 15
Width: 151
Flags: W
Fore
26 33 m 256,0,1
 26 50 26 50 40 61 c 128,-1,2
 54 72 54 72 75 72 c 256,3,4
 96 72 96 72 110 61 c 128,-1,5
 124 50 124 50 124 33 c 256,6,7
 124 16 124 16 110 5 c 128,-1,8
 96 -6 96 -6 75 -6 c 256,9,10
 54 -6 54 -6 40 5 c 128,-1,11
 26 16 26 16 26 33 c 256,0,1
EndSplineSet
EndChar
StartChar: slash
Encoding: 47 47 16
Width: 299
Flags: W
Fore
239 478 m 2,0,1
 249 496 249 496 266 500.5 c 128,-1,2
 283 505 283 505 308 492 c 1,3,-1
 59 -3 l 2,4,5
 40 -43 40 -43 -10 -17 c 1,6,-1
 239 478 l 2,0,1
EndSplineSet
EndChar
StartChar: zero
Encoding: 48 48 17
Width: 480
Flags: W
Fore
424 130 m 2,0,1
 424 102 424 102 409.5 77 c 128,-1,2
 395 52 395 52 370 33.5 c 128,-1,3
 345 15 345 15 311 4.5 c 128,-1,4
 277 -6 277 -6 239 -6 c 256,5,6
 201 -6 201 -6 167.5 4.5 c 128,-1,7
 134 15 134 15 109 33.5 c 128,-1,8
 84 52 84 52 69.5 77 c 128,-1,9
 55 102 55 102 55 130 c 2,10,-1
 55 345 l 2,11,12
 55 373 55 373 69.5 398 c 128,-1,13
 84 423 84 423 109 441.5 c 128,-1,14
 134 460 134 460 167.5 470.5 c 128,-1,15
 201 481 201 481 239 481 c 256,16,17
 277 481 277 481 311 470.5 c 128,-1,18
 345 460 345 460 370 441.5 c 128,-1,19
 395 423 395 423 409.5 398 c 128,-1,20
 424 373 424 373 424 345 c 2,21,-1
 424 130 l 2,0,1
118 130 m 2,22,23
 118 110 118 110 127.5 92.5 c 128,-1,24
 137 75 137 75 153.5 62 c 128,-1,25
 170 49 170 49 192 41.5 c 128,-1,26
 214 34 214 34 239 34 c 256,27,28
 264 34 264 34 286 41.5 c 128,-1,29
 308 49 308 49 324.5 62 c 128,-1,30
 341 75 341 75 350.5 92.5 c 128,-1,31
 360 110 360 110 360 130 c 2,32,-1
 360 345 l 2,33,34
 360 365 360 365 350.5 382.5 c 128,-1,35
 341 400 341 400 324.5 413 c 128,-1,36
 308 426 308 426 286 433.5 c 128,-1,37
 264 441 264 441 239 441 c 256,38,39
 214 441 214 441 192 433.5 c 128,-1,40
 170 426 170 426 153.5 413 c 128,-1,41
 137 400 137 400 127.5 382.5 c 128,-1,42
 118 365 118 365 118 345 c 2,43,-1
 118 130 l 2,22,23
EndSplineSet
EndChar
StartChar: one
Encoding: 49 49 18
Width: 480
Flags: W
Fore
260 475 m 1,0,1
 274 475 274 475 282.5 468.5 c 128,-1,2
 291 462 291 462 291 454 c 2,3,-1
 291 36 l 2,4,5
 291 -6 291 -6 227 -6 c 1,6,-1
 227 436 l 1,7,-1
 195 436 l 2,8,9
 148 436 148 436 148 475 c 1,10,-1
 260 475 l 1,11,-1
 260 475 l 1,0,1
EndSplineSet
EndChar
StartChar: two
Encoding: 50 50 19
Width: 480
Flags: W
Fore
373 40 m 2,0,1
 396 40 396 40 410 30 c 128,-1,2
 424 20 424 20 424 0 c 1,3,-1
 86 0 l 2,4,5
 75 0 75 0 66 5 c 128,-1,6
 57 10 57 10 57 18 c 0,7,8
 57 75 57 75 98.5 126 c 128,-1,9
 140 177 140 177 220 214 c 2,10,-1
 243 224 l 2,11,12
 261 232 261 232 282 242 c 128,-1,13
 303 252 303 252 320.5 265.5 c 128,-1,14
 338 279 338 279 349.5 296 c 128,-1,15
 361 313 361 313 361 336 c 0,16,17
 361 357 361 357 351.5 376.5 c 128,-1,18
 342 396 342 396 325.5 410 c 128,-1,19
 309 424 309 424 287 432.5 c 128,-1,20
 265 441 265 441 240 441 c 256,21,22
 215 441 215 441 193 432.5 c 128,-1,23
 171 424 171 424 154.5 410 c 128,-1,24
 138 396 138 396 128 376.5 c 128,-1,25
 118 357 118 357 118 336 c 0,26,27
 118 330 118 330 118 325.5 c 128,-1,28
 118 321 118 321 120 314 c 1,29,30
 96 314 96 314 77.5 327.5 c 128,-1,31
 59 341 59 341 58 356 c 1,32,33
 63 385 63 385 81 408 c 128,-1,34
 99 431 99 431 124 447.5 c 128,-1,35
 149 464 149 464 179.5 472.5 c 128,-1,36
 210 481 210 481 240 481 c 0,37,38
 271 481 271 481 303.5 471.5 c 128,-1,39
 336 462 336 462 363 443.5 c 128,-1,40
 390 425 390 425 407 398 c 128,-1,41
 424 371 424 371 424 336 c 0,42,43
 424 307 424 307 408 284 c 128,-1,44
 392 261 392 261 366.5 242 c 128,-1,45
 341 223 341 223 309 207.5 c 128,-1,46
 277 192 277 192 246 178 c 0,47,48
 192 152 192 152 160 116.5 c 128,-1,49
 128 81 128 81 121 40 c 1,50,-1
 373 40 l 2,0,1
EndSplineSet
EndChar
StartChar: three
Encoding: 51 51 20
Width: 480
Flags: W
Fore
83 380 m 0,0,1
 86 398 86 398 98.5 416.5 c 128,-1,2
 111 435 111 435 131 449 c 128,-1,3
 151 463 151 463 178.5 472 c 128,-1,4
 206 481 206 481 239 481 c 256,5,6
 272 481 272 481 300.5 471.5 c 128,-1,7
 329 462 329 462 350.5 445.5 c 128,-1,8
 372 429 372 429 384.5 407 c 128,-1,9
 397 385 397 385 397 360 c 0,10,11
 397 330 397 330 378 304 c 128,-1,12
 359 278 359 278 327 260 c 1,13,14
 372 242 372 242 398 208.5 c 128,-1,15
 424 175 424 175 424 136 c 0,16,17
 424 107 424 107 409.5 81 c 128,-1,18
 395 55 395 55 370 35.5 c 128,-1,19
 345 16 345 16 311 5 c 128,-1,20
 277 -6 277 -6 239 -6 c 256,21,22
 201 -6 201 -6 168.5 5 c 128,-1,23
 136 16 136 16 112 33.5 c 128,-1,24
 88 51 88 51 74 72.5 c 128,-1,25
 60 94 60 94 58 116 c 0,26,27
 56 136 56 136 70 147.5 c 128,-1,28
 84 159 84 159 120 158 c 1,29,30
 119 153 119 153 118.5 148 c 128,-1,31
 118 143 118 143 118 136 c 0,32,33
 118 115 118 115 127.5 96 c 128,-1,34
 137 77 137 77 153.5 63.5 c 128,-1,35
 170 50 170 50 192 42 c 128,-1,36
 214 34 214 34 239 34 c 256,37,38
 264 34 264 34 286 42 c 128,-1,39
 308 50 308 50 324.5 63.5 c 128,-1,40
 341 77 341 77 350.5 96 c 128,-1,41
 360 115 360 115 360 136 c 256,42,43
 360 157 360 157 350.5 175.5 c 128,-1,44
 341 194 341 194 324.5 208 c 128,-1,45
 308 222 308 222 286 230 c 128,-1,46
 264 238 264 238 239 238 c 0,47,48
 225 238 225 238 216 244 c 128,-1,49
 207 250 207 250 207 259 c 256,50,51
 207 268 207 268 216 273.5 c 128,-1,52
 225 279 225 279 239 279 c 0,53,54
 278 279 278 279 305.5 302.5 c 128,-1,55
 333 326 333 326 333 360 c 256,56,57
 333 394 333 394 305.5 417.5 c 128,-1,58
 278 441 278 441 239 441 c 0,59,60
 220 441 220 441 203 434.5 c 128,-1,61
 186 428 186 428 173 417 c 128,-1,62
 160 406 160 406 152.5 391.5 c 128,-1,63
 145 377 145 377 145 360 c 0,64,65
 145 357 145 357 145 350.5 c 128,-1,66
 145 344 145 344 147 339 c 1,67,68
 134 338 134 338 121.5 340 c 128,-1,69
 109 342 109 342 99.5 347.5 c 128,-1,70
 90 353 90 353 85.5 361 c 128,-1,71
 81 369 81 369 83 380 c 0,0,1
EndSplineSet
EndChar
StartChar: four
Encoding: 52 52 21
Width: 480
Flags: W
Fore
450 158 m 1,0,1
 450 118 450 118 403 118 c 2,2,-1
 370 118 l 1,3,-1
 370 36 l 2,4,5
 370 -6 370 -6 307 -6 c 1,6,-1
 307 118 l 1,7,-1
 64 118 l 2,8,9
 49 118 49 118 40.5 129 c 128,-1,10
 32 140 32 140 41 151 c 2,11,-1
 315 474 l 2,12,13
 322 482 322 482 331.5 484.5 c 128,-1,14
 341 487 341 487 349 484.5 c 128,-1,15
 357 482 357 482 363 476 c 128,-1,16
 369 470 369 470 370 460 c 2,17,-1
 370 158 l 1,18,-1
 450 158 l 1,0,1
307 158 m 1,19,-1
 307 385 l 1,20,-1
 113 158 l 1,21,-1
 307 158 l 1,19,-1
EndSplineSet
EndChar
StartChar: five
Encoding: 53 53 22
Width: 480
Flags: W
Fore
172 331 m 1,0,1
 200 343 200 343 239 343 c 0,2,3
 277 343 277 343 311 329.5 c 128,-1,4
 345 316 345 316 370 292 c 128,-1,5
 395 268 395 268 409.5 236.5 c 128,-1,6
 424 205 424 205 424 169 c 256,7,8
 424 133 424 133 409.5 101 c 128,-1,9
 395 69 395 69 370 45 c 128,-1,10
 345 21 345 21 311 7.5 c 128,-1,11
 277 -6 277 -6 239 -6 c 256,12,13
 201 -6 201 -6 168.5 6.5 c 128,-1,14
 136 19 136 19 112.5 40.5 c 128,-1,15
 89 62 89 62 74.5 90 c 128,-1,16
 60 118 60 118 58 149 c 0,17,18
 56 169 56 169 70 180 c 128,-1,19
 84 191 84 191 120 190 c 1,20,21
 118 180 118 180 118 169 c 0,22,23
 118 141 118 141 127.5 116.5 c 128,-1,24
 137 92 137 92 153.5 73.5 c 128,-1,25
 170 55 170 55 192 44.5 c 128,-1,26
 214 34 214 34 239 34 c 256,27,28
 264 34 264 34 286 44.5 c 128,-1,29
 308 55 308 55 324.5 73.5 c 128,-1,30
 341 92 341 92 350.5 116.5 c 128,-1,31
 360 141 360 141 360 169 c 256,32,33
 360 197 360 197 350.5 221.5 c 128,-1,34
 341 246 341 246 324.5 264.5 c 128,-1,35
 308 283 308 283 286 293.5 c 128,-1,36
 264 304 264 304 239 304 c 0,37,38
 211 304 211 304 188.5 291.5 c 128,-1,39
 166 279 166 279 149 259 c 0,40,41
 140 250 140 250 128.5 247 c 128,-1,42
 117 244 117 244 107.5 246.5 c 128,-1,43
 98 249 98 249 92.5 256.5 c 128,-1,44
 87 264 87 264 91 276 c 2,45,-1
 153 459 l 1,46,-1
 152 458 l 1,47,48
 154 466 154 466 163 470.5 c 128,-1,49
 172 475 172 475 183 475 c 2,50,-1
 392 475 l 1,51,52
 392 436 392 436 344 436 c 2,53,-1
 205 436 l 1,54,-1
 172 331 l 1,0,1
EndSplineSet
EndChar
StartChar: six
Encoding: 54 54 23
Width: 480
Flags: W
Fore
224 342 m 1,0,1
 229 343 229 343 239 343 c 0,2,3
 277 343 277 343 311 329.5 c 128,-1,4
 345 316 345 316 370 292 c 128,-1,5
 395 268 395 268 409.5 236.5 c 128,-1,6
 424 205 424 205 424 169 c 256,7,8
 424 133 424 133 409.5 101 c 128,-1,9
 395 69 395 69 370 45 c 128,-1,10
 345 21 345 21 311 7.5 c 128,-1,11
 277 -6 277 -6 239 -6 c 256,12,13
 201 -6 201 -6 167.5 7.5 c 128,-1,14
 134 21 134 21 109 45 c 128,-1,15
 84 69 84 69 69.5 101 c 128,-1,16
 55 133 55 133 55 169 c 0,17,18
 55 203 55 203 70.5 235.5 c 128,-1,19
 86 268 86 268 110 294 c 2,20,-1
 272 467 l 2,21,22
 304 501 304 501 341 468 c 1,23,-1
 224 342 l 1,0,1
360 169 m 256,24,25
 360 197 360 197 350.5 221.5 c 128,-1,26
 341 246 341 246 324.5 264.5 c 128,-1,27
 308 283 308 283 286 293.5 c 128,-1,28
 264 304 264 304 239 304 c 256,29,30
 214 304 214 304 192 293.5 c 128,-1,31
 170 283 170 283 153.5 264.5 c 128,-1,32
 137 246 137 246 127.5 221.5 c 128,-1,33
 118 197 118 197 118 169 c 256,34,35
 118 141 118 141 127.5 116.5 c 128,-1,36
 137 92 137 92 153.5 73.5 c 128,-1,37
 170 55 170 55 192 44.5 c 128,-1,38
 214 34 214 34 239 34 c 256,39,40
 264 34 264 34 286 44.5 c 128,-1,41
 308 55 308 55 324.5 73.5 c 128,-1,42
 341 92 341 92 350.5 116.5 c 128,-1,43
 360 141 360 141 360 169 c 256,24,25
EndSplineSet
EndChar
StartChar: seven
Encoding: 55 55 24
Width: 480
Flags: W
Fore
357 436 m 1,0,-1
 109 436 l 2,1,2
 62 436 62 436 62 475 c 1,3,-1
 398 475 l 2,4,5
 412 475 412 475 422 465 c 128,-1,6
 432 455 432 455 427 443 c 2,7,-1
 206 15 l 2,8,9
 186 -22 186 -22 136 3 c 1,10,-1
 357 436 l 1,0,-1
EndSplineSet
EndChar
StartChar: eight
Encoding: 56 56 25
Width: 480
Flags: W
Fore
81 360 m 0,0,1
 81 385 81 385 93.5 407 c 128,-1,2
 106 429 106 429 127.5 445.5 c 128,-1,3
 149 462 149 462 177.5 471.5 c 128,-1,4
 206 481 206 481 239 481 c 256,5,6
 272 481 272 481 300.5 471.5 c 128,-1,7
 329 462 329 462 350.5 445.5 c 128,-1,8
 372 429 372 429 384.5 407 c 128,-1,9
 397 385 397 385 397 360 c 0,10,11
 397 330 397 330 378 304 c 128,-1,12
 359 278 359 278 327 260 c 1,13,14
 372 242 372 242 398 208.5 c 128,-1,15
 424 175 424 175 424 136 c 0,16,17
 424 107 424 107 409.5 81 c 128,-1,18
 395 55 395 55 370 35.5 c 128,-1,19
 345 16 345 16 311 5 c 128,-1,20
 277 -6 277 -6 239 -6 c 256,21,22
 201 -6 201 -6 167.5 5 c 128,-1,23
 134 16 134 16 109 35.5 c 128,-1,24
 84 55 84 55 69.5 81 c 128,-1,25
 55 107 55 107 55 136 c 0,26,27
 55 174 55 174 81.5 207.5 c 128,-1,28
 108 241 108 241 150 260 c 1,29,30
 118 278 118 278 99.5 304.5 c 128,-1,31
 81 331 81 331 81 360 c 0,0,1
118 136 m 256,32,33
 118 115 118 115 127.5 96 c 128,-1,34
 137 77 137 77 153.5 63.5 c 128,-1,35
 170 50 170 50 192 42 c 128,-1,36
 214 34 214 34 239 34 c 256,37,38
 264 34 264 34 286 42 c 128,-1,39
 308 50 308 50 324.5 63.5 c 128,-1,40
 341 77 341 77 350.5 96 c 128,-1,41
 360 115 360 115 360 136 c 256,42,43
 360 157 360 157 350.5 175.5 c 128,-1,44
 341 194 341 194 324.5 208 c 128,-1,45
 308 222 308 222 286 230 c 128,-1,46
 264 238 264 238 239 238 c 256,47,48
 214 238 214 238 192 230 c 128,-1,49
 170 222 170 222 153.5 208 c 128,-1,50
 137 194 137 194 127.5 175.5 c 128,-1,51
 118 157 118 157 118 136 c 256,32,33
145 360 m 256,52,53
 145 326 145 326 172.5 302.5 c 128,-1,54
 200 279 200 279 239 279 c 256,55,56
 278 279 278 279 305.5 302.5 c 128,-1,57
 333 326 333 326 333 360 c 256,58,59
 333 394 333 394 305.5 417.5 c 128,-1,60
 278 441 278 441 239 441 c 256,61,62
 200 441 200 441 172.5 417.5 c 128,-1,63
 145 394 145 394 145 360 c 256,52,53
EndSplineSet
EndChar
StartChar: nine
Encoding: 57 57 26
Width: 480
Flags: W
Fore
206 8 m 2,0,1
 175 -26 175 -26 137 7 c 1,2,-1
 253 132 l 1,3,-1
 239 132 l 2,4,5
 201 132 201 132 167.5 145.5 c 128,-1,6
 134 159 134 159 109 183 c 128,-1,7
 84 207 84 207 69.5 239 c 128,-1,8
 55 271 55 271 55 307 c 256,9,10
 55 343 55 343 69.5 374.5 c 128,-1,11
 84 406 84 406 109 430 c 128,-1,12
 134 454 134 454 167.5 467.5 c 128,-1,13
 201 481 201 481 239 481 c 256,14,15
 277 481 277 481 311 467.5 c 128,-1,16
 345 454 345 454 370 430 c 128,-1,17
 395 406 395 406 409.5 374.5 c 128,-1,18
 424 343 424 343 424 307 c 0,19,20
 424 272 424 272 408 240 c 128,-1,21
 392 208 392 208 368 182 c 2,22,-1
 206 8 l 2,0,1
118 307 m 256,23,24
 118 279 118 279 127.5 254.5 c 128,-1,25
 137 230 137 230 153.5 211.5 c 128,-1,26
 170 193 170 193 192 182.5 c 128,-1,27
 214 172 214 172 239 172 c 256,28,29
 264 172 264 172 286 182.5 c 128,-1,30
 308 193 308 193 324.5 211.5 c 128,-1,31
 341 230 341 230 350.5 254.5 c 128,-1,32
 360 279 360 279 360 307 c 256,33,34
 360 335 360 335 350.5 359.5 c 128,-1,35
 341 384 341 384 324.5 402 c 128,-1,36
 308 420 308 420 286 430.5 c 128,-1,37
 264 441 264 441 239 441 c 256,38,39
 214 441 214 441 192 430.5 c 128,-1,40
 170 420 170 420 153.5 402 c 128,-1,41
 137 384 137 384 127.5 359.5 c 128,-1,42
 118 335 118 335 118 307 c 256,23,24
EndSplineSet
EndChar
StartChar: less
Encoding: 60 60 29
Width: 420
Flags: W
Fore
382 399 m 1,0,1
 390 381 390 381 386.5 366 c 128,-1,2
 383 351 383 351 369 343 c 2,3,-1
 105 198 l 1,4,5
 237 126 l 128,-1,6
 369 54 l 0,7,8
 383 46 383 46 386.5 31 c 128,-1,9
 390 16 390 16 382 -2 c 1,10,-1
 45 184 l 2,11,12
 31 190 31 190 31 198 c 0,13,14
 31 205 31 205 45 213 c 2,15,-1
 382 399 l 1,0,1
EndSplineSet
EndChar
StartChar: equal
Encoding: 61 61 30
Width: 420
Flags: W
Fore
29 239 m 1,0,1
 29 277 29 277 74 277 c 2,2,-1
 390 277 l 1,3,4
 390 239 390 239 344 239 c 2,5,-1
 29 239 l 1,0,1
29 120 m 1,6,7
 29 158 29 158 74 158 c 2,8,-1
 390 158 l 1,9,10
 390 120 390 120 344 120 c 2,11,-1
 29 120 l 1,6,7
EndSplineSet
EndChar
StartChar: question
Encoding: 63 63 32
Width: 354
Flags: W
Fore
203 135 m 2,0,1
 203 95 203 95 142 95 c 1,2,-1
 142 156 l 2,3,4
 143 190 143 190 162.5 212.5 c 128,-1,5
 182 235 182 235 206 255 c 0,6,7
 227 272 227 272 244.5 292.5 c 128,-1,8
 262 313 262 313 262 348 c 0,9,10
 262 390 262 390 236.5 416.5 c 128,-1,11
 211 443 211 443 172 443 c 0,12,13
 136 443 136 443 109.5 417.5 c 128,-1,14
 83 392 83 392 83 348 c 0,15,16
 83 341 83 341 83 337 c 128,-1,17
 83 333 83 333 84 327 c 1,18,19
 61 327 61 327 42.5 339.5 c 128,-1,20
 24 352 24 352 23 367 c 1,21,22
 28 391 28 391 41.5 412 c 128,-1,23
 55 433 55 433 74.5 448 c 128,-1,24
 94 463 94 463 119 472 c 128,-1,25
 144 481 144 481 172 481 c 0,26,27
 202 481 202 481 229.5 472 c 128,-1,28
 257 463 257 463 278 445.5 c 128,-1,29
 299 428 299 428 311 403.5 c 128,-1,30
 323 379 323 379 323 348 c 0,31,32
 323 326 323 326 316.5 308.5 c 128,-1,33
 310 291 310 291 299.5 277 c 128,-1,34
 289 263 289 263 276 251 c 128,-1,35
 263 239 263 239 250 228 c 0,36,37
 231 213 231 213 217 197.5 c 128,-1,38
 203 182 203 182 203 156 c 2,39,-1
 203 135 l 2,0,1
124 33 m 256,40,41
 124 50 124 50 138 61 c 128,-1,42
 152 72 152 72 172 72 c 0,43,44
 193 72 193 72 207.5 61 c 128,-1,45
 222 50 222 50 222 33 c 256,46,47
 222 16 222 16 207.5 5 c 128,-1,48
 193 -6 193 -6 172 -6 c 0,49,50
 152 -6 152 -6 138 5 c 128,-1,51
 124 16 124 16 124 33 c 256,40,41
EndSplineSet
EndChar
StartChar: at
Encoding: 64 64 33
Width: 582
Flags: W
Fore
249 126 m 256,0,1
 270 126 270 126 287.5 142.5 c 128,-1,2
 305 159 305 159 318.5 183.5 c 128,-1,3
 332 208 332 208 339.5 236 c 128,-1,4
 347 264 347 264 347 286 c 0,5,6
 347 309 347 309 336 327.5 c 128,-1,7
 325 346 325 346 308 346 c 0,8,9
 285 346 285 346 265.5 331 c 128,-1,10
 246 316 246 316 232.5 293 c 128,-1,11
 219 270 219 270 211.5 242.5 c 128,-1,12
 204 215 204 215 204 191 c 0,13,14
 204 162 204 162 216 144 c 128,-1,15
 228 126 228 126 249 126 c 256,0,1
387 370 m 1,16,-1
 444 370 l 1,17,-1
 381 176 l 1,18,-1
 378 167 l 2,19,20
 376 161 376 161 374 154.5 c 128,-1,21
 372 148 372 148 372 140 c 0,22,23
 372 124 372 124 379 124 c 0,24,25
 395 124 395 124 412 138 c 128,-1,26
 429 152 429 152 442.5 174 c 128,-1,27
 456 196 456 196 464.5 224 c 128,-1,28
 473 252 473 252 473 281 c 0,29,30
 473 319 473 319 459 350 c 128,-1,31
 445 381 445 381 421.5 402.5 c 128,-1,32
 398 424 398 424 366.5 436 c 128,-1,33
 335 448 335 448 301 448 c 0,34,35
 259 448 259 448 223.5 431 c 128,-1,36
 188 414 188 414 162 385 c 128,-1,37
 136 356 136 356 121 317 c 128,-1,38
 106 278 106 278 106 235 c 0,39,40
 106 193 106 193 121 155 c 128,-1,41
 136 117 136 117 162.5 89 c 128,-1,42
 189 61 189 61 225 44.5 c 128,-1,43
 261 28 261 28 302 28 c 0,44,45
 348 28 348 28 391.5 51.5 c 128,-1,46
 435 75 435 75 464 117 c 0,47,48
 477 135 477 135 490.5 133.5 c 128,-1,49
 504 132 504 132 518 115 c 1,50,51
 486 60 486 60 428.5 27 c 128,-1,52
 371 -6 371 -6 302 -6 c 0,53,54
 248 -6 248 -6 202 13.5 c 128,-1,55
 156 33 156 33 122 66.5 c 128,-1,56
 88 100 88 100 68.5 145 c 128,-1,57
 49 190 49 190 49 240 c 0,58,59
 49 289 49 289 69 333 c 128,-1,60
 89 377 89 377 123.5 410 c 128,-1,61
 158 443 158 443 203.5 462 c 128,-1,62
 249 481 249 481 300 481 c 0,63,64
 348 481 348 481 390.5 466 c 128,-1,65
 433 451 433 451 464 424 c 128,-1,66
 495 397 495 397 513 360 c 128,-1,67
 531 323 531 323 531 280 c 0,68,69
 531 240 531 240 516 205.5 c 128,-1,70
 501 171 501 171 478 145.5 c 128,-1,71
 455 120 455 120 427 105 c 128,-1,72
 399 90 399 90 372 90 c 0,73,74
 333 90 333 90 319 120 c 1,75,76
 303 108 303 108 282.5 99 c 128,-1,77
 262 90 262 90 240 90 c 0,78,79
 216 90 216 90 197 98 c 128,-1,80
 178 106 178 106 165.5 119.5 c 128,-1,81
 153 133 153 133 146 150.5 c 128,-1,82
 139 168 139 168 139 187 c 0,83,84
 139 223 139 223 151.5 258.5 c 128,-1,85
 164 294 164 294 186.5 321.5 c 128,-1,86
 209 349 209 349 240.5 366 c 128,-1,87
 272 383 272 383 311 383 c 0,88,89
 331 383 331 383 349 376.5 c 128,-1,90
 367 370 367 370 380 351 c 1,91,-1
 387 370 l 1,16,-1
EndSplineSet
EndChar
StartChar: A
Encoding: 65 65 34
Width: 440
Flags: W
Fore
416 49 m 2,0,1
 422 33 422 33 409.5 15.5 c 128,-1,2
 397 -2 397 -2 374 -11 c 1,3,-1
 310 154 l 1,4,-1
 129 154 l 1,5,6
 113 114 113 114 97 71 c 128,-1,7
 81 28 81 28 65 -11 c 1,8,9
 40 -2 40 -2 28.5 15.5 c 128,-1,10
 17 33 17 33 23 49 c 2,11,-1
 190 469 l 2,12,13
 195 482 195 482 219 482 c 0,14,15
 229 482 229 482 237.5 478.5 c 128,-1,16
 246 475 246 475 249 469 c 2,17,-1
 416 49 l 2,0,1
219 389 m 1,18,-1
 145 194 l 1,19,-1
 295 194 l 1,20,-1
 219 389 l 1,18,-1
EndSplineSet
EndChar
StartChar: B
Encoding: 66 66 35
Width: 485
Flags: W
Fore
415 348 m 0,0,1
 415 322 415 322 401 294 c 128,-1,2
 387 266 387 266 359 251 c 1,3,4
 404 238 404 238 429.5 205 c 128,-1,5
 455 172 455 172 455 130 c 0,6,7
 455 104 455 104 446 80.5 c 128,-1,8
 437 57 437 57 420.5 39 c 128,-1,9
 404 21 404 21 379.5 10.5 c 128,-1,10
 355 0 355 0 324 0 c 2,11,-1
 90 0 l 2,12,13
 76 0 76 0 67 6.5 c 128,-1,14
 58 13 58 13 58 22 c 2,15,-1
 58 454 l 2,16,17
 58 464 58 464 67 470 c 128,-1,18
 76 476 76 476 90 476 c 2,19,-1
 284 476 l 2,20,21
 312 476 312 476 336 465.5 c 128,-1,22
 360 455 360 455 377.5 437 c 128,-1,23
 395 419 395 419 405 396 c 128,-1,24
 415 373 415 373 415 348 c 0,0,1
122 259 m 1,25,-1
 284 259 l 2,26,27
 298 259 298 259 310.5 267 c 128,-1,28
 323 275 323 275 332 287.5 c 128,-1,29
 341 300 341 300 346.5 316 c 128,-1,30
 352 332 352 332 352 348 c 256,31,32
 352 364 352 364 346.5 379.5 c 128,-1,33
 341 395 341 395 332 408 c 128,-1,34
 323 421 323 421 310.5 429 c 128,-1,35
 298 437 298 437 284 437 c 2,36,-1
 122 437 l 1,37,-1
 122 259 l 1,25,-1
324 40 m 2,38,39
 353 40 353 40 372.5 64 c 128,-1,40
 392 88 392 88 392 130 c 256,41,42
 392 172 392 172 372.5 195.5 c 128,-1,43
 353 219 353 219 324 219 c 2,44,-1
 122 219 l 1,45,-1
 122 40 l 1,46,-1
 324 40 l 2,38,39
EndSplineSet
EndChar
StartChar: C
Encoding: 67 67 36
Width: 484
Flags: W
Fore
112 151 m 2,0,1
 112 127 112 127 122.5 105.5 c 128,-1,2
 133 84 133 84 151 68.5 c 128,-1,3
 169 53 169 53 193.5 43.5 c 128,-1,4
 218 34 218 34 246 34 c 256,5,6
 274 34 274 34 299 43.5 c 128,-1,7
 324 53 324 53 342.5 68.5 c 128,-1,8
 361 84 361 84 371.5 105.5 c 128,-1,9
 382 127 382 127 382 151 c 0,10,11
 382 156 382 156 382 162 c 128,-1,12
 382 168 382 168 381 173 c 1,13,14
 392 173 392 173 403.5 170 c 128,-1,15
 415 167 415 167 424 161 c 128,-1,16
 433 155 433 155 438.5 145.5 c 128,-1,17
 444 136 444 136 442 123 c 0,18,19
 436 94 436 94 416.5 70 c 128,-1,20
 397 46 397 46 370 29 c 128,-1,21
 343 12 343 12 311 3 c 128,-1,22
 279 -6 279 -6 246 -6 c 0,23,24
 211 -6 211 -6 176 4.5 c 128,-1,25
 141 15 141 15 112.5 35.5 c 128,-1,26
 84 56 84 56 66 85 c 128,-1,27
 48 114 48 114 48 151 c 2,28,-1
 48 326 l 2,29,30
 48 362 48 362 65.5 391 c 128,-1,31
 83 420 83 420 111.5 440 c 128,-1,32
 140 460 140 460 175 471 c 128,-1,33
 210 482 210 482 246 482 c 0,34,35
 278 482 278 482 309.5 474 c 128,-1,36
 341 466 341 466 368 450.5 c 128,-1,37
 395 435 395 435 414.5 411 c 128,-1,38
 434 387 434 387 442 355 c 0,39,40
 445 341 445 341 440 331.5 c 128,-1,41
 435 322 435 322 425.5 316 c 128,-1,42
 416 310 416 310 404 307 c 128,-1,43
 392 304 392 304 381 304 c 1,44,45
 382 309 382 309 382 315 c 128,-1,46
 382 321 382 321 382 326 c 0,47,48
 382 350 382 350 371.5 371 c 128,-1,49
 361 392 361 392 342.5 408 c 128,-1,50
 324 424 324 424 299 433 c 128,-1,51
 274 442 274 442 246 442 c 256,52,53
 218 442 218 442 193.5 433 c 128,-1,54
 169 424 169 424 151 408 c 128,-1,55
 133 392 133 392 122.5 371 c 128,-1,56
 112 350 112 350 112 326 c 2,57,-1
 112 151 l 2,0,1
EndSplineSet
EndChar
StartChar: D
Encoding: 68 68 37
Width: 504
Flags: W
Fore
256 476 m 2,0,1
 291 476 291 476 326 465.5 c 128,-1,2
 361 455 361 455 389.5 435.5 c 128,-1,3
 418 416 418 416 436 386.5 c 128,-1,4
 454 357 454 357 454 320 c 2,5,-1
 454 157 l 2,6,7
 454 121 454 121 436.5 92 c 128,-1,8
 419 63 419 63 391 42.5 c 128,-1,9
 363 22 363 22 327.5 11 c 128,-1,10
 292 0 292 0 256 0 c 2,11,-1
 90 0 l 2,12,13
 76 0 76 0 67 6.5 c 128,-1,14
 58 13 58 13 58 22 c 2,15,-1
 58 454 l 2,16,17
 58 464 58 464 67 470 c 128,-1,18
 76 476 76 476 90 476 c 2,19,-1
 256 476 l 2,0,1
122 437 m 1,20,-1
 122 40 l 1,21,-1
 256 40 l 2,22,23
 284 40 284 40 308.5 49.5 c 128,-1,24
 333 59 333 59 351.5 74.5 c 128,-1,25
 370 90 370 90 381 111.5 c 128,-1,26
 392 133 392 133 392 157 c 2,27,-1
 392 320 l 2,28,29
 392 344 392 344 381 365.5 c 128,-1,30
 370 387 370 387 351.5 402.5 c 128,-1,31
 333 418 333 418 308.5 427.5 c 128,-1,32
 284 437 284 437 256 437 c 2,33,-1
 122 437 l 1,20,-1
EndSplineSet
EndChar
StartChar: E
Encoding: 69 69 38
Width: 484
Flags: W
Fore
112 259 m 1,0,-1
 309 259 l 1,1,2
 309 219 309 219 261 219 c 2,3,-1
 112 219 l 1,4,-1
 112 151 l 2,5,6
 112 127 112 127 122.5 105.5 c 128,-1,7
 133 84 133 84 151 68.5 c 128,-1,8
 169 53 169 53 193.5 43.5 c 128,-1,9
 218 34 218 34 246 34 c 256,10,11
 274 34 274 34 299 43.5 c 128,-1,12
 324 53 324 53 342.5 68.5 c 128,-1,13
 361 84 361 84 371.5 105.5 c 128,-1,14
 382 127 382 127 382 151 c 0,15,16
 382 156 382 156 382 162 c 128,-1,17
 382 168 382 168 381 173 c 1,18,19
 392 173 392 173 403.5 170 c 128,-1,20
 415 167 415 167 424 161 c 128,-1,21
 433 155 433 155 438.5 145.5 c 128,-1,22
 444 136 444 136 442 123 c 0,23,24
 436 94 436 94 416.5 70 c 128,-1,25
 397 46 397 46 370 29 c 128,-1,26
 343 12 343 12 311 3 c 128,-1,27
 279 -6 279 -6 246 -6 c 0,28,29
 211 -6 211 -6 176 4.5 c 128,-1,30
 141 15 141 15 112.5 35.5 c 128,-1,31
 84 56 84 56 66 85 c 128,-1,32
 48 114 48 114 48 151 c 2,33,-1
 48 326 l 2,34,35
 48 362 48 362 65.5 391 c 128,-1,36
 83 420 83 420 111.5 440 c 128,-1,37
 140 460 140 460 175 471 c 128,-1,38
 210 482 210 482 246 482 c 0,39,40
 278 482 278 482 309.5 474 c 128,-1,41
 341 466 341 466 368 450.5 c 128,-1,42
 395 435 395 435 414.5 411 c 128,-1,43
 434 387 434 387 442 355 c 0,44,45
 445 341 445 341 440 331.5 c 128,-1,46
 435 322 435 322 425.5 316 c 128,-1,47
 416 310 416 310 404 307 c 128,-1,48
 392 304 392 304 381 304 c 1,49,50
 382 309 382 309 382 315 c 128,-1,51
 382 321 382 321 382 326 c 0,52,53
 382 350 382 350 371.5 371 c 128,-1,54
 361 392 361 392 342.5 408 c 128,-1,55
 324 424 324 424 299 433 c 128,-1,56
 274 442 274 442 246 442 c 256,57,58
 218 442 218 442 193.5 433 c 128,-1,59
 169 424 169 424 151 408 c 128,-1,60
 133 392 133 392 122.5 371 c 128,-1,61
 112 350 112 350 112 326 c 2,62,-1
 112 259 l 1,0,-1
EndSplineSet
EndChar
StartChar: F
Encoding: 70 70 39
Width: 484
Flags: W
Fore
48 326 m 2,0,1
 48 362 48 362 65.5 391 c 128,-1,2
 83 420 83 420 111.5 440 c 128,-1,3
 140 460 140 460 175 471 c 128,-1,4
 210 482 210 482 246 482 c 0,5,6
 278 482 278 482 309 474 c 128,-1,7
 340 466 340 466 366.5 450.5 c 128,-1,8
 393 435 393 435 413 411 c 128,-1,9
 433 387 433 387 442 355 c 0,10,11
 445 341 445 341 440 331.5 c 128,-1,12
 435 322 435 322 425.5 316 c 128,-1,13
 416 310 416 310 404 307 c 128,-1,14
 392 304 392 304 381 304 c 1,15,16
 382 309 382 309 382 315 c 128,-1,17
 382 321 382 321 382 326 c 0,18,19
 382 350 382 350 371.5 371 c 128,-1,20
 361 392 361 392 342.5 408 c 128,-1,21
 324 424 324 424 299 433 c 128,-1,22
 274 442 274 442 246 442 c 256,23,24
 218 442 218 442 193.5 433 c 128,-1,25
 169 424 169 424 151 408 c 128,-1,26
 133 392 133 392 122.5 371 c 128,-1,27
 112 350 112 350 112 326 c 2,28,-1
 112 259 l 1,29,-1
 309 259 l 1,30,31
 309 219 309 219 261 219 c 2,32,-1
 112 219 l 1,33,-1
 112 36 l 2,34,35
 112 -6 112 -6 48 -6 c 1,36,-1
 48 326 l 2,0,1
EndSplineSet
EndChar
StartChar: G
Encoding: 71 71 40
Width: 494
Flags: W
Fore
444 151 m 1,0,1
 444 114 444 114 426 85 c 128,-1,2
 408 56 408 56 379.5 35.5 c 128,-1,3
 351 15 351 15 316 4.5 c 128,-1,4
 281 -6 281 -6 246 -6 c 256,5,6
 211 -6 211 -6 176 4.5 c 128,-1,7
 141 15 141 15 112.5 35.5 c 128,-1,8
 84 56 84 56 66 85 c 128,-1,9
 48 114 48 114 48 151 c 2,10,-1
 48 326 l 2,11,12
 48 362 48 362 65.5 391 c 128,-1,13
 83 420 83 420 111.5 440 c 128,-1,14
 140 460 140 460 175 471 c 128,-1,15
 210 482 210 482 246 482 c 0,16,17
 278 482 278 482 309.5 474 c 128,-1,18
 341 466 341 466 368 450.5 c 128,-1,19
 395 435 395 435 414.5 411 c 128,-1,20
 434 387 434 387 442 355 c 0,21,22
 445 341 445 341 440 331.5 c 128,-1,23
 435 322 435 322 425.5 316 c 128,-1,24
 416 310 416 310 404 307 c 128,-1,25
 392 304 392 304 381 304 c 1,26,27
 382 309 382 309 382 315 c 128,-1,28
 382 321 382 321 382 326 c 0,29,30
 382 350 382 350 371.5 371 c 128,-1,31
 361 392 361 392 342.5 408 c 128,-1,32
 324 424 324 424 299 433 c 128,-1,33
 274 442 274 442 246 442 c 256,34,35
 218 442 218 442 193.5 433 c 128,-1,36
 169 424 169 424 151 408 c 128,-1,37
 133 392 133 392 122.5 371 c 128,-1,38
 112 350 112 350 112 326 c 2,39,-1
 112 151 l 2,40,41
 112 127 112 127 122.5 105.5 c 128,-1,42
 133 84 133 84 151 68.5 c 128,-1,43
 169 53 169 53 193.5 43.5 c 128,-1,44
 218 34 218 34 246 34 c 256,45,46
 274 34 274 34 298.5 43.5 c 128,-1,47
 323 53 323 53 341.5 68.5 c 128,-1,48
 360 84 360 84 370.5 105.5 c 128,-1,49
 381 127 381 127 381 151 c 2,50,-1
 381 219 l 1,51,-1
 235 219 l 1,52,53
 235 259 235 259 283 259 c 2,54,-1
 412 259 l 2,55,56
 426 259 426 259 435 252.5 c 128,-1,57
 444 246 444 246 444 237 c 2,58,-1
 444 151 l 1,59,-1
 444 151 l 1,0,1
EndSplineSet
EndChar
StartChar: H
Encoding: 72 72 41
Width: 514
Flags: W
Fore
454 36 m 2,0,1
 454 -6 454 -6 391 -6 c 1,2,-1
 391 219 l 1,3,-1
 122 219 l 1,4,-1
 122 36 l 2,5,6
 122 -6 122 -6 58 -6 c 1,7,-1
 58 440 l 2,8,9
 58 482 58 482 122 482 c 1,10,-1
 122 259 l 1,11,-1
 391 259 l 1,12,-1
 391 440 l 2,13,14
 391 482 391 482 454 482 c 1,15,-1
 454 36 l 2,0,1
EndSplineSet
EndChar
StartChar: I
Encoding: 73 73 42
Width: 180
Flags: W
Fore
122 36 m 2,0,1
 122 -6 122 -6 58 -6 c 1,2,-1
 58 440 l 2,3,4
 58 482 58 482 122 482 c 1,5,-1
 122 36 l 2,0,1
EndSplineSet
EndChar
StartChar: J
Encoding: 74 74 43
Width: 445
Flags: W
Fore
102 151 m 0,0,1
 102 127 102 127 111 105.5 c 128,-1,2
 120 84 120 84 136 68.5 c 128,-1,3
 152 53 152 53 172.5 43.5 c 128,-1,4
 193 34 193 34 217 34 c 256,5,6
 241 34 241 34 261.5 43.5 c 128,-1,7
 282 53 282 53 298 68.5 c 128,-1,8
 314 84 314 84 323 105.5 c 128,-1,9
 332 127 332 127 332 151 c 2,10,-1
 332 437 l 1,11,-1
 250 437 l 2,12,13
 202 437 202 437 202 476 c 1,14,-1
 365 476 l 2,15,16
 378 476 378 476 386.5 470 c 128,-1,17
 395 464 395 464 395 454 c 2,18,-1
 395 151 l 2,19,20
 395 119 395 119 381 90.5 c 128,-1,21
 367 62 367 62 343 40.5 c 128,-1,22
 319 19 319 19 286.5 6.5 c 128,-1,23
 254 -6 254 -6 217 -6 c 0,24,25
 184 -6 184 -6 154 4 c 128,-1,26
 124 14 124 14 101 31 c 128,-1,27
 78 48 78 48 62.5 72 c 128,-1,28
 47 96 47 96 41 123 c 0,29,30
 36 150 36 150 57.5 161.5 c 128,-1,31
 79 173 79 173 104 173 c 1,32,33
 103 168 103 168 102.5 162.5 c 128,-1,34
 102 157 102 157 102 151 c 0,0,1
EndSplineSet
EndChar
StartChar: K
Encoding: 75 75 44
Width: 474
Flags: W
Fore
58 440 m 2,0,1
 58 482 58 482 122 482 c 1,2,-1
 122 247 l 1,3,4
 185 307 185 307 249 369 c 128,-1,5
 313 431 313 431 375 489 c 1,6,7
 408 455 408 455 382 429 c 2,8,-1
 230 284 l 1,9,-1
 223 281 l 1,10,11
 226 282 226 282 229.5 282 c 128,-1,12
 233 282 233 282 236 282 c 0,13,14
 273 282 273 282 305.5 269.5 c 128,-1,15
 338 257 338 257 362 236 c 128,-1,16
 386 215 386 215 400 186.5 c 128,-1,17
 414 158 414 158 414 125 c 2,18,-1
 414 36 l 2,19,20
 414 -6 414 -6 351 -6 c 1,21,-1
 351 125 l 2,22,23
 351 149 351 149 342 170.5 c 128,-1,24
 333 192 333 192 317 208 c 128,-1,25
 301 224 301 224 280.5 233.5 c 128,-1,26
 260 243 260 243 236 243 c 0,27,28
 213 243 213 243 192 233.5 c 128,-1,29
 171 224 171 224 155.5 208 c 128,-1,30
 140 192 140 192 131 170.5 c 128,-1,31
 122 149 122 149 122 125 c 2,32,-1
 122 36 l 2,33,34
 122 -6 122 -6 58 -6 c 1,35,-1
 58 440 l 2,0,1
EndSplineSet
EndChar
StartChar: L
Encoding: 76 76 45
Width: 434
Flags: W
Fore
367 40 m 2,0,1
 414 40 414 40 414 0 c 1,2,-1
 90 0 l 2,3,4
 76 0 76 0 67 6.5 c 128,-1,5
 58 13 58 13 58 22 c 2,6,-1
 58 440 l 2,7,8
 58 482 58 482 122 482 c 1,9,-1
 122 40 l 1,10,-1
 367 40 l 2,0,1
EndSplineSet
EndChar
StartChar: M
Encoding: 77 77 46
Width: 588
Flags: W
Fore
59 440 m 2,0,1
 59 482 59 482 121 482 c 1,2,-1
 293 85 l 1,3,-1
 465 482 l 1,4,5
 528 482 528 482 528 440 c 2,6,-1
 528 36 l 2,7,8
 528 -6 528 -6 464 -6 c 1,9,-1
 464 336 l 1,10,-1
 322 8 l 2,11,12
 319 3 319 3 311.5 -1.5 c 128,-1,13
 304 -6 304 -6 293 -6 c 256,14,15
 282 -6 282 -6 274.5 -1.5 c 128,-1,16
 267 3 267 3 264 8 c 2,17,-1
 122 336 l 1,18,-1
 122 36 l 2,19,20
 122 -6 122 -6 59 -6 c 1,21,-1
 59 440 l 2,0,1
EndSplineSet
EndChar
StartChar: N
Encoding: 78 78 47
Width: 514
Flags: W
Fore
58 440 m 2,0,1
 58 482 58 482 122 482 c 1,2,-1
 391 106 l 1,3,-1
 391 482 l 1,4,5
 454 482 454 482 454 440 c 2,6,-1
 454 36 l 2,7,8
 454 -6 454 -6 402 -6 c 1,9,-1
 122 383 l 1,10,-1
 122 36 l 2,11,12
 122 -6 122 -6 58 -6 c 1,13,-1
 58 440 l 2,0,1
EndSplineSet
EndChar
StartChar: O
Encoding: 79 79 48
Width: 587
Flags: W
Fore
39 238 m 256,0,1
 39 289 39 289 58.5 333.5 c 128,-1,2
 78 378 78 378 112.5 411 c 128,-1,3
 147 444 147 444 193 463 c 128,-1,4
 239 482 239 482 292 482 c 256,5,6
 345 482 345 482 391.5 463 c 128,-1,7
 438 444 438 444 472.5 411 c 128,-1,8
 507 378 507 378 527 333.5 c 128,-1,9
 547 289 547 289 547 238 c 256,10,11
 547 187 547 187 527 142.5 c 128,-1,12
 507 98 507 98 472.5 65 c 128,-1,13
 438 32 438 32 391.5 13 c 128,-1,14
 345 -6 345 -6 292 -6 c 256,15,16
 239 -6 239 -6 193 13 c 128,-1,17
 147 32 147 32 112.5 65 c 128,-1,18
 78 98 78 98 58.5 142.5 c 128,-1,19
 39 187 39 187 39 238 c 256,0,1
102 238 m 0,20,21
 102 195 102 195 117 158 c 128,-1,22
 132 121 132 121 157.5 93.5 c 128,-1,23
 183 66 183 66 218 50 c 128,-1,24
 253 34 253 34 292 34 c 0,25,26
 332 34 332 34 366.5 50 c 128,-1,27
 401 66 401 66 427 93.5 c 128,-1,28
 453 121 453 121 468 158 c 128,-1,29
 483 195 483 195 483 238 c 0,30,31
 483 280 483 280 468 317.5 c 128,-1,32
 453 355 453 355 427 382.5 c 128,-1,33
 401 410 401 410 366.5 426 c 128,-1,34
 332 442 332 442 292 442 c 0,35,36
 253 442 253 442 218 426 c 128,-1,37
 183 410 183 410 157.5 382.5 c 128,-1,38
 132 355 132 355 117 317.5 c 128,-1,39
 102 280 102 280 102 238 c 0,20,21
EndSplineSet
EndChar
StartChar: P
Encoding: 80 80 49
Width: 494
Flags: W
Fore
58 454 m 2,0,1
 58 464 58 464 67 470 c 128,-1,2
 76 476 76 476 90 476 c 2,3,-1
 323 476 l 2,4,5
 350 476 350 476 374 465.5 c 128,-1,6
 398 455 398 455 416 437 c 128,-1,7
 434 419 434 419 444 396 c 128,-1,8
 454 373 454 373 454 348 c 256,9,10
 454 323 454 323 444 299.5 c 128,-1,11
 434 276 434 276 416 258 c 128,-1,12
 398 240 398 240 374 229.5 c 128,-1,13
 350 219 350 219 323 219 c 2,14,-1
 122 219 l 1,15,-1
 122 36 l 2,16,17
 122 -6 122 -6 58 -6 c 1,18,-1
 58 454 l 2,0,1
323 259 m 2,19,20
 337 259 337 259 349.5 267 c 128,-1,21
 362 275 362 275 371 287.5 c 128,-1,22
 380 300 380 300 385.5 316 c 128,-1,23
 391 332 391 332 391 348 c 256,24,25
 391 364 391 364 385.5 379.5 c 128,-1,26
 380 395 380 395 371 408 c 128,-1,27
 362 421 362 421 349.5 429 c 128,-1,28
 337 437 337 437 323 437 c 2,29,-1
 122 437 l 1,30,-1
 122 259 l 1,31,-1
 323 259 l 2,19,20
EndSplineSet
EndChar
StartChar: Q
Encoding: 81 81 50
Width: 587
Flags: W
Fore
547 27 m 1,0,1
 547 3 547 3 531.5 -4.5 c 128,-1,2
 516 -12 516 -12 487 -3 c 0,3,4
 470 2 470 2 455 10.5 c 128,-1,5
 440 19 440 19 427 30 c 1,6,7
 398 13 398 13 363.5 3.5 c 128,-1,8
 329 -6 329 -6 292 -6 c 0,9,10
 239 -6 239 -6 193 13 c 128,-1,11
 147 32 147 32 112.5 65 c 128,-1,12
 78 98 78 98 58.5 142.5 c 128,-1,13
 39 187 39 187 39 238 c 256,14,15
 39 289 39 289 58.5 333.5 c 128,-1,16
 78 378 78 378 112.5 411 c 128,-1,17
 147 444 147 444 193 463 c 128,-1,18
 239 482 239 482 292 482 c 256,19,20
 345 482 345 482 391.5 463 c 128,-1,21
 438 444 438 444 472.5 411 c 128,-1,22
 507 378 507 378 527 333.5 c 128,-1,23
 547 289 547 289 547 238 c 0,24,25
 547 185 547 185 526 139.5 c 128,-1,26
 505 94 505 94 468 61 c 1,27,28
 486 47 486 47 502.5 38 c 128,-1,29
 519 29 519 29 535 29 c 1,30,-1
 547 27 l 1,0,1
102 238 m 0,31,32
 102 225 102 225 103 213 c 128,-1,33
 104 201 104 201 107 190 c 1,34,35
 148 201 148 201 186 201 c 0,36,37
 228 201 228 201 270.5 188.5 c 128,-1,38
 313 176 313 176 348 155 c 0,39,40
 372 140 372 140 387.5 128.5 c 128,-1,41
 403 117 403 117 414 106 c 2,42,-1
 423 98 l 1,43,-1
 428 94 l 1,44,45
 454 121 454 121 468.5 158 c 128,-1,46
 483 195 483 195 483 238 c 0,47,48
 483 280 483 280 468 317.5 c 128,-1,49
 453 355 453 355 427 382.5 c 128,-1,50
 401 410 401 410 366.5 426 c 128,-1,51
 332 442 332 442 292 442 c 0,52,53
 253 442 253 442 218 426 c 128,-1,54
 183 410 183 410 157.5 382.5 c 128,-1,55
 132 355 132 355 117 317.5 c 128,-1,56
 102 280 102 280 102 238 c 0,31,32
292 34 m 0,57,58
 346 34 346 34 391 62 c 1,59,-1
 385 68 l 1,60,-1
 385 67 l 1,61,62
 368 82 368 82 349 96.5 c 128,-1,63
 330 111 330 111 315 121 c 1,64,-1
 316 121 l 1,65,66
 285 140 285 140 251.5 150.5 c 128,-1,67
 218 161 218 161 186 161 c 0,68,69
 156 161 156 161 121 147 c 1,70,71
 144 96 144 96 189.5 65 c 128,-1,72
 235 34 235 34 292 34 c 0,57,58
EndSplineSet
EndChar
StartChar: R
Encoding: 82 82 51
Width: 505
Flags: W
Fore
323 259 m 2,0,1
 337 259 337 259 349.5 267 c 128,-1,2
 362 275 362 275 371 287.5 c 128,-1,3
 380 300 380 300 385.5 316 c 128,-1,4
 391 332 391 332 391 348 c 256,5,6
 391 364 391 364 385.5 379.5 c 128,-1,7
 380 395 380 395 371 408 c 128,-1,8
 362 421 362 421 349.5 429 c 128,-1,9
 337 437 337 437 323 437 c 2,10,-1
 122 437 l 1,11,-1
 122 259 l 1,12,-1
 323 259 l 2,0,1
122 36 m 2,13,14
 122 -6 122 -6 58 -6 c 1,15,-1
 58 454 l 2,16,17
 58 464 58 464 67 470 c 128,-1,18
 76 476 76 476 90 476 c 2,19,-1
 323 476 l 2,20,21
 350 476 350 476 374 465.5 c 128,-1,22
 398 455 398 455 416 437 c 128,-1,23
 434 419 434 419 444 396 c 128,-1,24
 454 373 454 373 454 348 c 0,25,26
 454 333 454 333 448.5 317 c 128,-1,27
 443 301 443 301 434 286 c 128,-1,28
 425 271 425 271 413 258.5 c 128,-1,29
 401 246 401 246 388 237 c 1,30,31
 418 221 418 221 436.5 191.5 c 128,-1,32
 455 162 455 162 455 130 c 2,33,-1
 455 36 l 2,34,35
 455 -6 455 -6 392 -6 c 1,36,-1
 392 130 l 2,37,38
 392 172 392 172 372 195.5 c 128,-1,39
 352 219 352 219 323 219 c 2,40,-1
 122 219 l 1,41,-1
 122 36 l 2,13,14
EndSplineSet
EndChar
StartChar: S
Encoding: 83 83 52
Width: 474
Flags: W
Fore
100 151 m 0,0,1
 100 127 100 127 110.5 106 c 128,-1,2
 121 85 121 85 139.5 69 c 128,-1,3
 158 53 158 53 182.5 43.5 c 128,-1,4
 207 34 207 34 235 34 c 256,5,6
 263 34 263 34 288 43.5 c 128,-1,7
 313 53 313 53 332 69 c 128,-1,8
 351 85 351 85 361 106 c 128,-1,9
 371 127 371 127 370 149 c 0,10,11
 368 167 368 167 357 179 c 128,-1,12
 346 191 346 191 327 199.5 c 128,-1,13
 308 208 308 208 283 214 c 128,-1,14
 258 220 258 220 229 226 c 0,15,16
 188 234 188 234 157.5 242.5 c 128,-1,17
 127 251 127 251 105.5 263.5 c 128,-1,18
 84 276 84 276 72.5 294 c 128,-1,19
 61 312 61 312 58 339 c 0,20,21
 55 367 55 367 67 392.5 c 128,-1,22
 79 418 79 418 102 438 c 128,-1,23
 125 458 125 458 159 470 c 128,-1,24
 193 482 193 482 235 482 c 0,25,26
 310 482 310 482 355 445 c 128,-1,27
 400 408 400 408 409 353 c 1,28,29
 408 331 408 331 388 317.5 c 128,-1,30
 368 304 368 304 347 304 c 1,31,32
 348 309 348 309 348 315 c 128,-1,33
 348 321 348 321 348 326 c 0,34,35
 348 350 348 350 340.5 371 c 128,-1,36
 333 392 333 392 318.5 407.5 c 128,-1,37
 304 423 304 423 283 432.5 c 128,-1,38
 262 442 262 442 235 442 c 256,39,40
 208 442 208 442 186.5 433.5 c 128,-1,41
 165 425 165 425 150 411 c 128,-1,42
 135 397 135 397 127.5 379.5 c 128,-1,43
 120 362 120 362 122 343 c 0,44,45
 125 308 125 308 154.5 292.5 c 128,-1,46
 184 277 184 277 241 265 c 0,47,48
 280 258 280 258 314.5 250 c 128,-1,49
 349 242 349 242 374.5 230 c 128,-1,50
 400 218 400 218 415.5 199.5 c 128,-1,51
 431 181 431 181 433 152 c 0,52,53
 435 121 435 121 420 92.5 c 128,-1,54
 405 64 405 64 377.5 42 c 128,-1,55
 350 20 350 20 313 7 c 128,-1,56
 276 -6 276 -6 235 -6 c 0,57,58
 198 -6 198 -6 165 4 c 128,-1,59
 132 14 132 14 106 31 c 128,-1,60
 80 48 80 48 62.5 72 c 128,-1,61
 45 96 45 96 39 123 c 0,62,63
 37 136 37 136 42 145.5 c 128,-1,64
 47 155 47 155 56 161 c 128,-1,65
 65 167 65 167 77 170 c 128,-1,66
 89 173 89 173 101 173 c 1,67,68
 100 168 100 168 100 162.5 c 128,-1,69
 100 157 100 157 100 151 c 0,0,1
EndSplineSet
EndChar
StartChar: T
Encoding: 84 84 53
Width: 393
Flags: W
Fore
393 476 m 1,0,1
 393 437 393 437 346 437 c 2,2,-1
 228 437 l 1,3,-1
 228 36 l 2,4,5
 228 -6 228 -6 165 -6 c 1,6,-1
 165 437 l 1,7,-1
 -1 437 l 1,8,9
 -1 476 -1 476 46 476 c 2,10,-1
 393 476 l 1,0,1
EndSplineSet
EndChar
StartChar: U
Encoding: 85 85 54
Width: 514
Flags: W
Fore
122 151 m 2,0,1
 122 127 122 127 132.5 105.5 c 128,-1,2
 143 84 143 84 161 68.5 c 128,-1,3
 179 53 179 53 203.5 43.5 c 128,-1,4
 228 34 228 34 256 34 c 256,5,6
 284 34 284 34 308.5 43.5 c 128,-1,7
 333 53 333 53 351.5 68.5 c 128,-1,8
 370 84 370 84 380.5 105.5 c 128,-1,9
 391 127 391 127 391 151 c 2,10,-1
 391 440 l 2,11,12
 391 482 391 482 454 482 c 1,13,-1
 454 151 l 2,14,15
 454 114 454 114 436 85 c 128,-1,16
 418 56 418 56 389.5 35.5 c 128,-1,17
 361 15 361 15 326 4.5 c 128,-1,18
 291 -6 291 -6 256 -6 c 256,19,20
 221 -6 221 -6 186 4.5 c 128,-1,21
 151 15 151 15 122.5 35.5 c 128,-1,22
 94 56 94 56 76 85 c 128,-1,23
 58 114 58 114 58 151 c 2,24,-1
 58 440 l 2,25,26
 58 482 58 482 122 482 c 1,27,-1
 122 151 l 2,0,1
EndSplineSet
EndChar
StartChar: V
Encoding: 86 86 55
Width: 452
Flags: W
Fore
224 87 m 1,0,1
 260 181 260 181 296.5 272 c 128,-1,2
 333 363 333 363 368 456 c 0,3,4
 376 473 376 473 397 480 c 128,-1,5
 418 487 418 487 441 477 c 1,6,-1
 255 7 l 2,7,8
 248 -6 248 -6 225 -6 c 256,9,10
 202 -6 202 -6 196 7 c 2,11,-1
 10 477 l 1,12,13
 33 487 33 487 54 480 c 128,-1,14
 75 473 75 473 83 456 c 2,15,-1
 224 87 l 1,0,1
EndSplineSet
EndChar
StartChar: W
Encoding: 87 87 56
Width: 658
Flags: W
Fore
327 326 m 1,0,-1
 221 -6 l 1,1,2
 193 -6 193 -6 178.5 2.5 c 128,-1,3
 164 11 164 11 159 28 c 2,4,-1
 10 479 l 1,5,6
 34 487 34 487 55.5 479.5 c 128,-1,7
 77 472 77 472 82 454 c 2,8,-1
 196 104 l 1,9,-1
 297 423 l 2,10,11
 302 437 302 437 327 437 c 256,12,13
 352 437 352 437 357 423 c 2,14,-1
 458 104 l 1,15,16
 486 192 486 192 514.5 279 c 128,-1,17
 543 366 543 366 572 454 c 0,18,19
 578 472 578 472 599 479.5 c 128,-1,20
 620 487 620 487 644 479 c 1,21,-1
 495 28 l 2,22,23
 490 11 490 11 475.5 2.5 c 128,-1,24
 461 -6 461 -6 433 -6 c 1,25,-1
 327 326 l 1,0,-1
EndSplineSet
EndChar
StartChar: X
Encoding: 88 88 57
Width: 440
Flags: W
Fore
21 474 m 1,0,1
 41 488 41 488 61 484.5 c 128,-1,2
 81 481 81 481 92 465 c 2,3,-1
 219 289 l 1,4,-1
 347 465 l 2,5,6
 359 481 359 481 378.5 484.5 c 128,-1,7
 398 488 398 488 418 474 c 1,8,-1
 251 245 l 1,9,-1
 428 3 l 1,10,11
 408 -12 408 -12 389 -8 c 128,-1,12
 370 -4 370 -4 357 13 c 2,13,-1
 219 201 l 1,14,-1
 82 13 l 2,15,16
 70 -4 70 -4 50.5 -7.5 c 128,-1,17
 31 -11 31 -11 11 3 c 1,18,-1
 187 245 l 1,19,-1
 21 474 l 1,0,1
EndSplineSet
EndChar
StartChar: Y
Encoding: 89 89 58
Width: 420
Flags: W
Fore
241 36 m 2,0,1
 241 -6 241 -6 178 -6 c 1,2,-1
 178 245 l 1,3,-1
 11 474 l 1,4,5
 31 488 31 488 51 484.5 c 128,-1,6
 71 481 71 481 82 465 c 2,7,-1
 209 289 l 1,8,-1
 337 465 l 2,9,10
 349 481 349 481 368.5 484.5 c 128,-1,11
 388 488 388 488 408 474 c 1,12,-1
 241 245 l 1,13,-1
 241 36 l 2,0,1
EndSplineSet
EndChar
StartChar: Z
Encoding: 90 90 59
Width: 440
Flags: W
Fore
50 0 m 1,0,1
 34 0 34 0 25.5 12 c 128,-1,2
 17 24 17 24 25 34 c 2,3,-1
 343 437 l 1,4,-1
 66 437 l 2,5,6
 19 437 19 437 19 476 c 1,7,-1
 388 476 l 2,8,9
 404 476 404 476 412.5 464 c 128,-1,10
 421 452 421 452 413 442 c 2,11,-1
 95 40 l 1,12,-1
 373 40 l 2,13,14
 420 40 420 40 420 0 c 1,15,-1
 50 0 l 1,16,-1
 50 0 l 1,0,1
EndSplineSet
EndChar
StartChar: bracketleft
Encoding: 91 91 60
Width: 211
Flags: W
Fore
58 -85 m 1,0,-1
 58 493 l 1,1,-1
 217 493 l 1,2,3
 217 453 217 453 169 453 c 2,4,-1
 120 453 l 1,5,-1
 120 -46 l 1,6,-1
 169 -46 l 2,7,8
 217 -46 217 -46 217 -85 c 1,9,-1
 58 -85 l 1,0,-1
EndSplineSet
EndChar
StartChar: backslash
Encoding: 92 92 61
Width: 299
Flags: W
Fore
308 -17 m 1,0,1
 285 -29 285 -29 267 -24.5 c 128,-1,2
 249 -20 249 -20 239 -3 c 2,3,-1
 -10 492 l 1,4,5
 39 517 39 517 59 478 c 2,6,-1
 308 -17 l 1,0,1
EndSplineSet
EndChar
StartChar: asciicircum
Encoding: 94 94 63
Width: 446
Flags: W
Fore
193 466 m 2,0,1
 200 478 200 478 223 478 c 0,2,3
 244 476 244 476 251 466 c 1,4,5
 287 385 287 385 324 304 c 128,-1,6
 361 223 361 223 397 142 c 1,7,8
 378 132 378 132 357 136 c 128,-1,9
 336 140 336 140 329 154 c 0,10,11
 303 215 303 215 276.5 274 c 128,-1,12
 250 333 250 333 222 396 c 1,13,14
 195 335 195 335 168 274.5 c 128,-1,15
 141 214 141 214 115 154 c 0,16,17
 107 140 107 140 86.5 136 c 128,-1,18
 66 132 66 132 48 142 c 1,19,-1
 193 466 l 2,0,1
EndSplineSet
EndChar
StartChar: underscore
Encoding: 95 95 64
Width: 382
Flags: W
Fore
0 -186 m 1,0,-1
 0 -150 l 1,1,-1
 381 -150 l 1,2,-1
 381 -186 l 1,3,-1
 0 -186 l 1,0,-1
EndSplineSet
EndChar
StartChar: grave
Encoding: 96 96 65
Width: 236
Flags: W
Fore
190 370 m 1,0,1
 164 370 164 370 149 373.5 c 128,-1,2
 134 377 134 377 124 387 c 2,3,-1
 41 477 l 1,4,-1
 76 477 l 2,5,6
 120 477 120 477 132 458 c 2,7,-1
 190 370 l 1,0,1
EndSplineSet
EndChar
StartChar: a
Encoding: 97 97 66
Width: 390
Flags: W
Fore
184 223 m 0,0,1
 233 223 233 223 271 201 c 1,2,-1
 271 232 l 2,3,4
 271 247 271 247 264 261.5 c 128,-1,5
 257 276 257 276 245.5 286.5 c 128,-1,6
 234 297 234 297 218 303.5 c 128,-1,7
 202 310 202 310 184 310 c 0,8,9
 157 310 157 310 131 288.5 c 128,-1,10
 105 267 105 267 89 235 c 1,11,12
 71 249 71 249 64 267.5 c 128,-1,13
 57 286 57 286 66 298 c 0,14,15
 86 320 86 320 117.5 333 c 128,-1,16
 149 346 149 346 184 346 c 0,17,18
 210 346 210 346 236 338.5 c 128,-1,19
 262 331 262 331 283 316 c 128,-1,20
 304 301 304 301 317 280 c 128,-1,21
 330 259 330 259 330 232 c 2,22,-1
 330 32 l 2,23,24
 330 -6 330 -6 271 -6 c 1,25,-1
 271 15 l 1,26,27
 253 5 253 5 231 -0.5 c 128,-1,28
 209 -6 209 -6 184 -6 c 0,29,30
 154 -6 154 -6 127 3 c 128,-1,31
 100 12 100 12 80.5 27.5 c 128,-1,32
 61 43 61 43 49.5 63.5 c 128,-1,33
 38 84 38 84 38 108 c 256,34,35
 38 132 38 132 49.5 153 c 128,-1,36
 61 174 61 174 80.5 189.5 c 128,-1,37
 100 205 100 205 127 214 c 128,-1,38
 154 223 154 223 184 223 c 0,0,1
184 31 m 0,39,40
 222 31 222 31 246.5 54 c 128,-1,41
 271 77 271 77 271 108 c 0,42,43
 271 140 271 140 246.5 163.5 c 128,-1,44
 222 187 222 187 184 187 c 0,45,46
 147 187 147 187 122.5 163.5 c 128,-1,47
 98 140 98 140 98 108 c 0,48,49
 98 77 98 77 122.5 54 c 128,-1,50
 147 31 147 31 184 31 c 0,39,40
EndSplineSet
Substitution: 0 65534 'L026' uni0E38
Substitution: 0 65534 'L026' uni0E38
EndChar
StartChar: b
Encoding: 98 98 67
Width: 400
Flags: W
Fore
118 109 m 2,0,1
 118 77 118 77 142.5 54 c 128,-1,2
 167 31 167 31 204 31 c 0,3,4
 242 31 242 31 266.5 54 c 128,-1,5
 291 77 291 77 291 109 c 2,6,-1
 291 232 l 2,7,8
 291 263 291 263 266.5 286.5 c 128,-1,9
 242 310 242 310 204 310 c 0,10,11
 167 310 167 310 142.5 286.5 c 128,-1,12
 118 263 118 263 118 232 c 2,13,-1
 118 109 l 2,0,1
118 324 m 1,14,15
 156 346 156 346 204 346 c 0,16,17
 235 346 235 346 261.5 337 c 128,-1,18
 288 328 288 328 307.5 313 c 128,-1,19
 327 298 327 298 338.5 277 c 128,-1,20
 350 256 350 256 350 232 c 2,21,-1
 350 109 l 2,22,23
 350 85 350 85 338.5 64.5 c 128,-1,24
 327 44 327 44 307.5 28 c 128,-1,25
 288 12 288 12 261.5 3 c 128,-1,26
 235 -6 235 -6 204 -6 c 0,27,28
 153 -6 153 -6 116 17 c 1,29,30
 112 6 112 6 99 0 c 128,-1,31
 86 -6 86 -6 58 -6 c 1,32,-1
 58 443 l 2,33,34
 58 481 58 481 118 481 c 1,35,-1
 118 324 l 1,14,15
EndSplineSet
Substitution: 0 65534 'L026' uni0E39
Substitution: 0 65534 'L026' uni0E39
EndChar
StartChar: c
Encoding: 99 99 68
Width: 364
Flags: W
Fore
194 346 m 0,0,1
 242 346 242 346 278 326.5 c 128,-1,2
 314 307 314 307 329 275 c 0,3,4
 333 265 333 265 329.5 256.5 c 128,-1,5
 326 248 326 248 318 242 c 128,-1,6
 310 236 310 236 299.5 232.5 c 128,-1,7
 289 229 289 229 281 229 c 1,8,9
 281 245 281 245 274.5 259.5 c 128,-1,10
 268 274 268 274 256.5 285.5 c 128,-1,11
 245 297 245 297 229 303.5 c 128,-1,12
 213 310 213 310 194 310 c 0,13,14
 157 310 157 310 132.5 286.5 c 128,-1,15
 108 263 108 263 108 231 c 2,16,-1
 108 108 l 2,17,18
 108 77 108 77 132.5 54 c 128,-1,19
 157 31 157 31 194 31 c 0,20,21
 213 31 213 31 229 37.5 c 128,-1,22
 245 44 245 44 256.5 55 c 128,-1,23
 268 66 268 66 274.5 80.5 c 128,-1,24
 281 95 281 95 281 111 c 1,25,26
 289 111 289 111 299.5 107.5 c 128,-1,27
 310 104 310 104 318 98 c 128,-1,28
 326 92 326 92 329.5 83.5 c 128,-1,29
 333 75 333 75 329 65 c 0,30,31
 314 33 314 33 278 13.5 c 128,-1,32
 242 -6 242 -6 194 -6 c 0,33,34
 164 -6 164 -6 137 3 c 128,-1,35
 110 12 110 12 90.5 27.5 c 128,-1,36
 71 43 71 43 59.5 63.5 c 128,-1,37
 48 84 48 84 48 108 c 2,38,-1
 48 231 l 2,39,40
 48 255 48 255 59.5 276 c 128,-1,41
 71 297 71 297 90.5 312.5 c 128,-1,42
 110 328 110 328 137 337 c 128,-1,43
 164 346 164 346 194 346 c 0,0,1
EndSplineSet
Substitution: 0 65534 'L026' uni0E3A
Substitution: 0 65534 'L026' uni0E3A
EndChar
StartChar: d
Encoding: 100 100 69
Width: 400
Flags: W
Fore
281 231 m 2,0,1
 281 263 281 263 256.5 286.5 c 128,-1,2
 232 310 232 310 194 310 c 0,3,4
 157 310 157 310 132.5 286.5 c 128,-1,5
 108 263 108 263 108 231 c 2,6,-1
 108 108 l 2,7,8
 108 77 108 77 132.5 54 c 128,-1,9
 157 31 157 31 194 31 c 0,10,11
 232 31 232 31 256.5 54 c 128,-1,12
 281 77 281 77 281 108 c 2,13,-1
 281 231 l 2,0,1
194 346 m 0,14,15
 243 346 243 346 281 324 c 1,16,-1
 281 443 l 2,17,18
 281 481 281 481 340 481 c 1,19,-1
 340 32 l 2,20,21
 340 -6 340 -6 281 -6 c 1,22,-1
 281 15 l 1,23,24
 263 5 263 5 241 -0.5 c 128,-1,25
 219 -6 219 -6 194 -6 c 0,26,27
 164 -6 164 -6 137 3 c 128,-1,28
 110 12 110 12 90.5 27.5 c 128,-1,29
 71 43 71 43 59.5 63.5 c 128,-1,30
 48 84 48 84 48 108 c 2,31,-1
 48 231 l 2,32,33
 48 255 48 255 59.5 276 c 128,-1,34
 71 297 71 297 90.5 312.5 c 128,-1,35
 110 328 110 328 137 337 c 128,-1,36
 164 346 164 346 194 346 c 0,14,15
EndSplineSet
EndChar
StartChar: e
Encoding: 101 101 70
Width: 390
Flags: W
Fore
108 108 m 2,0,1
 108 77 108 77 132.5 54 c 128,-1,2
 157 31 157 31 194 31 c 0,3,4
 213 31 213 31 229 37.5 c 128,-1,5
 245 44 245 44 256.5 55 c 128,-1,6
 268 66 268 66 274.5 80.5 c 128,-1,7
 281 95 281 95 281 111 c 1,8,9
 289 111 289 111 299.5 107.5 c 128,-1,10
 310 104 310 104 318 98 c 128,-1,11
 326 92 326 92 329.5 83.5 c 128,-1,12
 333 75 333 75 329 65 c 0,13,14
 314 33 314 33 278 13.5 c 128,-1,15
 242 -6 242 -6 194 -6 c 0,16,17
 164 -6 164 -6 137 3 c 128,-1,18
 110 12 110 12 90.5 27.5 c 128,-1,19
 71 43 71 43 59.5 63.5 c 128,-1,20
 48 84 48 84 48 108 c 2,21,-1
 48 231 l 2,22,23
 48 255 48 255 59.5 276 c 128,-1,24
 71 297 71 297 90.5 312.5 c 128,-1,25
 110 328 110 328 137 337 c 128,-1,26
 164 346 164 346 194 346 c 0,27,28
 225 346 225 346 251.5 337 c 128,-1,29
 278 328 278 328 297.5 312.5 c 128,-1,30
 317 297 317 297 328.5 276 c 128,-1,31
 340 255 340 255 340 231 c 2,32,-1
 340 195 l 2,33,34
 340 187 340 187 330.5 181.5 c 128,-1,35
 321 176 321 176 310 176 c 2,36,-1
 108 176 l 1,37,-1
 108 108 l 2,0,1
108 212 m 1,38,-1
 281 212 l 1,39,-1
 281 231 l 2,40,41
 281 263 281 263 256.5 286.5 c 128,-1,42
 232 310 232 310 194 310 c 0,43,44
 157 310 157 310 132.5 286.5 c 128,-1,45
 108 263 108 263 108 231 c 2,46,-1
 108 212 l 1,38,-1
EndSplineSet
EndChar
StartChar: f
Encoding: 102 102 71
Width: 220
Flags: W
Fore
66 304 m 1,0,-1
 8 304 l 1,1,2
 8 340 8 340 53 340 c 2,3,-1
 66 340 l 1,4,-1
 66 389 l 2,5,6
 66 427 66 427 95.5 454 c 128,-1,7
 125 481 125 481 176 481 c 0,8,9
 201 481 201 481 210.5 465.5 c 128,-1,10
 220 450 220 450 211 433 c 1,11,12
 186 444 186 444 176 444 c 0,13,14
 151 444 151 444 138 428 c 128,-1,15
 125 412 125 412 125 389 c 2,16,-1
 125 340 l 1,17,-1
 188 340 l 1,18,19
 188 304 188 304 143 304 c 2,20,-1
 125 304 l 1,21,-1
 125 32 l 2,22,23
 125 -6 125 -6 66 -6 c 1,24,-1
 66 304 l 1,0,-1
EndSplineSet
EndChar
StartChar: g
Encoding: 103 103 72
Width: 400
Flags: W
Fore
281 231 m 2,0,1
 281 263 281 263 256.5 286.5 c 128,-1,2
 232 310 232 310 194 310 c 0,3,4
 157 310 157 310 132.5 286.5 c 128,-1,5
 108 263 108 263 108 231 c 2,6,-1
 108 108 l 2,7,8
 108 77 108 77 132.5 54 c 128,-1,9
 157 31 157 31 194 31 c 0,10,11
 232 31 232 31 256.5 54 c 128,-1,12
 281 77 281 77 281 108 c 2,13,-1
 281 231 l 2,0,1
281 15 m 1,14,15
 263 5 263 5 241 -0.5 c 128,-1,16
 219 -6 219 -6 194 -6 c 0,17,18
 164 -6 164 -6 137 3 c 128,-1,19
 110 12 110 12 90.5 27.5 c 128,-1,20
 71 43 71 43 59.5 63.5 c 128,-1,21
 48 84 48 84 48 108 c 2,22,-1
 48 231 l 2,23,24
 48 255 48 255 59.5 276 c 128,-1,25
 71 297 71 297 90.5 312.5 c 128,-1,26
 110 328 110 328 137 337 c 128,-1,27
 164 346 164 346 194 346 c 0,28,29
 219 346 219 346 241.5 340 c 128,-1,30
 264 334 264 334 282 323 c 1,31,32
 286 334 286 334 299 340 c 128,-1,33
 312 346 312 346 340 346 c 1,34,-1
 340 -27 l 2,35,36
 340 -51 340 -51 328.5 -71.5 c 128,-1,37
 317 -92 317 -92 297.5 -107.5 c 128,-1,38
 278 -123 278 -123 251.5 -132 c 128,-1,39
 225 -141 225 -141 194 -141 c 0,40,41
 146 -141 146 -141 110 -121 c 128,-1,42
 74 -101 74 -101 59 -69 c 0,43,44
 54 -60 54 -60 58 -51.5 c 128,-1,45
 62 -43 62 -43 70.5 -37 c 128,-1,46
 79 -31 79 -31 89 -27.5 c 128,-1,47
 99 -24 99 -24 108 -24 c 1,48,49
 108 -56 108 -56 132.5 -80 c 128,-1,50
 157 -104 157 -104 194 -104 c 0,51,52
 232 -104 232 -104 256.5 -80.5 c 128,-1,53
 281 -57 281 -57 281 -27 c 2,54,-1
 281 15 l 1,14,15
EndSplineSet
EndChar
StartChar: h
Encoding: 104 104 73
Width: 410
Flags: W
Fore
58 443 m 2,0,1
 58 481 58 481 118 481 c 1,2,-1
 118 324 l 1,3,4
 156 346 156 346 204 346 c 0,5,6
 235 346 235 346 261.5 337 c 128,-1,7
 288 328 288 328 307.5 312.5 c 128,-1,8
 327 297 327 297 338.5 276 c 128,-1,9
 350 255 350 255 350 231 c 2,10,-1
 350 32 l 2,11,12
 350 -6 350 -6 291 -6 c 1,13,-1
 291 231 l 2,14,15
 291 263 291 263 266.5 286.5 c 128,-1,16
 242 310 242 310 204 310 c 0,17,18
 167 310 167 310 142.5 286.5 c 128,-1,19
 118 263 118 263 118 231 c 2,20,-1
 118 32 l 2,21,22
 118 -6 118 -6 58 -6 c 1,23,-1
 58 443 l 2,0,1
EndSplineSet
EndChar
StartChar: i
Encoding: 105 105 74
Width: 176
Flags: W
Fore
58 309 m 2,0,1
 58 346 58 346 117 346 c 1,2,-1
 117 32 l 2,3,4
 117 -6 117 -6 58 -6 c 1,5,-1
 58 309 l 2,0,1
42 432 m 0,6,7
 42 446 42 446 55 456.5 c 128,-1,8
 68 467 68 467 88 467 c 256,9,10
 108 467 108 467 120.5 456.5 c 128,-1,11
 133 446 133 446 133 432 c 0,12,13
 133 417 133 417 120.5 406.5 c 128,-1,14
 108 396 108 396 88 396 c 256,15,16
 68 396 68 396 55 406.5 c 128,-1,17
 42 417 42 417 42 432 c 0,6,7
EndSplineSet
EndChar
StartChar: j
Encoding: 106 106 75
Width: 176
Flags: W
Fore
117 -49 m 2,0,1
 117 -87 117 -87 87.5 -114 c 128,-1,2
 58 -141 58 -141 7 -141 c 0,3,4
 -18 -141 -18 -141 -27 -125 c 128,-1,5
 -36 -109 -36 -109 -28 -92 c 1,6,7
 -4 -104 -4 -104 7 -104 c 0,8,9
 32 -104 32 -104 45 -88 c 128,-1,10
 58 -72 58 -72 58 -49 c 2,11,-1
 58 309 l 2,12,13
 58 346 58 346 117 346 c 1,14,-1
 117 -49 l 2,0,1
42 432 m 0,15,16
 42 446 42 446 55 456.5 c 128,-1,17
 68 467 68 467 88 467 c 256,18,19
 108 467 108 467 120.5 456.5 c 128,-1,20
 133 446 133 446 133 432 c 0,21,22
 133 417 133 417 120.5 406.5 c 128,-1,23
 108 396 108 396 88 396 c 256,24,25
 68 396 68 396 55 406.5 c 128,-1,26
 42 417 42 417 42 432 c 0,15,16
EndSplineSet
EndChar
StartChar: k
Encoding: 107 107 76
Width: 400
Flags: W
Fore
58 443 m 2,0,1
 58 481 58 481 118 481 c 1,2,-1
 118 223 l 1,3,-1
 321 352 l 1,4,5
 344 312 344 312 310 292 c 2,6,-1
 232 242 l 1,7,-1
 222 242 l 1,8,9
 249 239 249 239 272.5 229.5 c 128,-1,10
 296 220 296 220 313.5 204.5 c 128,-1,11
 331 189 331 189 340.5 169.5 c 128,-1,12
 350 150 350 150 350 128 c 2,13,-1
 350 32 l 2,14,15
 350 -6 350 -6 291 -6 c 1,16,-1
 291 128 l 2,17,18
 291 160 291 160 266.5 183 c 128,-1,19
 242 206 242 206 204 206 c 0,20,21
 167 206 167 206 142.5 183 c 128,-1,22
 118 160 118 160 118 128 c 2,23,-1
 118 32 l 2,24,25
 118 -6 118 -6 58 -6 c 1,26,-1
 58 443 l 2,0,1
EndSplineSet
EndChar
StartChar: l
Encoding: 108 108 77
Width: 212
Flags: W
Fore
168 -6 m 0,0,1
 117 -6 117 -6 87.5 21 c 128,-1,2
 58 48 58 48 58 86 c 2,3,-1
 58 443 l 2,4,5
 58 481 58 481 118 481 c 1,6,-1
 118 86 l 2,7,8
 118 63 118 63 130.5 47 c 128,-1,9
 143 31 143 31 168 31 c 0,10,11
 179 31 179 31 203 43 c 1,12,13
 212 26 212 26 202.5 10 c 128,-1,14
 193 -6 193 -6 168 -6 c 0,0,1
EndSplineSet
EndChar
StartChar: m
Encoding: 109 109 78
Width: 542
Flags: W
Fore
240 254 m 2,0,1
 240 277 240 277 222 293.5 c 128,-1,2
 204 310 204 310 179 310 c 0,3,4
 153 310 153 310 135.5 293.5 c 128,-1,5
 118 277 118 277 118 254 c 2,6,-1
 118 32 l 2,7,8
 118 -6 118 -6 59 -6 c 1,9,-1
 59 309 l 2,10,11
 59 346 59 346 118 346 c 1,12,-1
 118 334 l 1,13,14
 143 346 143 346 179 346 c 0,15,16
 205 346 205 346 228 337.5 c 128,-1,17
 251 329 251 329 268 314 c 1,18,19
 303 346 303 346 360 346 c 0,20,21
 385 346 385 346 407.5 339 c 128,-1,22
 430 332 430 332 446 319.5 c 128,-1,23
 462 307 462 307 471.5 290 c 128,-1,24
 481 273 481 273 481 254 c 2,25,-1
 481 32 l 2,26,27
 481 -6 481 -6 422 -6 c 1,28,-1
 422 254 l 2,29,30
 422 277 422 277 404 293.5 c 128,-1,31
 386 310 386 310 360 310 c 0,32,33
 335 310 335 310 317.5 293.5 c 128,-1,34
 300 277 300 277 300 254 c 2,35,-1
 300 32 l 2,36,37
 300 -6 300 -6 240 -6 c 1,38,-1
 240 254 l 2,0,1
EndSplineSet
EndChar
StartChar: n
Encoding: 110 110 79
Width: 410
Flags: W
Fore
58 309 m 2,0,1
 58 346 58 346 118 346 c 1,2,-1
 118 324 l 1,3,4
 156 346 156 346 204 346 c 0,5,6
 235 346 235 346 261.5 337 c 128,-1,7
 288 328 288 328 307.5 312.5 c 128,-1,8
 327 297 327 297 338.5 276 c 128,-1,9
 350 255 350 255 350 231 c 2,10,-1
 350 32 l 2,11,12
 350 -6 350 -6 291 -6 c 1,13,-1
 291 231 l 2,14,15
 291 263 291 263 266.5 286.5 c 128,-1,16
 242 310 242 310 204 310 c 0,17,18
 167 310 167 310 142.5 286.5 c 128,-1,19
 118 263 118 263 118 231 c 2,20,-1
 118 32 l 2,21,22
 118 -6 118 -6 58 -6 c 1,23,-1
 58 309 l 2,0,1
EndSplineSet
EndChar
StartChar: o
Encoding: 111 111 80
Width: 451
Flags: W
Fore
39 170 m 0,0,1
 39 206 39 206 53.5 238 c 128,-1,2
 68 270 68 270 93 294 c 128,-1,3
 118 318 118 318 151.5 332 c 128,-1,4
 185 346 185 346 224 346 c 256,5,6
 263 346 263 346 297 332 c 128,-1,7
 331 318 331 318 356.5 294 c 128,-1,8
 382 270 382 270 396.5 238 c 128,-1,9
 411 206 411 206 411 170 c 0,10,11
 411 133 411 133 396.5 101 c 128,-1,12
 382 69 382 69 356.5 45 c 128,-1,13
 331 21 331 21 297 7.5 c 128,-1,14
 263 -6 263 -6 224 -6 c 256,15,16
 185 -6 185 -6 151.5 7.5 c 128,-1,17
 118 21 118 21 93 45 c 128,-1,18
 68 69 68 69 53.5 101 c 128,-1,19
 39 133 39 133 39 170 c 0,0,1
98 170 m 256,20,21
 98 141 98 141 108 115.5 c 128,-1,22
 118 90 118 90 135 71 c 128,-1,23
 152 52 152 52 175 41.5 c 128,-1,24
 198 31 198 31 224 31 c 256,25,26
 250 31 250 31 273 41.5 c 128,-1,27
 296 52 296 52 313.5 71 c 128,-1,28
 331 90 331 90 341 115.5 c 128,-1,29
 351 141 351 141 351 170 c 256,30,31
 351 199 351 199 341 224.5 c 128,-1,32
 331 250 331 250 313.5 269 c 128,-1,33
 296 288 296 288 273 299 c 128,-1,34
 250 310 250 310 224 310 c 256,35,36
 198 310 198 310 175 299 c 128,-1,37
 152 288 152 288 135 269 c 128,-1,38
 118 250 118 250 108 224.5 c 128,-1,39
 98 199 98 199 98 170 c 256,20,21
EndSplineSet
EndChar
StartChar: p
Encoding: 112 112 81
Width: 400
Flags: W
Fore
118 108 m 2,0,1
 118 77 118 77 142.5 54 c 128,-1,2
 167 31 167 31 204 31 c 0,3,4
 242 31 242 31 266.5 54 c 128,-1,5
 291 77 291 77 291 108 c 2,6,-1
 291 231 l 2,7,8
 291 263 291 263 266.5 286.5 c 128,-1,9
 242 310 242 310 204 310 c 0,10,11
 167 310 167 310 142.5 286.5 c 128,-1,12
 118 263 118 263 118 231 c 2,13,-1
 118 108 l 2,0,1
58 309 m 2,14,15
 58 346 58 346 118 346 c 1,16,-1
 118 324 l 1,17,18
 156 346 156 346 204 346 c 0,19,20
 235 346 235 346 261.5 337 c 128,-1,21
 288 328 288 328 307.5 312.5 c 128,-1,22
 327 297 327 297 338.5 276 c 128,-1,23
 350 255 350 255 350 231 c 2,24,-1
 350 108 l 2,25,26
 350 84 350 84 338.5 63.5 c 128,-1,27
 327 43 327 43 307.5 27.5 c 128,-1,28
 288 12 288 12 261.5 3 c 128,-1,29
 235 -6 235 -6 204 -6 c 0,30,31
 179 -6 179 -6 157.5 -0.5 c 128,-1,32
 136 5 136 5 118 15 c 1,33,-1
 118 -103 l 2,34,35
 118 -141 118 -141 58 -141 c 1,36,-1
 58 309 l 2,14,15
EndSplineSet
EndChar
StartChar: q
Encoding: 113 113 82
Width: 400
Flags: W
Fore
281 231 m 2,0,1
 281 263 281 263 256.5 286.5 c 128,-1,2
 232 310 232 310 194 310 c 0,3,4
 157 310 157 310 132.5 286.5 c 128,-1,5
 108 263 108 263 108 231 c 2,6,-1
 108 108 l 2,7,8
 108 77 108 77 132.5 54 c 128,-1,9
 157 31 157 31 194 31 c 0,10,11
 232 31 232 31 256.5 54 c 128,-1,12
 281 77 281 77 281 108 c 2,13,-1
 281 231 l 2,0,1
281 15 m 1,14,15
 263 5 263 5 241 -0.5 c 128,-1,16
 219 -6 219 -6 194 -6 c 0,17,18
 164 -6 164 -6 137 3 c 128,-1,19
 110 12 110 12 90.5 27.5 c 128,-1,20
 71 43 71 43 59.5 63.5 c 128,-1,21
 48 84 48 84 48 108 c 2,22,-1
 48 231 l 2,23,24
 48 255 48 255 59.5 276 c 128,-1,25
 71 297 71 297 90.5 312.5 c 128,-1,26
 110 328 110 328 137 337 c 128,-1,27
 164 346 164 346 194 346 c 0,28,29
 219 346 219 346 241.5 340 c 128,-1,30
 264 334 264 334 282 323 c 1,31,32
 286 334 286 334 299 340 c 128,-1,33
 312 346 312 346 340 346 c 1,34,-1
 340 -103 l 2,35,36
 340 -141 340 -141 281 -141 c 1,37,-1
 281 15 l 1,14,15
EndSplineSet
EndChar
StartChar: r
Encoding: 114 114 83
Width: 271
Flags: W
Fore
252 340 m 1,0,1
 250 323 250 323 236.5 316 c 128,-1,2
 223 309 223 309 203 310 c 0,3,4
 167 308 167 308 142.5 285 c 128,-1,5
 118 262 118 262 118 231 c 2,6,-1
 118 32 l 2,7,8
 118 -6 118 -6 58 -6 c 1,9,-1
 58 309 l 2,10,11
 58 346 58 346 118 346 c 1,12,-1
 118 323 l 1,13,14
 155 346 155 346 204 346 c 0,15,16
 215 346 215 346 225 345 c 128,-1,17
 235 344 235 344 243 342 c 2,18,-1
 252 340 l 1,0,1
EndSplineSet
EndChar
StartChar: s
Encoding: 115 115 84
Width: 349
Flags: W
Fore
303 250 m 0,0,1
 306 230 306 230 288.5 219.5 c 128,-1,2
 271 209 271 209 244 213 c 1,3,4
 248 231 248 231 244.5 248.5 c 128,-1,5
 241 266 241 266 231 279.5 c 128,-1,6
 221 293 221 293 206 301.5 c 128,-1,7
 191 310 191 310 173 310 c 0,8,9
 140 310 140 310 120 289 c 128,-1,10
 100 268 100 268 102 244 c 256,11,12
 104 220 104 220 122 210.5 c 128,-1,13
 140 201 140 201 178 193 c 0,14,15
 209 187 209 187 234 181.5 c 128,-1,16
 259 176 259 176 277.5 167 c 128,-1,17
 296 158 296 158 306.5 144 c 128,-1,18
 317 130 317 130 319 108 c 256,19,20
 321 86 321 86 309.5 65.5 c 128,-1,21
 298 45 298 45 278 29 c 128,-1,22
 258 13 258 13 230.5 3.5 c 128,-1,23
 203 -6 203 -6 173 -6 c 0,24,25
 146 -6 146 -6 122 1 c 128,-1,26
 98 8 98 8 78.5 21 c 128,-1,27
 59 34 59 34 46 51.5 c 128,-1,28
 33 69 33 69 30 89 c 0,29,30
 27 107 27 107 41.5 118 c 128,-1,31
 56 129 56 129 88 126 c 1,32,33
 83 106 83 106 89 88.5 c 128,-1,34
 95 71 95 71 108 58 c 128,-1,35
 121 45 121 45 138.5 38 c 128,-1,36
 156 31 156 31 173 31 c 0,37,38
 191 31 191 31 207.5 37.5 c 128,-1,39
 224 44 224 44 236 54.5 c 128,-1,40
 248 65 248 65 254.5 78.5 c 128,-1,41
 261 92 261 92 260 106 c 0,42,43
 258 129 258 129 231.5 139 c 128,-1,44
 205 149 205 149 168 157 c 0,45,46
 138 163 138 163 115.5 169 c 128,-1,47
 93 175 93 175 77 184 c 128,-1,48
 61 193 61 193 52.5 206.5 c 128,-1,49
 44 220 44 220 42 240 c 256,50,51
 40 260 40 260 49 279 c 128,-1,52
 58 298 58 298 75 313 c 128,-1,53
 92 328 92 328 117 337 c 128,-1,54
 142 346 142 346 173 346 c 0,55,56
 231 346 231 346 263.5 319 c 128,-1,57
 296 292 296 292 303 250 c 0,0,1
EndSplineSet
EndChar
StartChar: t
Encoding: 116 116 85
Width: 220
Flags: W
Fore
176 -4 m 0,0,1
 125 -4 125 -4 95.5 23 c 128,-1,2
 66 50 66 50 66 88 c 2,3,-1
 66 304 l 1,4,-1
 8 304 l 1,5,6
 8 340 8 340 53 340 c 2,7,-1
 66 340 l 1,8,-1
 66 445 l 2,9,10
 66 483 66 483 126 483 c 1,11,-1
 126 340 l 1,12,-1
 188 340 l 1,13,14
 188 304 188 304 143 304 c 2,15,-1
 126 304 l 1,16,-1
 126 88 l 2,17,18
 126 65 126 65 138.5 49 c 128,-1,19
 151 33 151 33 176 33 c 0,20,21
 187 33 187 33 211 45 c 1,22,23
 220 28 220 28 210.5 12 c 128,-1,24
 201 -4 201 -4 176 -4 c 0,0,1
EndSplineSet
EndChar
StartChar: u
Encoding: 117 117 86
Width: 410
Flags: W
Fore
350 32 m 2,0,1
 350 -6 350 -6 291 -6 c 1,2,-1
 291 15 l 1,3,4
 273 5 273 5 251 -0.5 c 128,-1,5
 229 -6 229 -6 204 -6 c 0,6,7
 174 -6 174 -6 147 3 c 128,-1,8
 120 12 120 12 100.5 28 c 128,-1,9
 81 44 81 44 69.5 64.5 c 128,-1,10
 58 85 58 85 58 109 c 2,11,-1
 58 309 l 2,12,13
 58 346 58 346 118 346 c 1,14,-1
 118 109 l 2,15,16
 118 77 118 77 142.5 54 c 128,-1,17
 167 31 167 31 204 31 c 0,18,19
 242 31 242 31 266.5 54 c 128,-1,20
 291 77 291 77 291 109 c 2,21,-1
 291 309 l 2,22,23
 291 346 291 346 350 346 c 1,24,-1
 350 32 l 2,0,1
EndSplineSet
EndChar
StartChar: v
Encoding: 118 118 87
Width: 356
Flags: W
Fore
177 -6 m 256,0,1
 168 -6 168 -6 161 -2 c 128,-1,2
 154 2 154 2 151 6 c 1,3,4
 118 89 118 89 82.5 173 c 128,-1,5
 47 257 47 257 15 340 c 1,6,7
 38 350 38 350 55.5 344.5 c 128,-1,8
 73 339 73 339 79 324 c 2,9,-1
 177 78 l 1,10,-1
 276 324 l 2,11,12
 281 339 281 339 298.5 344.5 c 128,-1,13
 316 350 316 350 340 340 c 1,14,-1
 204 6 l 2,15,16
 202 1 202 1 194 -2.5 c 128,-1,17
 186 -6 186 -6 177 -6 c 256,0,1
EndSplineSet
EndChar
StartChar: w
Encoding: 119 119 88
Width: 504
Flags: W
Fore
251 213 m 1,0,-1
 180 -6 l 1,1,2
 154 -6 154 -6 141.5 1 c 128,-1,3
 129 8 129 8 124 22 c 2,4,-1
 15 341 l 1,5,6
 65 358 65 358 78 321 c 0,7,8
 96 266 96 266 117 207 c 128,-1,9
 138 148 138 148 158 91 c 1,10,-1
 223 297 l 2,11,12
 225 304 225 304 233 307.5 c 128,-1,13
 241 311 241 311 251 311 c 256,14,15
 261 311 261 311 269 307.5 c 128,-1,16
 277 304 277 304 279 297 c 2,17,-1
 344 90 l 1,18,-1
 424 321 l 2,19,20
 438 357 438 357 487 341 c 1,21,-1
 378 22 l 2,22,23
 373 8 373 8 360.5 1 c 128,-1,24
 348 -6 348 -6 322 -6 c 1,25,-1
 251 213 l 1,0,-1
EndSplineSet
EndChar
StartChar: x
Encoding: 120 120 89
Width: 358
Flags: W
Fore
341 6 m 1,0,1
 302 -26 302 -26 276 10 c 2,2,-1
 178 140 l 1,3,-1
 81 10 l 2,4,5
 67 -7 67 -7 51.5 -9 c 128,-1,6
 36 -11 36 -11 16 6 c 1,7,-1
 147 181 l 1,8,-1
 32 336 l 1,9,10
 70 365 70 365 97 330 c 2,11,-1
 178 222 l 1,12,-1
 259 330 l 2,13,14
 286 365 286 365 325 336 c 1,15,-1
 209 181 l 1,16,-1
 341 6 l 1,0,1
EndSplineSet
EndChar
StartChar: y
Encoding: 121 121 90
Width: 356
Flags: W
Fore
70 -139 m 0,0,1
 19 -151 19 -151 14 -108 c 1,2,3
 26 -108 26 -108 33.5 -107.5 c 128,-1,4
 41 -107 41 -107 48 -105 c 0,5,6
 104 -90 104 -90 134 -23 c 2,7,-1
 149 12 l 1,8,-1
 15 340 l 1,9,10
 38 350 38 350 55.5 344.5 c 128,-1,11
 73 339 73 339 79 324 c 2,12,-1
 177 78 l 1,13,-1
 276 324 l 2,14,15
 281 339 281 339 298.5 344.5 c 128,-1,16
 316 350 316 350 340 340 c 1,17,-1
 187 -35 l 2,18,19
 169 -78 169 -78 142 -103 c 128,-1,20
 115 -128 115 -128 70 -139 c 0,0,1
EndSplineSet
EndChar
StartChar: z
Encoding: 122 122 91
Width: 322
Flags: W
Fore
43 0 m 1,0,1
 29 0 29 0 21 11.5 c 128,-1,2
 13 23 13 23 21 33 c 2,3,-1
 236 304 l 1,4,-1
 58 304 l 2,5,6
 14 304 14 304 14 340 c 1,7,-1
 277 340 l 2,8,9
 284 340 284 340 289.5 336.5 c 128,-1,10
 295 333 295 333 299 328.5 c 128,-1,11
 303 324 303 324 303.5 318 c 128,-1,12
 304 312 304 312 300 308 c 2,13,-1
 84 37 l 1,14,-1
 263 37 l 2,15,16
 307 37 307 37 307 0 c 1,17,-1
 43 0 l 1,18,-1
 43 0 l 1,0,1
EndSplineSet
EndChar
StartChar: braceleft
Encoding: 123 123 92
Width: 211
Flags: W
Fore
22 204 m 256,0,1
 22 211 22 211 28.5 215 c 128,-1,2
 35 219 35 219 46 219 c 0,3,4
 66 219 66 219 73 234.5 c 128,-1,5
 80 250 80 250 80 279 c 2,6,-1
 80 405 l 2,7,8
 80 447 80 447 100 470 c 128,-1,9
 120 493 120 493 158 493 c 2,10,-1
 217 493 l 1,11,12
 217 457 217 457 173 457 c 2,13,-1
 167 457 l 2,14,15
 157 457 157 457 150 448.5 c 128,-1,16
 143 440 143 440 143 414 c 2,17,-1
 143 286 l 2,18,19
 143 251 143 251 130.5 232 c 128,-1,20
 118 213 118 213 92 204 c 1,21,22
 121 196 121 196 132 178.5 c 128,-1,23
 143 161 143 161 143 123 c 2,24,-1
 143 -5 l 2,25,26
 143 -31 143 -31 150 -40 c 128,-1,27
 157 -49 157 -49 167 -49 c 2,28,-1
 173 -49 l 2,29,30
 217 -49 217 -49 217 -84 c 1,31,-1
 158 -84 l 2,32,33
 120 -84 120 -84 100 -61.5 c 128,-1,34
 80 -39 80 -39 80 4 c 2,35,-1
 80 130 l 2,36,37
 80 159 80 159 73 174 c 128,-1,38
 66 189 66 189 46 189 c 0,39,40
 35 189 35 189 28.5 193 c 128,-1,41
 22 197 22 197 22 204 c 256,0,1
EndSplineSet
EndChar
StartChar: bar
Encoding: 124 124 93
Width: 174
Flags: W
Fore
58 491 m 2,0,1
 58 527 58 527 115 527 c 1,2,-1
 115 -67 l 2,3,4
 115 -103 115 -103 58 -103 c 1,5,-1
 58 491 l 2,0,1
EndSplineSet
EndChar
StartChar: asciitilde
Encoding: 126 126 95
Width: 453
Flags: W
Fore
50 168 m 1,0,1
 33 191 33 191 35.5 205 c 128,-1,2
 38 219 38 219 56 229 c 0,3,4
 83 242 83 242 128 242 c 0,5,6
 176 242 176 242 230 217 c 0,7,8
 285 193 285 193 311 193 c 0,9,10
 353 193 353 193 396 243 c 1,11,12
 415 229 415 229 418 212.5 c 128,-1,13
 421 196 421 196 406 185 c 1,14,-1
 407 185 l 1,15,16
 388 169 388 169 364 162 c 128,-1,17
 340 155 340 155 311 155 c 0,18,19
 268 155 268 155 204 182 c 0,20,21
 160 202 160 202 128 202 c 0,22,23
 107 202 107 202 88.5 193.5 c 128,-1,24
 70 185 70 185 50 168 c 1,0,1
EndSplineSet
EndChar
StartChar: quotedbl
Encoding: 34 34 97
Width: 272
Flags: W
Fore
48 432 m 2,0,1
 46 457 46 457 65.5 469 c 128,-1,2
 85 481 85 481 120 481 c 1,3,-1
 114 374 l 2,4,5
 112 360 112 360 96 347 c 128,-1,6
 80 334 80 334 54 334 c 1,7,-1
 48 432 l 2,0,1
154 432 m 2,8,9
 152 457 152 457 171.5 469 c 128,-1,10
 191 481 191 481 226 481 c 1,11,-1
 220 374 l 2,12,13
 218 360 218 360 202 347 c 128,-1,14
 186 334 186 334 160 334 c 1,15,-1
 154 432 l 2,8,9
EndSplineSet
EndChar
StartChar: exclam
Encoding: 33 33 98
Width: 167
Flags: W
Fore
44 425 m 2,0,1
 43 451 43 451 64.5 466 c 128,-1,2
 86 481 86 481 125 481 c 1,3,-1
 113 135 l 2,4,5
 112 116 112 116 98.5 105.5 c 128,-1,6
 85 95 85 95 54 95 c 1,7,-1
 44 425 l 2,0,1
34 33 m 256,8,9
 34 50 34 50 48 61 c 128,-1,10
 62 72 62 72 83 72 c 0,11,12
 103 72 103 72 117.5 61 c 128,-1,13
 132 50 132 50 132 33 c 256,14,15
 132 16 132 16 117.5 5 c 128,-1,16
 103 -6 103 -6 83 -6 c 0,17,18
 62 -6 62 -6 48 5 c 128,-1,19
 34 16 34 16 34 33 c 256,8,9
EndSplineSet
EndChar
StartChar: exclamdown
Encoding: 161 161 100
Width: 167
Flags: W
Fore
123 -84 m 2,0,1
 124 -111 124 -111 103 -126 c 128,-1,2
 82 -141 82 -141 42 -141 c 1,3,-1
 54 205 l 2,4,5
 55 224 55 224 69 234.5 c 128,-1,6
 83 245 83 245 113 245 c 1,7,-1
 123 -84 l 2,0,1
133 308 m 0,8,9
 133 291 133 291 119 279.5 c 128,-1,10
 105 268 105 268 85 268 c 0,11,12
 64 268 64 268 49.5 279.5 c 128,-1,13
 35 291 35 291 35 308 c 0,14,15
 35 324 35 324 49.5 335 c 128,-1,16
 64 346 64 346 85 346 c 0,17,18
 105 346 105 346 119 335 c 128,-1,19
 133 324 133 324 133 308 c 0,8,9
EndSplineSet
EndChar
StartChar: cent
Encoding: 162 162 101
Width: 364
Flags: W
Fore
165 360 m 2,0,1
 165 379 165 379 178.5 387.5 c 128,-1,2
 192 396 192 396 223 396 c 1,3,-1
 223 346 l 1,4,5
 261 341 261 341 289 322 c 128,-1,6
 317 303 317 303 330 277 c 0,7,8
 334 267 334 267 330.5 258.5 c 128,-1,9
 327 250 327 250 319 244 c 128,-1,10
 311 238 311 238 300.5 234.5 c 128,-1,11
 290 231 290 231 282 231 c 1,12,13
 282 257 282 257 265.5 278 c 128,-1,14
 249 299 249 299 223 307 c 1,15,-1
 223 37 l 1,16,17
 249 45 249 45 265.5 66 c 128,-1,18
 282 87 282 87 282 113 c 1,19,20
 290 113 290 113 300.5 109.5 c 128,-1,21
 311 106 311 106 319 100 c 128,-1,22
 327 94 327 94 330.5 85.5 c 128,-1,23
 334 77 334 77 330 67 c 0,24,25
 317 40 317 40 289 21.5 c 128,-1,26
 261 3 261 3 223 -2 c 1,27,-1
 223 -20 l 2,28,29
 223 -39 223 -39 209.5 -47.5 c 128,-1,30
 196 -56 196 -56 165 -56 c 1,31,-1
 165 -1 l 1,32,33
 114 7 114 7 81.5 37.5 c 128,-1,34
 49 68 49 68 49 110 c 2,35,-1
 49 233 l 2,36,37
 49 275 49 275 82 306 c 128,-1,38
 115 337 115 337 165 345 c 1,39,-1
 165 360 l 2,0,1
109 233 m 2,40,-1
 109 110 l 2,41,42
 109 86 109 86 124 65.5 c 128,-1,43
 139 45 139 45 165 37 c 1,44,-1
 165 307 l 1,45,46
 139 298 139 298 124 278 c 128,-1,47
 109 258 109 258 109 233 c 2,40,-1
EndSplineSet
EndChar
StartChar: sterling
Encoding: 163 163 102
Width: 402
Flags: W
Fore
40 218 m 1,0,1
 40 258 40 258 87 258 c 2,2,-1
 123 258 l 1,3,4
 120 280 120 280 118 300.5 c 128,-1,5
 116 321 116 321 116 344 c 0,6,7
 116 374 116 374 126.5 399.5 c 128,-1,8
 137 425 137 425 156 443 c 128,-1,9
 175 461 175 461 201 471 c 128,-1,10
 227 481 227 481 259 481 c 0,11,12
 288 481 288 481 309.5 475 c 128,-1,13
 331 469 331 469 342 459 c 0,14,15
 353 450 353 450 349.5 436 c 128,-1,16
 346 422 346 422 335 412 c 1,17,18
 301 442 301 442 256 442 c 0,19,20
 217 442 217 442 197.5 416.5 c 128,-1,21
 178 391 178 391 178 343 c 0,22,23
 178 328 178 328 179.5 305 c 128,-1,24
 181 282 181 282 183 258 c 1,25,-1
 299 258 l 1,26,27
 299 218 299 218 252 218 c 2,28,-1
 187 218 l 1,29,30
 189 196 189 196 191 179 c 128,-1,31
 193 162 193 162 193 154 c 0,32,33
 193 112 193 112 180 86.5 c 128,-1,34
 167 61 167 61 138 40 c 1,35,-1
 323 40 l 2,36,37
 371 40 371 40 371 0 c 1,38,-1
 49 0 l 1,39,40
 49 26 49 26 71 41 c 0,41,42
 81 47 81 47 92 57 c 128,-1,43
 103 67 103 67 112 80.5 c 128,-1,44
 121 94 121 94 127 110.5 c 128,-1,45
 133 127 133 127 133 147 c 0,46,47
 133 165 133 165 131.5 183 c 128,-1,48
 130 201 130 201 128 218 c 1,49,-1
 40 218 l 1,0,1
EndSplineSet
EndChar
StartChar: currency
Encoding: 164 164 103
Width: 513
Flags: W
Fore
100 125 m 1,0,1
 59 176 59 176 59 238 c 0,2,3
 59 267 59 267 69.5 297 c 128,-1,4
 80 327 80 327 101 353 c 1,5,-1
 62 394 l 1,6,-1
 100 434 l 1,7,-1
 142 393 l 1,8,9
 166 411 166 411 195 418.5 c 128,-1,10
 224 426 224 426 255 426 c 0,11,12
 320 426 320 426 370 391 c 1,13,-1
 415 435 l 1,14,-1
 451 394 l 1,15,-1
 411 353 l 1,16,17
 432 328 432 328 442 298.5 c 128,-1,18
 452 269 452 269 452 238 c 0,19,20
 452 209 452 209 442 180 c 128,-1,21
 432 151 432 151 412 125 c 1,22,-1
 451 83 l 1,23,-1
 413 45 l 1,24,-1
 371 87 l 1,25,26
 347 68 347 68 317 60 c 128,-1,27
 287 52 287 52 255 52 c 256,28,29
 223 52 223 52 195 59 c 128,-1,30
 167 66 167 66 142 86 c 1,31,-1
 101 44 l 1,32,-1
 62 83 l 1,33,-1
 100 125 l 1,0,1
122 238 m 256,34,35
 122 208 122 208 132.5 181 c 128,-1,36
 143 154 143 154 161 133.5 c 128,-1,37
 179 113 179 113 203.5 101.5 c 128,-1,38
 228 90 228 90 255 90 c 256,39,40
 282 90 282 90 306.5 101.5 c 128,-1,41
 331 113 331 113 349 133.5 c 128,-1,42
 367 154 367 154 377.5 181 c 128,-1,43
 388 208 388 208 388 238 c 256,44,45
 388 268 388 268 377.5 295 c 128,-1,46
 367 322 367 322 349 342.5 c 128,-1,47
 331 363 331 363 306.5 374.5 c 128,-1,48
 282 386 282 386 255 386 c 256,49,50
 228 386 228 386 203.5 374.5 c 128,-1,51
 179 363 179 363 161 342.5 c 128,-1,52
 143 322 143 322 132.5 295 c 128,-1,53
 122 268 122 268 122 238 c 256,34,35
EndSplineSet
EndChar
StartChar: yen
Encoding: 165 165 104
Width: 420
Flags: W
Fore
54 263 m 1,0,1
 54 303 54 303 102 303 c 2,2,-1
 138 303 l 1,3,-1
 12 476 l 1,4,5
 32 490 32 490 52 486.5 c 128,-1,6
 72 483 72 483 83 467 c 2,7,-1
 210 291 l 1,8,-1
 338 467 l 2,9,10
 350 483 350 483 369.5 486.5 c 128,-1,11
 389 490 389 490 409 476 c 1,12,-1
 282 303 l 1,13,-1
 364 303 l 1,14,15
 364 263 364 263 316 263 c 2,16,-1
 253 263 l 1,17,-1
 242 247 l 1,18,-1
 242 213 l 1,19,-1
 364 213 l 1,20,21
 364 174 364 174 316 174 c 2,22,-1
 242 174 l 1,23,-1
 242 38 l 2,24,25
 242 -4 242 -4 179 -4 c 1,26,-1
 179 174 l 1,27,-1
 54 174 l 1,28,29
 54 213 54 213 102 213 c 2,30,-1
 179 213 l 1,31,-1
 179 247 l 1,32,-1
 167 263 l 1,33,-1
 54 263 l 1,0,1
EndSplineSet
EndChar
StartChar: brokenbar
Encoding: 166 166 105
Width: 174
Flags: W
Fore
58 491 m 2,0,1
 58 527 58 527 115 527 c 1,2,-1
 115 281 l 2,3,4
 115 245 115 245 58 245 c 1,5,-1
 58 491 l 2,0,1
58 143 m 2,6,7
 58 179 58 179 115 179 c 1,8,-1
 115 -67 l 2,9,10
 115 -103 115 -103 58 -103 c 1,11,-1
 58 143 l 2,6,7
EndSplineSet
EndChar
StartChar: section
Encoding: 167 167 106
Width: 413
Flags: W
Fore
353 229 m 0,0,1
 353 206 353 206 342 187 c 128,-1,2
 331 168 331 168 311 149 c 1,3,4
 319 139 319 139 327 124.5 c 128,-1,5
 335 110 335 110 335 93 c 0,6,7
 335 46 335 46 295 20 c 128,-1,8
 255 -6 255 -6 194 -6 c 0,9,10
 168 -6 168 -6 143 0 c 128,-1,11
 118 6 118 6 103 15 c 0,12,13
 92 23 92 23 91 38 c 128,-1,14
 90 53 90 53 101 71 c 1,15,16
 120 54 120 54 144 43 c 128,-1,17
 168 32 168 32 196 32 c 0,18,19
 231 32 231 32 253 46.5 c 128,-1,20
 275 61 275 61 275 89 c 0,21,22
 275 115 275 115 255.5 132 c 128,-1,23
 236 149 236 149 187 164 c 0,24,25
 125 182 125 182 91.5 205 c 128,-1,26
 58 228 58 228 58 266 c 0,27,28
 58 282 58 282 68 300.5 c 128,-1,29
 78 319 78 319 104 339 c 1,30,31
 93 350 93 350 88 362.5 c 128,-1,32
 83 375 83 375 83 388 c 0,33,34
 83 430 83 430 120.5 455.5 c 128,-1,35
 158 481 158 481 217 481 c 0,36,37
 243 481 243 481 267 476 c 128,-1,38
 291 471 291 471 304 461 c 0,39,40
 312 455 312 455 311 440.5 c 128,-1,41
 310 426 310 426 302 415 c 1,42,43
 285 426 285 426 260 436 c 128,-1,44
 235 446 235 446 212 446 c 0,45,46
 184 446 184 446 164.5 432 c 128,-1,47
 145 418 145 418 145 394 c 0,48,49
 145 366 145 366 169.5 352.5 c 128,-1,50
 194 339 194 339 236 328 c 0,51,52
 261 320 261 320 282 311 c 128,-1,53
 303 302 303 302 319 290.5 c 128,-1,54
 335 279 335 279 344 264 c 128,-1,55
 353 249 353 249 353 229 c 0,0,1
290 224 m 0,56,57
 290 245 290 245 274.5 261 c 128,-1,58
 259 277 259 277 222 290 c 0,59,60
 204 296 204 296 182.5 303 c 128,-1,61
 161 310 161 310 145 317 c 1,62,63
 134 306 134 306 127 292.5 c 128,-1,64
 120 279 120 279 120 268 c 0,65,66
 120 250 120 250 135.5 232.5 c 128,-1,67
 151 215 151 215 199 201 c 0,68,69
 230 190 230 190 245.5 186 c 128,-1,70
 261 182 261 182 273 175 c 1,71,72
 281 185 281 185 285.5 197.5 c 128,-1,73
 290 210 290 210 290 224 c 0,56,57
EndSplineSet
EndChar
StartChar: dieresis
Encoding: 168 168 107
Width: 235
Flags: W
Fore
6 435 m 0,0,1
 6 449 6 449 19 459.5 c 128,-1,2
 32 470 32 470 52 470 c 256,3,4
 72 470 72 470 85 459.5 c 128,-1,5
 98 449 98 449 98 435 c 0,6,7
 98 420 98 420 85 409.5 c 128,-1,8
 72 399 72 399 52 399 c 256,9,10
 32 399 32 399 19 409.5 c 128,-1,11
 6 420 6 420 6 435 c 0,0,1
136 435 m 0,12,13
 136 449 136 449 149 459.5 c 128,-1,14
 162 470 162 470 182 470 c 256,15,16
 202 470 202 470 215 459.5 c 128,-1,17
 228 449 228 449 228 435 c 0,18,19
 228 420 228 420 215 409.5 c 128,-1,20
 202 399 202 399 182 399 c 256,21,22
 162 399 162 399 149 409.5 c 128,-1,23
 136 420 136 420 136 435 c 0,12,13
EndSplineSet
EndChar
StartChar: copyright
Encoding: 169 169 108
Width: 567
Flags: W
Fore
29 237 m 256,0,1
 29 288 29 288 48.5 332.5 c 128,-1,2
 68 377 68 377 102.5 410 c 128,-1,3
 137 443 137 443 183 462 c 128,-1,4
 229 481 229 481 282 481 c 256,5,6
 335 481 335 481 381 462 c 128,-1,7
 427 443 427 443 461.5 410 c 128,-1,8
 496 377 496 377 516 332.5 c 128,-1,9
 536 288 536 288 536 237 c 256,10,11
 536 186 536 186 516 142 c 128,-1,12
 496 98 496 98 461.5 65 c 128,-1,13
 427 32 427 32 381 13 c 128,-1,14
 335 -6 335 -6 282 -6 c 256,15,16
 229 -6 229 -6 183 13 c 128,-1,17
 137 32 137 32 102.5 65 c 128,-1,18
 68 98 68 98 48.5 142 c 128,-1,19
 29 186 29 186 29 237 c 256,0,1
88 236 m 256,20,21
 88 193 88 193 103.5 155.5 c 128,-1,22
 119 118 119 118 145.5 90 c 128,-1,23
 172 62 172 62 207 46 c 128,-1,24
 242 30 242 30 282 30 c 256,25,26
 322 30 322 30 357.5 46 c 128,-1,27
 393 62 393 62 419 90 c 128,-1,28
 445 118 445 118 460.5 155.5 c 128,-1,29
 476 193 476 193 476 236 c 256,30,31
 476 279 476 279 460.5 317.5 c 128,-1,32
 445 356 445 356 419 384 c 128,-1,33
 393 412 393 412 357.5 428.5 c 128,-1,34
 322 445 322 445 282 445 c 256,35,36
 242 445 242 445 207 428.5 c 128,-1,37
 172 412 172 412 145.5 384 c 128,-1,38
 119 356 119 356 103.5 317.5 c 128,-1,39
 88 279 88 279 88 236 c 256,20,21
285 349 m 256,40,41
 258 349 258 349 239 330.5 c 128,-1,42
 220 312 220 312 220 289 c 2,43,-1
 220 187 l 2,44,45
 220 163 220 163 239 145 c 128,-1,46
 258 127 258 127 285 127 c 256,47,48
 312 127 312 127 331.5 146.5 c 128,-1,49
 351 166 351 166 351 192 c 1,50,51
 377 196 377 196 393.5 187 c 128,-1,52
 410 178 410 178 404 158 c 0,53,54
 398 142 398 142 386 130 c 128,-1,55
 374 118 374 118 357.5 109.5 c 128,-1,56
 341 101 341 101 322 97 c 128,-1,57
 303 93 303 93 285 93 c 0,58,59
 264 93 264 93 242 99.5 c 128,-1,60
 220 106 220 106 202.5 118 c 128,-1,61
 185 130 185 130 173.5 147.5 c 128,-1,62
 162 165 162 165 162 187 c 2,63,-1
 162 289 l 2,64,65
 162 310 162 310 173 327 c 128,-1,66
 184 344 184 344 201.5 356.5 c 128,-1,67
 219 369 219 369 241 375.5 c 128,-1,68
 263 382 263 382 285 382 c 0,69,70
 304 382 304 382 322.5 378 c 128,-1,71
 341 374 341 374 357.5 366 c 128,-1,72
 374 358 374 358 386 346 c 128,-1,73
 398 334 398 334 404 318 c 0,74,75
 410 298 410 298 393.5 289 c 128,-1,76
 377 280 377 280 351 284 c 1,77,78
 351 309 351 309 331.5 329 c 128,-1,79
 312 349 312 349 285 349 c 256,40,41
EndSplineSet
EndChar
StartChar: ordfeminine
Encoding: 170 170 109
Width: 292
Flags: W
Fore
126 238 m 256,0,1
 152 238 152 238 168.5 255 c 128,-1,2
 185 272 185 272 185 294 c 0,3,4
 185 317 185 317 168.5 334 c 128,-1,5
 152 351 152 351 126 351 c 256,6,7
 100 351 100 351 83 334 c 128,-1,8
 66 317 66 317 66 294 c 0,9,10
 66 272 66 272 83 255 c 128,-1,11
 100 238 100 238 126 238 c 256,0,1
126 385 m 0,12,13
 157 385 157 385 185 372 c 1,14,-1
 185 389 l 2,15,16
 185 411 185 411 168 427.5 c 128,-1,17
 151 444 151 444 126 444 c 0,18,19
 107 444 107 444 87.5 427 c 128,-1,20
 68 410 68 410 55 386 c 1,21,22
 37 398 37 398 30.5 413.5 c 128,-1,23
 24 429 24 429 31 439 c 0,24,25
 46 458 46 458 71.5 468 c 128,-1,26
 97 478 97 478 126 478 c 0,27,28
 147 478 147 478 167.5 471.5 c 128,-1,29
 188 465 188 465 205 453.5 c 128,-1,30
 222 442 222 442 232.5 425.5 c 128,-1,31
 243 409 243 409 243 389 c 2,32,-1
 243 236 l 2,33,34
 243 204 243 204 185 204 c 1,35,-1
 185 216 l 1,36,37
 159 204 159 204 126 204 c 0,38,39
 101 204 101 204 79.5 211 c 128,-1,40
 58 218 58 218 42 230 c 128,-1,41
 26 242 26 242 17 258.5 c 128,-1,42
 8 275 8 275 8 294 c 0,43,44
 8 312 8 312 17 328.5 c 128,-1,45
 26 345 26 345 42 357.5 c 128,-1,46
 58 370 58 370 79.5 377.5 c 128,-1,47
 101 385 101 385 126 385 c 0,12,13
EndSplineSet
EndChar
StartChar: logicalnot
Encoding: 172 172 111
Width: 420
Flags: W
Fore
390 277 m 1,0,-1
 390 156 l 2,1,2
 390 120 390 120 332 120 c 1,3,-1
 332 239 l 1,4,-1
 29 239 l 1,5,6
 29 277 29 277 74 277 c 2,7,-1
 390 277 l 1,0,-1
EndSplineSet
EndChar
StartChar: registered
Encoding: 174 174 112
Width: 566
Flags: W
Fore
325 254 m 2,0,1
 336 254 336 254 344 269 c 128,-1,2
 352 284 352 284 352 299 c 256,3,4
 352 314 352 314 344 328.5 c 128,-1,5
 336 343 336 343 325 343 c 2,6,-1
 222 343 l 1,7,-1
 222 254 l 1,8,-1
 325 254 l 2,0,1
222 123 m 2,9,10
 222 109 222 109 207 101.5 c 128,-1,11
 192 94 192 94 165 94 c 1,12,-1
 165 359 l 2,13,14
 165 366 165 366 172.5 371 c 128,-1,15
 180 376 180 376 194 376 c 2,16,-1
 325 376 l 2,17,18
 361 376 361 376 385 353 c 128,-1,19
 409 330 409 330 409 299 c 0,20,21
 409 283 409 283 400 266 c 128,-1,22
 391 249 391 249 375 237 c 1,23,24
 391 226 391 226 401 209.5 c 128,-1,25
 411 193 411 193 411 176 c 2,26,-1
 411 123 l 2,27,28
 411 109 411 109 395.5 101.5 c 128,-1,29
 380 94 380 94 353 94 c 1,30,-1
 353 176 l 2,31,32
 353 197 353 197 344.5 208.5 c 128,-1,33
 336 220 336 220 325 220 c 2,34,-1
 222 220 l 1,35,-1
 222 123 l 2,9,10
29 237 m 256,36,37
 29 288 29 288 48.5 332.5 c 128,-1,38
 68 377 68 377 102.5 410 c 128,-1,39
 137 443 137 443 183 462 c 128,-1,40
 229 481 229 481 282 481 c 256,41,42
 335 481 335 481 381 462 c 128,-1,43
 427 443 427 443 461.5 410 c 128,-1,44
 496 377 496 377 516 332.5 c 128,-1,45
 536 288 536 288 536 237 c 256,46,47
 536 186 536 186 516 142 c 128,-1,48
 496 98 496 98 461.5 65 c 128,-1,49
 427 32 427 32 381 13 c 128,-1,50
 335 -6 335 -6 282 -6 c 256,51,52
 229 -6 229 -6 183 13 c 128,-1,53
 137 32 137 32 102.5 65 c 128,-1,54
 68 98 68 98 48.5 142 c 128,-1,55
 29 186 29 186 29 237 c 256,36,37
88 236 m 256,56,57
 88 193 88 193 103.5 155.5 c 128,-1,58
 119 118 119 118 145.5 90 c 128,-1,59
 172 62 172 62 207 46 c 128,-1,60
 242 30 242 30 282 30 c 256,61,62
 322 30 322 30 357.5 46 c 128,-1,63
 393 62 393 62 419 90 c 128,-1,64
 445 118 445 118 460.5 155.5 c 128,-1,65
 476 193 476 193 476 236 c 256,66,67
 476 279 476 279 460.5 317.5 c 128,-1,68
 445 356 445 356 419 384 c 128,-1,69
 393 412 393 412 357.5 428.5 c 128,-1,70
 322 445 322 445 282 445 c 256,71,72
 242 445 242 445 207 428.5 c 128,-1,73
 172 412 172 412 145.5 384 c 128,-1,74
 119 356 119 356 103.5 317.5 c 128,-1,75
 88 279 88 279 88 236 c 256,56,57
EndSplineSet
EndChar
StartChar: macron
Encoding: 175 175 113
Width: 236
Flags: W
Fore
26 419 m 1,0,-1
 26 454 l 1,1,-1
 208 454 l 1,2,-1
 208 419 l 1,3,-1
 26 419 l 1,0,-1
EndSplineSet
EndChar
StartChar: degree
Encoding: 176 176 114
Width: 236
Flags: W
Fore
13 389 m 256,0,1
 13 408 13 408 21 425 c 128,-1,2
 29 442 29 442 43 454.5 c 128,-1,3
 57 467 57 467 76 474 c 128,-1,4
 95 481 95 481 117 481 c 0,5,6
 138 481 138 481 157 474 c 128,-1,7
 176 467 176 467 190 454.5 c 128,-1,8
 204 442 204 442 212 425 c 128,-1,9
 220 408 220 408 220 389 c 256,10,11
 220 370 220 370 212 353 c 128,-1,12
 204 336 204 336 190 323.5 c 128,-1,13
 176 311 176 311 157 304 c 128,-1,14
 138 297 138 297 117 297 c 0,15,16
 95 297 95 297 76 304 c 128,-1,17
 57 311 57 311 43 323.5 c 128,-1,18
 29 336 29 336 21 353 c 128,-1,19
 13 370 13 370 13 389 c 256,0,1
62 389 m 256,20,21
 62 364 62 364 78 347 c 128,-1,22
 94 330 94 330 117 330 c 256,23,24
 140 330 140 330 156 347 c 128,-1,25
 172 364 172 364 172 389 c 256,26,27
 172 414 172 414 156 431 c 128,-1,28
 140 448 140 448 117 448 c 256,29,30
 94 448 94 448 78 431 c 128,-1,31
 62 414 62 414 62 389 c 256,20,21
EndSplineSet
EndChar
StartChar: plusminus
Encoding: 177 177 115
Width: 420
Flags: W
Fore
179 180 m 1,0,-1
 29 180 l 1,1,2
 29 217 29 217 74 217 c 2,3,-1
 179 217 l 1,4,-1
 179 303 l 2,5,6
 179 340 179 340 239 340 c 1,7,-1
 239 217 l 1,8,-1
 390 217 l 1,9,10
 390 180 390 180 344 180 c 2,11,-1
 239 180 l 1,12,-1
 239 94 l 2,13,14
 239 57 239 57 179 57 c 1,15,-1
 179 180 l 1,0,-1
30 1 m 1,16,17
 30 18 30 18 42.5 29 c 128,-1,18
 55 40 55 40 77 40 c 2,19,-1
 391 40 l 1,20,21
 391 22 391 22 378 11.5 c 128,-1,22
 365 1 365 1 343 1 c 2,23,-1
 30 1 l 1,16,17
EndSplineSet
EndChar
StartChar: twosuperior
Encoding: 178 178 116
Width: 298
Flags: W
Fore
221 240 m 2,0,1
 238 240 238 240 248.5 231.5 c 128,-1,2
 259 223 259 223 259 206 c 1,3,-1
 66 206 l 2,4,5
 55 206 55 206 46.5 210 c 128,-1,6
 38 214 38 214 38 222 c 0,7,8
 38 254 38 254 62 284 c 128,-1,9
 86 314 86 314 134 334 c 0,10,11
 147 340 147 340 159 346 c 128,-1,12
 171 352 171 352 181 359 c 128,-1,13
 191 366 191 366 197 374.5 c 128,-1,14
 203 383 203 383 203 394 c 0,15,16
 203 414 203 414 187 429.5 c 128,-1,17
 171 445 171 445 148 445 c 0,18,19
 126 445 126 445 110 429.5 c 128,-1,20
 94 414 94 414 94 394 c 0,21,22
 94 391 94 391 94 387.5 c 128,-1,23
 94 384 94 384 96 376 c 1,24,25
 85 376 85 376 74.5 378.5 c 128,-1,26
 64 381 64 381 56 385.5 c 128,-1,27
 48 390 48 390 43 395 c 128,-1,28
 38 400 38 400 39 405 c 0,29,30
 42 421 42 421 53 434.5 c 128,-1,31
 64 448 64 448 79 458 c 128,-1,32
 94 468 94 468 112 473 c 128,-1,33
 130 478 130 478 148 478 c 0,34,35
 167 478 167 478 187 472.5 c 128,-1,36
 207 467 207 467 223 456 c 128,-1,37
 239 445 239 445 249 429.5 c 128,-1,38
 259 414 259 414 259 394 c 0,39,40
 259 377 259 377 250.5 363.5 c 128,-1,41
 242 350 242 350 227.5 339.5 c 128,-1,42
 213 329 213 329 194.5 320 c 128,-1,43
 176 311 176 311 156 303 c 0,44,45
 106 281 106 281 97 240 c 1,46,-1
 221 240 l 2,0,1
EndSplineSet
EndChar
StartChar: threesuperior
Encoding: 179 179 117
Width: 298
Flags: W
Fore
53 419 m 0,0,1
 56 440 56 440 82 459 c 128,-1,2
 108 478 108 478 148 478 c 0,3,4
 167 478 167 478 185 472.5 c 128,-1,5
 203 467 203 467 216 457 c 128,-1,6
 229 447 229 447 237 434.5 c 128,-1,7
 245 422 245 422 245 407 c 0,8,9
 245 393 245 393 235.5 378.5 c 128,-1,10
 226 364 226 364 212 353 c 1,11,12
 232 341 232 341 245.5 323 c 128,-1,13
 259 305 259 305 259 286 c 0,14,15
 259 251 259 251 227 227 c 128,-1,16
 195 203 195 203 148 203 c 0,17,18
 125 203 125 203 105 209.5 c 128,-1,19
 85 216 85 216 71 226.5 c 128,-1,20
 57 237 57 237 48.5 249.5 c 128,-1,21
 40 262 40 262 39 275 c 0,22,23
 37 304 37 304 95 304 c 1,24,25
 94 299 94 299 94 295 c 128,-1,26
 94 291 94 291 94 286 c 0,27,28
 94 265 94 265 110 250.5 c 128,-1,29
 126 236 126 236 148 236 c 256,30,31
 170 236 170 236 186 250.5 c 128,-1,32
 202 265 202 265 202 286 c 0,33,34
 202 306 202 306 186 320.5 c 128,-1,35
 170 335 170 335 148 335 c 0,36,37
 137 335 137 335 128.5 339.5 c 128,-1,38
 120 344 120 344 120 351 c 0,39,40
 120 359 120 359 128.5 363.5 c 128,-1,41
 137 368 137 368 148 368 c 0,42,43
 165 368 165 368 176.5 379.5 c 128,-1,44
 188 391 188 391 188 407 c 256,45,46
 188 423 188 423 176.5 434 c 128,-1,47
 165 445 165 445 148 445 c 0,48,49
 132 445 132 445 120.5 434 c 128,-1,50
 109 423 109 423 109 407 c 0,51,52
 109 405 109 405 109.5 401 c 128,-1,53
 110 397 110 397 112 392 c 1,54,55
 86 388 86 388 67.5 395 c 128,-1,56
 49 402 49 402 53 419 c 0,0,1
EndSplineSet
EndChar
StartChar: acute
Encoding: 180 180 118
Width: 232
Flags: W
Fore
99 458 m 2,0,1
 112 477 112 477 155 477 c 2,2,-1
 190 477 l 1,3,-1
 108 387 l 2,4,5
 97 377 97 377 82 373.5 c 128,-1,6
 67 370 67 370 41 370 c 1,7,-1
 99 458 l 2,0,1
EndSplineSet
EndChar
StartChar: mu
Encoding: 181 181 119
Width: 410
Flags: W
Fore
204 -6 m 256,0,1
 179 -6 179 -6 157.5 -0.5 c 128,-1,2
 136 5 136 5 118 15 c 1,3,-1
 118 -103 l 2,4,5
 118 -141 118 -141 58 -141 c 1,6,-1
 58 309 l 2,7,8
 58 346 58 346 118 346 c 1,9,-1
 118 109 l 2,10,11
 118 77 118 77 142.5 54 c 128,-1,12
 167 31 167 31 204 31 c 0,13,14
 242 31 242 31 266.5 54 c 128,-1,15
 291 77 291 77 291 109 c 2,16,-1
 291 309 l 2,17,18
 291 346 291 346 350 346 c 1,19,-1
 350 32 l 2,20,21
 350 -6 350 -6 291 -6 c 1,22,-1
 291 15 l 1,23,24
 273 5 273 5 251 -0.5 c 128,-1,25
 229 -6 229 -6 204 -6 c 256,0,1
EndSplineSet
EndChar
StartChar: paragraph
Encoding: 182 182 120
Width: 411
Flags: W
Fore
351 -54 m 2,0,1
 351 -72 351 -72 335 -81.5 c 128,-1,2
 319 -91 319 -91 290 -91 c 1,3,-1
 290 445 l 1,4,-1
 246 445 l 1,5,-1
 246 -54 l 2,6,7
 246 -72 246 -72 229.5 -81.5 c 128,-1,8
 213 -91 213 -91 184 -91 c 1,9,-1
 184 179 l 1,10,11
 155 180 155 180 126.5 189.5 c 128,-1,12
 98 199 98 199 75 217 c 128,-1,13
 52 235 52 235 37.5 261 c 128,-1,14
 23 287 23 287 23 322 c 0,15,16
 23 349 23 349 32 377.5 c 128,-1,17
 41 406 41 406 65 429 c 128,-1,18
 89 452 89 452 130.5 466.5 c 128,-1,19
 172 481 172 481 237 481 c 0,20,21
 271 481 271 481 303 479 c 128,-1,22
 335 477 335 477 351 474 c 1,23,-1
 351 -54 l 2,0,1
EndSplineSet
EndChar
StartChar: periodcentered
Encoding: 183 183 121
Width: 250
Flags: W
Fore
48 198 m 0,0,1
 48 226 48 226 70.5 245.5 c 128,-1,2
 93 265 93 265 125 265 c 256,3,4
 157 265 157 265 179 245.5 c 128,-1,5
 201 226 201 226 201 198 c 0,6,7
 201 171 201 171 179 151.5 c 128,-1,8
 157 132 157 132 125 132 c 256,9,10
 93 132 93 132 70.5 151.5 c 128,-1,11
 48 171 48 171 48 198 c 0,0,1
EndSplineSet
EndChar
StartChar: cedilla
Encoding: 184 184 122
Width: 195
Flags: W
Fore
171 -77 m 0,0,1
 171 -92 171 -92 163.5 -103.5 c 128,-1,2
 156 -115 156 -115 144 -123 c 128,-1,3
 132 -131 132 -131 116.5 -135 c 128,-1,4
 101 -139 101 -139 86 -139 c 0,5,6
 56 -139 56 -139 39 -128 c 0,7,8
 27 -120 27 -120 25 -109.5 c 128,-1,9
 23 -99 23 -99 34 -84 c 1,10,11
 65 -108 65 -108 86 -108 c 0,12,13
 95 -108 95 -108 103.5 -101 c 128,-1,14
 112 -94 112 -94 112 -82 c 0,15,16
 112 -66 112 -66 90.5 -59.5 c 128,-1,17
 69 -53 69 -53 42 -55 c 1,18,-1
 86 11 l 1,19,-1
 136 11 l 1,20,-1
 109 -28 l 1,21,22
 135 -31 135 -31 153 -45 c 128,-1,23
 171 -59 171 -59 171 -77 c 0,0,1
EndSplineSet
EndChar
StartChar: onesuperior
Encoding: 185 185 123
Width: 298
Flags: W
Fore
163 475 m 1,0,1
 177 475 177 475 185.5 469.5 c 128,-1,2
 194 464 194 464 194 456 c 2,3,-1
 194 239 l 2,4,5
 194 203 194 203 137 203 c 1,6,-1
 137 441 l 1,7,8
 118 441 118 441 107 450.5 c 128,-1,9
 96 460 96 460 96 475 c 1,10,-1
 163 475 l 1,11,-1
 163 475 l 1,0,1
EndSplineSet
EndChar
StartChar: ordmasculine
Encoding: 186 186 124
Width: 314
Flags: W
Fore
-1 340 m 0,0,1
 -1 368 -1 368 10.5 393.5 c 128,-1,2
 22 419 22 419 42 437.5 c 128,-1,3
 62 456 62 456 88.5 467 c 128,-1,4
 115 478 115 478 145 478 c 0,5,6
 176 478 176 478 203.5 467 c 128,-1,7
 231 456 231 456 251 437.5 c 128,-1,8
 271 419 271 419 282.5 393.5 c 128,-1,9
 294 368 294 368 294 340 c 0,10,11
 294 313 294 313 282.5 288 c 128,-1,12
 271 263 271 263 251 244.5 c 128,-1,13
 231 226 231 226 203.5 215 c 128,-1,14
 176 204 176 204 145 204 c 0,15,16
 115 204 115 204 88.5 215 c 128,-1,17
 62 226 62 226 42 244.5 c 128,-1,18
 22 263 22 263 10.5 288 c 128,-1,19
 -1 313 -1 313 -1 340 c 0,0,1
56 340 m 0,20,21
 56 319 56 319 63 300 c 128,-1,22
 70 281 70 281 82.5 267.5 c 128,-1,23
 95 254 95 254 111 246 c 128,-1,24
 127 238 127 238 145 238 c 0,25,26
 164 238 164 238 181 246 c 128,-1,27
 198 254 198 254 210.5 267.5 c 128,-1,28
 223 281 223 281 230 300 c 128,-1,29
 237 319 237 319 237 340 c 0,30,31
 237 362 237 362 230 381 c 128,-1,32
 223 400 223 400 210.5 414 c 128,-1,33
 198 428 198 428 181 436 c 128,-1,34
 164 444 164 444 145 444 c 0,35,36
 127 444 127 444 111 436 c 128,-1,37
 95 428 95 428 82.5 414 c 128,-1,38
 70 400 70 400 63 381 c 128,-1,39
 56 362 56 362 56 340 c 0,20,21
EndSplineSet
EndChar
StartChar: onequarter
Encoding: 188 188 126
Width: 587
Flags: W
Fore
168 475 m 2,0,1
 182 475 182 475 190.5 469.5 c 128,-1,2
 199 464 199 464 199 456 c 2,3,-1
 199 239 l 2,4,5
 199 203 199 203 141 203 c 1,6,-1
 141 441 l 1,7,8
 122 441 122 441 111.5 450.5 c 128,-1,9
 101 460 101 460 101 475 c 1,10,-1
 168 475 l 2,0,1
554 97 m 1,11,12
 554 63 554 63 517 63 c 2,13,-1
 511 63 l 1,14,-1
 511 26 l 2,15,16
 511 -3 511 -3 454 -3 c 1,17,-1
 454 63 l 1,18,-1
 335 63 l 2,19,20
 321 63 321 63 312.5 72 c 128,-1,21
 304 81 304 81 312 91 c 2,22,-1
 456 259 l 2,23,24
 464 267 464 267 473.5 270.5 c 128,-1,25
 483 274 483 274 491 273.5 c 128,-1,26
 499 273 499 273 504.5 268 c 128,-1,27
 510 263 510 263 511 254 c 2,28,-1
 511 97 l 1,29,-1
 554 97 l 1,11,12
454 97 m 1,30,-1
 454 187 l 1,31,32
 434 164 434 164 415 142 c 128,-1,33
 396 120 396 120 376 97 c 1,34,-1
 454 97 l 1,30,-1
383 480 m 2,35,36
 393 498 393 498 410 502.5 c 128,-1,37
 427 507 427 507 452 494 c 1,38,-1
 203 -1 l 2,39,40
 184 -41 184 -41 134 -15 c 1,41,-1
 383 480 l 2,35,36
EndSplineSet
Ligature: 0 0 'frac' one fraction four
Ligature: 0 0 'frac' one slash four
EndChar
StartChar: onehalf
Encoding: 189 189 127
Width: 587
Flags: W
Fore
168 475 m 2,0,1
 182 475 182 475 190.5 469.5 c 128,-1,2
 199 464 199 464 199 456 c 2,3,-1
 199 239 l 2,4,5
 199 203 199 203 141 203 c 1,6,-1
 141 441 l 1,7,8
 122 441 122 441 111.5 450.5 c 128,-1,9
 101 460 101 460 101 475 c 1,10,-1
 168 475 l 2,0,1
504 34 m 2,11,12
 521 34 521 34 531.5 25.5 c 128,-1,13
 542 17 542 17 542 0 c 1,14,-1
 350 0 l 2,15,16
 339 0 339 0 330.5 4 c 128,-1,17
 322 8 322 8 322 16 c 0,18,19
 322 48 322 48 345.5 78 c 128,-1,20
 369 108 369 108 417 128 c 0,21,22
 443 140 443 140 464.5 152.5 c 128,-1,23
 486 165 486 165 486 187 c 0,24,25
 486 207 486 207 470.5 223 c 128,-1,26
 455 239 455 239 432 239 c 256,27,28
 409 239 409 239 393 223 c 128,-1,29
 377 207 377 207 377 187 c 0,30,31
 377 185 377 185 377 181.5 c 128,-1,32
 377 178 377 178 379 170 c 1,33,34
 369 170 369 170 358.5 172.5 c 128,-1,35
 348 175 348 175 340 179.5 c 128,-1,36
 332 184 332 184 327 188.5 c 128,-1,37
 322 193 322 193 323 198 c 0,38,39
 330 232 330 232 362.5 252 c 128,-1,40
 395 272 395 272 432 272 c 0,41,42
 451 272 451 272 470.5 266.5 c 128,-1,43
 490 261 490 261 506 250 c 128,-1,44
 522 239 522 239 532 223 c 128,-1,45
 542 207 542 207 542 187 c 0,46,47
 542 170 542 170 533.5 157 c 128,-1,48
 525 144 525 144 510.5 133 c 128,-1,49
 496 122 496 122 477.5 113 c 128,-1,50
 459 104 459 104 440 96 c 0,51,52
 389 74 389 74 380 34 c 1,53,-1
 504 34 l 2,11,12
383 480 m 2,54,55
 393 498 393 498 410 502.5 c 128,-1,56
 427 507 427 507 452 494 c 1,57,-1
 203 -1 l 2,58,59
 184 -41 184 -41 134 -15 c 1,60,-1
 383 480 l 2,54,55
EndSplineSet
Ligature: 0 0 'frac' one fraction two
Ligature: 0 0 'frac' one slash two
EndChar
StartChar: threequarters
Encoding: 190 190 128
Width: 587
Flags: W
Fore
554 97 m 1,0,1
 554 63 554 63 517 63 c 2,2,-1
 511 63 l 1,3,-1
 511 26 l 2,4,5
 511 -3 511 -3 454 -3 c 1,6,-1
 454 63 l 1,7,-1
 335 63 l 2,8,9
 321 63 321 63 312.5 72 c 128,-1,10
 304 81 304 81 312 91 c 2,11,-1
 456 259 l 2,12,13
 464 267 464 267 473 270.5 c 128,-1,14
 482 274 482 274 490 273.5 c 128,-1,15
 498 273 498 273 504 268 c 128,-1,16
 510 263 510 263 511 254 c 2,17,-1
 511 97 l 1,18,-1
 554 97 l 1,0,1
454 97 m 1,19,-1
 454 187 l 1,20,21
 434 164 434 164 415 142 c 128,-1,22
 396 120 396 120 376 97 c 1,23,-1
 454 97 l 1,19,-1
58 419 m 0,24,25
 61 440 61 440 86.5 459 c 128,-1,26
 112 478 112 478 153 478 c 0,27,28
 172 478 172 478 189.5 472.5 c 128,-1,29
 207 467 207 467 220.5 457 c 128,-1,30
 234 447 234 447 241.5 434.5 c 128,-1,31
 249 422 249 422 249 407 c 0,32,33
 249 393 249 393 239.5 378.5 c 128,-1,34
 230 364 230 364 217 353 c 1,35,36
 237 341 237 341 250 323 c 128,-1,37
 263 305 263 305 263 286 c 0,38,39
 263 251 263 251 231.5 227 c 128,-1,40
 200 203 200 203 153 203 c 0,41,42
 130 203 130 203 110 209.5 c 128,-1,43
 90 216 90 216 76 226.5 c 128,-1,44
 62 237 62 237 53.5 249.5 c 128,-1,45
 45 262 45 262 44 275 c 0,46,47
 42 304 42 304 99 304 c 1,48,49
 98 299 98 299 98 295 c 128,-1,50
 98 291 98 291 98 286 c 0,51,52
 98 265 98 265 114 250.5 c 128,-1,53
 130 236 130 236 153 236 c 0,54,55
 175 236 175 236 191 250.5 c 128,-1,56
 207 265 207 265 207 286 c 0,57,58
 207 306 207 306 191 320.5 c 128,-1,59
 175 335 175 335 153 335 c 0,60,61
 142 335 142 335 133 339.5 c 128,-1,62
 124 344 124 344 124 351 c 0,63,64
 124 359 124 359 133 363.5 c 128,-1,65
 142 368 142 368 153 368 c 0,66,67
 170 368 170 368 181.5 379.5 c 128,-1,68
 193 391 193 391 193 407 c 256,69,70
 193 423 193 423 181.5 434 c 128,-1,71
 170 445 170 445 153 445 c 256,72,73
 136 445 136 445 124.5 434 c 128,-1,74
 113 423 113 423 113 407 c 0,75,76
 113 405 113 405 113.5 401 c 128,-1,77
 114 397 114 397 116 392 c 1,78,79
 91 388 91 388 72.5 395 c 128,-1,80
 54 402 54 402 58 419 c 0,24,25
383 480 m 2,81,82
 393 498 393 498 410 502.5 c 128,-1,83
 427 507 427 507 452 494 c 1,84,-1
 203 -1 l 2,85,86
 184 -41 184 -41 134 -15 c 1,87,-1
 383 480 l 2,81,82
EndSplineSet
Ligature: 0 0 'frac' three fraction four
Ligature: 0 0 'frac' three slash four
EndChar
StartChar: questiondown
Encoding: 191 191 129
Width: 354
Flags: W
Fore
150 205 m 2,0,1
 150 245 150 245 211 245 c 1,2,-1
 211 185 l 2,3,4
 210 150 210 150 190 127 c 128,-1,5
 170 104 170 104 147 85 c 0,6,7
 126 68 126 68 108.5 47.5 c 128,-1,8
 91 27 91 27 91 -8 c 0,9,10
 91 -50 91 -50 116.5 -76.5 c 128,-1,11
 142 -103 142 -103 180 -103 c 0,12,13
 217 -103 217 -103 243.5 -77 c 128,-1,14
 270 -51 270 -51 270 -8 c 0,15,16
 270 -1 270 -1 270 3 c 128,-1,17
 270 7 270 7 269 13 c 1,18,19
 292 13 292 13 310.5 0.5 c 128,-1,20
 329 -12 329 -12 330 -27 c 1,21,22
 325 -51 325 -51 311.5 -71.5 c 128,-1,23
 298 -92 298 -92 278 -107.5 c 128,-1,24
 258 -123 258 -123 233 -132 c 128,-1,25
 208 -141 208 -141 180 -141 c 0,26,27
 150 -141 150 -141 123 -132 c 128,-1,28
 96 -123 96 -123 75 -105.5 c 128,-1,29
 54 -88 54 -88 42 -63.5 c 128,-1,30
 30 -39 30 -39 30 -8 c 0,31,32
 30 14 30 14 36.5 31.5 c 128,-1,33
 43 49 43 49 53.5 63 c 128,-1,34
 64 77 64 77 77 89 c 128,-1,35
 90 101 90 101 103 112 c 0,36,37
 122 127 122 127 136 143 c 128,-1,38
 150 159 150 159 150 185 c 2,39,-1
 150 205 l 2,0,1
229 308 m 0,40,41
 229 291 229 291 215 279.5 c 128,-1,42
 201 268 201 268 180 268 c 0,43,44
 160 268 160 268 145.5 279.5 c 128,-1,45
 131 291 131 291 131 308 c 0,46,47
 131 324 131 324 145.5 335 c 128,-1,48
 160 346 160 346 180 346 c 0,49,50
 201 346 201 346 215 335 c 128,-1,51
 229 324 229 324 229 308 c 0,40,41
EndSplineSet
EndChar
StartChar: AE
Encoding: 198 198 135
Width: 623
Flags: W
Fore
307 476 m 1,0,-1
 555 476 l 2,1,2
 602 476 602 476 602 437 c 1,3,-1
 366 437 l 1,4,-1
 387 259 l 1,5,-1
 583 259 l 1,6,7
 583 219 583 219 535 219 c 2,8,-1
 392 219 l 1,9,-1
 413 40 l 1,10,-1
 612 40 l 1,11,12
 612 0 612 0 565 0 c 2,13,-1
 350 0 l 1,14,-1
 334 154 l 1,15,-1
 153 154 l 1,16,17
 126 114 126 114 97.5 71 c 128,-1,18
 69 28 69 28 43 -11 c 1,19,20
 21 -2 21 -2 14 15 c 128,-1,21
 7 32 7 32 18 49 c 2,22,-1
 307 476 l 1,0,-1
308 388 m 1,23,-1
 180 194 l 1,24,-1
 330 194 l 1,25,-1
 308 388 l 1,23,-1
EndSplineSet
EndChar
StartChar: Eth
Encoding: 208 208 145
Width: 504
Flags: W
Fore
-1 220 m 1,0,1
 -1 258 -1 258 44 258 c 2,2,-1
 234 258 l 1,3,4
 234 220 234 220 189 220 c 2,5,-1
 -1 220 l 1,0,1
257 478 m 2,6,7
 292 478 292 478 327 467.5 c 128,-1,8
 362 457 362 457 390.5 437.5 c 128,-1,9
 419 418 419 418 437 388.5 c 128,-1,10
 455 359 455 359 455 322 c 2,11,-1
 455 159 l 2,12,13
 455 123 455 123 437.5 94 c 128,-1,14
 420 65 420 65 392 44.5 c 128,-1,15
 364 24 364 24 328.5 13 c 128,-1,16
 293 2 293 2 257 2 c 2,17,-1
 91 2 l 2,18,19
 77 2 77 2 68 8.5 c 128,-1,20
 59 15 59 15 59 24 c 2,21,-1
 59 456 l 2,22,23
 59 466 59 466 68 472 c 128,-1,24
 77 478 77 478 91 478 c 2,25,-1
 257 478 l 2,6,7
123 439 m 1,26,-1
 123 42 l 1,27,-1
 257 42 l 2,28,29
 285 42 285 42 309.5 51.5 c 128,-1,30
 334 61 334 61 352.5 76.5 c 128,-1,31
 371 92 371 92 382 113.5 c 128,-1,32
 393 135 393 135 393 159 c 2,33,-1
 393 322 l 2,34,35
 393 346 393 346 382 367.5 c 128,-1,36
 371 389 371 389 352.5 404.5 c 128,-1,37
 334 420 334 420 309.5 429.5 c 128,-1,38
 285 439 285 439 257 439 c 2,39,-1
 123 439 l 1,26,-1
EndSplineSet
EndChar
StartChar: multiply
Encoding: 215 215 152
Width: 420
Flags: W
Fore
298 320 m 2,0,1
 329 351 329 351 363 319 c 1,2,-1
 241 197 l 1,3,-1
 363 76 l 1,4,5
 329 45 329 45 298 75 c 2,6,-1
 208 164 l 1,7,-1
 119 75 l 2,8,9
 88 45 88 45 54 76 c 1,10,-1
 175 197 l 1,11,-1
 54 319 l 1,12,13
 70 333 70 333 87.5 333.5 c 128,-1,14
 105 334 105 334 119 320 c 2,15,-1
 208 230 l 1,16,-1
 298 320 l 2,0,1
EndSplineSet
EndChar
StartChar: Thorn
Encoding: 222 222 159
Width: 415
Flags: W
Fore
378 267 m 0,0,1
 378 232 378 232 363.5 204 c 128,-1,2
 349 176 349 176 322 156 c 128,-1,3
 295 136 295 136 257.5 125.5 c 128,-1,4
 220 115 220 115 175 115 c 0,5,6
 162 115 162 115 148.5 115 c 128,-1,7
 135 115 135 115 121 117 c 1,8,-1
 121 35 l 2,9,10
 121 15 121 15 104 4.5 c 128,-1,11
 87 -6 87 -6 58 -6 c 1,12,-1
 58 440 l 2,13,14
 58 459 58 459 75 470 c 128,-1,15
 92 481 92 481 121 481 c 1,16,-1
 121 395 l 1,17,18
 138 397 138 397 158.5 398 c 128,-1,19
 179 399 179 399 193 399 c 0,20,21
 290 399 290 399 336 356 c 0,22,23
 357 336 357 336 367.5 313 c 128,-1,24
 378 290 378 290 378 267 c 0,0,1
316 262 m 0,25,26
 316 290 316 290 306 309 c 128,-1,27
 296 328 296 328 279 340 c 128,-1,28
 262 352 262 352 239.5 357 c 128,-1,29
 217 362 217 362 193 362 c 256,30,31
 169 362 169 362 147 359.5 c 128,-1,32
 125 357 125 357 113 353 c 1,33,-1
 121 355 l 1,34,-1
 121 157 l 1,35,36
 135 155 135 155 149.5 154 c 128,-1,37
 164 153 164 153 177 153 c 0,38,39
 244 153 244 153 280 182 c 128,-1,40
 316 211 316 211 316 262 c 0,25,26
EndSplineSet
EndChar
StartChar: uni00DF
Encoding: 223 223 160
Width: 391
Flags: W
Fore
58 353 m 2,0,1
 58 411 58 411 89.5 446 c 128,-1,2
 121 481 121 481 187 481 c 0,3,4
 244 481 244 481 278 447 c 128,-1,5
 312 413 312 413 312 360 c 0,6,7
 312 295 312 295 250 261 c 1,8,9
 295 244 295 244 318 212 c 128,-1,10
 341 180 341 180 341 135 c 0,11,12
 341 69 341 69 309.5 31.5 c 128,-1,13
 278 -6 278 -6 216 -6 c 0,14,15
 203 -6 203 -6 193.5 -4.5 c 128,-1,16
 184 -3 184 -3 179 -1 c 0,17,18
 165 7 165 7 160 20 c 128,-1,19
 155 33 155 33 164 50 c 1,20,21
 178 42 178 42 193.5 36 c 128,-1,22
 209 30 209 30 219 30 c 0,23,24
 279 30 279 30 279 130 c 0,25,26
 279 188 279 188 249 212.5 c 128,-1,27
 219 237 219 237 159 237 c 1,28,-1
 159 272 l 1,29,30
 201 274 201 274 224.5 293.5 c 128,-1,31
 248 313 248 313 248 362 c 0,32,33
 248 401 248 401 231.5 423 c 128,-1,34
 215 445 215 445 180 445 c 0,35,36
 162 445 162 445 151 437 c 128,-1,37
 140 429 140 429 133 416.5 c 128,-1,38
 126 404 126 404 123.5 388 c 128,-1,39
 121 372 121 372 121 356 c 2,40,-1
 121 -50 l 2,41,42
 121 -91 121 -91 58 -91 c 1,43,-1
 58 353 l 2,0,1
EndSplineSet
EndChar
StartChar: ae
Encoding: 230 230 167
Width: 614
Flags: W
Fore
271 212 m 1,0,-1
 271 232 l 2,1,2
 271 247 271 247 264 261.5 c 128,-1,3
 257 276 257 276 245.5 286.5 c 128,-1,4
 234 297 234 297 218.5 303.5 c 128,-1,5
 203 310 203 310 185 310 c 0,6,7
 157 310 157 310 131 288.5 c 128,-1,8
 105 267 105 267 90 235 c 1,9,10
 72 249 72 249 65 267.5 c 128,-1,11
 58 286 58 286 67 298 c 0,12,13
 87 320 87 320 118 333 c 128,-1,14
 149 346 149 346 185 346 c 0,15,16
 217 346 217 346 249.5 334.5 c 128,-1,17
 282 323 282 323 302 302 c 1,18,19
 321 322 321 322 351 334 c 128,-1,20
 381 346 381 346 417 346 c 0,21,22
 447 346 447 346 474 337 c 128,-1,23
 501 328 501 328 520.5 312.5 c 128,-1,24
 540 297 540 297 551.5 276 c 128,-1,25
 563 255 563 255 563 231 c 2,26,-1
 563 195 l 2,27,28
 563 187 563 187 553.5 181.5 c 128,-1,29
 544 176 544 176 533 176 c 2,30,-1
 331 176 l 1,31,-1
 331 108 l 2,32,33
 331 77 331 77 355 54 c 128,-1,34
 379 31 379 31 417 31 c 256,35,36
 455 31 455 31 479 55 c 128,-1,37
 503 79 503 79 503 111 c 1,38,39
 512 111 512 111 522 107.5 c 128,-1,40
 532 104 532 104 540.5 98 c 128,-1,41
 549 92 549 92 552.5 83.5 c 128,-1,42
 556 75 556 75 552 65 c 0,43,44
 537 33 537 33 501 13.5 c 128,-1,45
 465 -6 465 -6 417 -6 c 0,46,47
 381 -6 381 -6 351 6.5 c 128,-1,48
 321 19 321 19 302 39 c 1,49,50
 282 16 282 16 250 5 c 128,-1,51
 218 -6 218 -6 185 -6 c 0,52,53
 154 -6 154 -6 127.5 2 c 128,-1,54
 101 10 101 10 81.5 24.5 c 128,-1,55
 62 39 62 39 50.5 59 c 128,-1,56
 39 79 39 79 39 103 c 256,57,58
 39 127 39 127 50.5 147 c 128,-1,59
 62 167 62 167 81.5 181.5 c 128,-1,60
 101 196 101 196 127.5 204 c 128,-1,61
 154 212 154 212 185 212 c 2,62,-1
 271 212 l 1,0,-1
185 176 m 2,63,64
 147 176 147 176 122.5 155.5 c 128,-1,65
 98 135 98 135 98 103 c 0,66,67
 98 72 98 72 122.5 51.5 c 128,-1,68
 147 31 147 31 185 31 c 0,69,70
 222 31 222 31 246.5 54 c 128,-1,71
 271 77 271 77 271 108 c 2,72,-1
 271 176 l 1,73,-1
 185 176 l 2,63,64
331 212 m 1,74,-1
 503 212 l 1,75,-1
 503 231 l 2,76,77
 503 263 503 263 479 286.5 c 128,-1,78
 455 310 455 310 417 310 c 0,79,80
 381 310 381 310 356 286.5 c 128,-1,81
 331 263 331 263 331 231 c 2,82,-1
 331 212 l 1,74,-1
EndSplineSet
EndChar
StartChar: eth
Encoding: 240 240 177
Width: 438
Flags: W
Fore
107 358 m 1,0,1
 90 396 90 396 126 413 c 2,2,-1
 179 437 l 1,3,4
 159 449 159 449 140 458 c 128,-1,5
 121 467 121 467 102 475 c 1,6,-1
 120 512 l 1,7,8
 153 499 153 499 181.5 486 c 128,-1,9
 210 473 210 473 230 460 c 1,10,-1
 327 506 l 1,11,12
 343 469 343 469 308 451 c 2,13,-1
 268 433 l 1,14,15
 299 407 299 407 324.5 377 c 128,-1,16
 350 347 350 347 367 313 c 0,17,18
 398 252 398 252 398 179 c 0,19,20
 398 131 398 131 381.5 96 c 128,-1,21
 365 61 365 61 339 38.5 c 128,-1,22
 313 16 313 16 280.5 5 c 128,-1,23
 248 -6 248 -6 215 -6 c 0,24,25
 176 -6 176 -6 143.5 7 c 128,-1,26
 111 20 111 20 87.5 43 c 128,-1,27
 64 66 64 66 51.5 97.5 c 128,-1,28
 39 129 39 129 39 165 c 0,29,30
 39 207 39 207 54.5 240.5 c 128,-1,31
 70 274 70 274 95 297.5 c 128,-1,32
 120 321 120 321 152.5 333.5 c 128,-1,33
 185 346 185 346 218 346 c 0,34,35
 241 346 241 346 262 340.5 c 128,-1,36
 283 335 283 335 302 325 c 1,37,38
 270 375 270 375 221 411 c 1,39,-1
 107 358 l 1,0,1
335 174 m 256,40,41
 335 210 335 210 327.5 234 c 128,-1,42
 320 258 320 258 306 273 c 0,43,44
 289 287 289 287 267.5 299 c 128,-1,45
 246 311 246 311 218 311 c 0,46,47
 187 311 187 311 164.5 297.5 c 128,-1,48
 142 284 142 284 127 263 c 128,-1,49
 112 242 112 242 105 216.5 c 128,-1,50
 98 191 98 191 98 166 c 0,51,52
 98 133 98 133 108 107.5 c 128,-1,53
 118 82 118 82 134.5 65 c 128,-1,54
 151 48 151 48 172 39 c 128,-1,55
 193 30 193 30 214 30 c 0,56,57
 239 30 239 30 261 39 c 128,-1,58
 283 48 283 48 299.5 66 c 128,-1,59
 316 84 316 84 325.5 111 c 128,-1,60
 335 138 335 138 335 174 c 256,40,41
EndSplineSet
EndChar
StartChar: divide
Encoding: 247 247 184
Width: 420
Flags: W
Fore
389 218 m 1,0,1
 389 200 389 200 376 189.5 c 128,-1,2
 363 179 363 179 341 179 c 2,3,-1
 29 179 l 1,4,5
 29 196 29 196 41.5 207 c 128,-1,6
 54 218 54 218 76 218 c 2,7,-1
 389 218 l 1,0,1
161 314 m 0,8,9
 161 330 161 330 175 341.5 c 128,-1,10
 189 353 189 353 209 353 c 256,11,12
 229 353 229 353 243.5 341.5 c 128,-1,13
 258 330 258 330 258 314 c 0,14,15
 258 299 258 299 243.5 287.5 c 128,-1,16
 229 276 229 276 209 276 c 256,17,18
 189 276 189 276 175 287.5 c 128,-1,19
 161 299 161 299 161 314 c 0,8,9
161 82 m 0,20,21
 161 98 161 98 175 109.5 c 128,-1,22
 189 121 189 121 209 121 c 256,23,24
 229 121 229 121 243.5 109.5 c 128,-1,25
 258 98 258 98 258 82 c 0,26,27
 258 67 258 67 243.5 55.5 c 128,-1,28
 229 44 229 44 209 44 c 256,29,30
 189 44 189 44 175 55.5 c 128,-1,31
 161 67 161 67 161 82 c 0,20,21
EndSplineSet
EndChar
StartChar: oslash
Encoding: 248 248 185
Width: 451
Flags: W
Fore
281 343 m 2,0,1
 291 361 291 361 308 365.5 c 128,-1,2
 325 370 325 370 350 357 c 1,3,-1
 169 -3 l 2,4,5
 159 -21 159 -21 141 -25 c 128,-1,6
 123 -29 123 -29 99 -17 c 1,7,-1
 281 343 l 2,0,1
40 172 m 0,8,9
 40 208 40 208 54.5 240 c 128,-1,10
 69 272 69 272 94 296 c 128,-1,11
 119 320 119 320 152.5 334 c 128,-1,12
 186 348 186 348 225 348 c 256,13,14
 264 348 264 348 298 334 c 128,-1,15
 332 320 332 320 357.5 296 c 128,-1,16
 383 272 383 272 397.5 240 c 128,-1,17
 412 208 412 208 412 172 c 0,18,19
 412 135 412 135 397.5 103 c 128,-1,20
 383 71 383 71 357.5 47 c 128,-1,21
 332 23 332 23 298 9.5 c 128,-1,22
 264 -4 264 -4 225 -4 c 256,23,24
 186 -4 186 -4 152.5 9.5 c 128,-1,25
 119 23 119 23 94 47 c 128,-1,26
 69 71 69 71 54.5 103 c 128,-1,27
 40 135 40 135 40 172 c 0,8,9
99 172 m 256,28,29
 99 143 99 143 109 117.5 c 128,-1,30
 119 92 119 92 136 73 c 128,-1,31
 153 54 153 54 176 43.5 c 128,-1,32
 199 33 199 33 225 33 c 256,33,34
 251 33 251 33 274 43.5 c 128,-1,35
 297 54 297 54 314.5 73 c 128,-1,36
 332 92 332 92 342 117.5 c 128,-1,37
 352 143 352 143 352 172 c 256,38,39
 352 201 352 201 342 226.5 c 128,-1,40
 332 252 332 252 314.5 271 c 128,-1,41
 297 290 297 290 274 301 c 128,-1,42
 251 312 251 312 225 312 c 256,43,44
 199 312 199 312 176 301 c 128,-1,45
 153 290 153 290 136 271 c 128,-1,46
 119 252 119 252 109 226.5 c 128,-1,47
 99 201 99 201 99 172 c 256,28,29
EndSplineSet
EndChar
StartChar: thorn
Encoding: 254 254 191
Width: 410
Flags: W
Fore
118 109 m 2,0,1
 118 77 118 77 142.5 54 c 128,-1,2
 167 31 167 31 204 31 c 0,3,4
 242 31 242 31 266.5 54 c 128,-1,5
 291 77 291 77 291 109 c 2,6,-1
 291 232 l 2,7,8
 291 263 291 263 266.5 286.5 c 128,-1,9
 242 310 242 310 204 310 c 0,10,11
 167 310 167 310 142.5 286.5 c 128,-1,12
 118 263 118 263 118 232 c 2,13,-1
 118 109 l 2,0,1
204 -6 m 0,14,15
 179 -6 179 -6 157.5 -0.5 c 128,-1,16
 136 5 136 5 118 15 c 1,17,-1
 118 -107 l 2,18,19
 118 -123 118 -123 104 -132 c 128,-1,20
 90 -141 90 -141 58 -141 c 1,21,-1
 58 443 l 2,22,23
 58 481 58 481 118 481 c 1,24,-1
 118 324 l 1,25,26
 156 346 156 346 204 346 c 0,27,28
 235 346 235 346 261.5 337 c 128,-1,29
 288 328 288 328 307.5 313 c 128,-1,30
 327 298 327 298 338.5 277 c 128,-1,31
 350 256 350 256 350 232 c 2,32,-1
 350 109 l 2,33,34
 350 85 350 85 338.5 64.5 c 128,-1,35
 327 44 327 44 307.5 28 c 128,-1,36
 288 12 288 12 261.5 3 c 128,-1,37
 235 -6 235 -6 204 -6 c 0,14,15
EndSplineSet
EndChar
StartChar: Lslash
Encoding: 321 321 193
Width: 434
Flags: W
Fore
13 157 m 1,0,1
 -11 194 -11 194 21 215 c 2,2,-1
 227 351 l 1,3,4
 251 312 251 312 220 293 c 2,5,-1
 13 157 l 1,0,1
368 42 m 2,6,7
 415 42 415 42 415 2 c 1,8,-1
 91 2 l 2,9,10
 77 2 77 2 68 8.5 c 128,-1,11
 59 15 59 15 59 24 c 2,12,-1
 59 442 l 2,13,14
 59 484 59 484 123 484 c 1,15,-1
 123 42 l 1,16,-1
 368 42 l 2,6,7
EndSplineSet
EndChar
StartChar: lslash
Encoding: 322 322 194
Width: 180
Flags: W
Fore
12 158 m 1,0,1
 -11 194 -11 194 20 214 c 2,2,-1
 167 310 l 1,3,4
 191 273 191 273 160 253 c 2,5,-1
 12 158 l 1,0,1
122 38 m 2,6,7
 122 -4 122 -4 58 -4 c 1,8,-1
 58 442 l 2,9,10
 58 484 58 484 122 484 c 1,11,-1
 122 38 l 2,6,7
EndSplineSet
EndChar
StartChar: OE
Encoding: 338 338 195
Width: 819
Flags: W
Fore
446 259 m 1,0,-1
 643 259 l 1,1,2
 643 219 643 219 595 219 c 2,3,-1
 446 219 l 1,4,-1
 446 151 l 2,5,6
 446 127 446 127 456.5 105.5 c 128,-1,7
 467 84 467 84 485 68.5 c 128,-1,8
 503 53 503 53 527.5 43.5 c 128,-1,9
 552 34 552 34 580 34 c 256,10,11
 608 34 608 34 632.5 43.5 c 128,-1,12
 657 53 657 53 675.5 68.5 c 128,-1,13
 694 84 694 84 704.5 105.5 c 128,-1,14
 715 127 715 127 715 151 c 0,15,16
 715 156 715 156 715 162 c 128,-1,17
 715 168 715 168 714 173 c 1,18,19
 725 173 725 173 737 170 c 128,-1,20
 749 167 749 167 758 161 c 128,-1,21
 767 155 767 155 772.5 145.5 c 128,-1,22
 778 136 778 136 776 123 c 0,23,24
 770 94 770 94 750.5 70 c 128,-1,25
 731 46 731 46 704 29 c 128,-1,26
 677 12 677 12 644.5 3 c 128,-1,27
 612 -6 612 -6 580 -6 c 0,28,29
 533 -6 533 -6 488 12 c 128,-1,30
 443 30 443 30 414 65 c 1,31,32
 387 31 387 31 341 12.5 c 128,-1,33
 295 -6 295 -6 247 -6 c 0,34,35
 212 -6 212 -6 177 4.5 c 128,-1,36
 142 15 142 15 113.5 35.5 c 128,-1,37
 85 56 85 56 67 85 c 128,-1,38
 49 114 49 114 49 151 c 2,39,-1
 49 326 l 2,40,41
 49 362 49 362 66.5 391 c 128,-1,42
 84 420 84 420 112 440 c 128,-1,43
 140 460 140 460 175.5 471 c 128,-1,44
 211 482 211 482 247 482 c 0,45,46
 295 482 295 482 340.5 464.5 c 128,-1,47
 386 447 386 447 414 412 c 1,48,49
 442 447 442 447 486.5 464.5 c 128,-1,50
 531 482 531 482 580 482 c 0,51,52
 611 482 611 482 643 474 c 128,-1,53
 675 466 675 466 702 450.5 c 128,-1,54
 729 435 729 435 748.5 411 c 128,-1,55
 768 387 768 387 776 355 c 0,56,57
 779 341 779 341 774 331.5 c 128,-1,58
 769 322 769 322 759.5 316 c 128,-1,59
 750 310 750 310 738 307 c 128,-1,60
 726 304 726 304 714 304 c 1,61,62
 715 309 715 309 715 315 c 128,-1,63
 715 321 715 321 715 326 c 0,64,65
 715 350 715 350 704.5 371 c 128,-1,66
 694 392 694 392 675.5 408 c 128,-1,67
 657 424 657 424 632.5 433 c 128,-1,68
 608 442 608 442 580 442 c 256,69,70
 552 442 552 442 527.5 433 c 128,-1,71
 503 424 503 424 485 408 c 128,-1,72
 467 392 467 392 456.5 371 c 128,-1,73
 446 350 446 350 446 326 c 2,74,-1
 446 259 l 1,0,-1
382 326 m 2,75,76
 382 350 382 350 371.5 371 c 128,-1,77
 361 392 361 392 342.5 408 c 128,-1,78
 324 424 324 424 299.5 433 c 128,-1,79
 275 442 275 442 247 442 c 256,80,81
 219 442 219 442 194.5 433 c 128,-1,82
 170 424 170 424 152 408 c 128,-1,83
 134 392 134 392 123.5 371 c 128,-1,84
 113 350 113 350 113 326 c 2,85,-1
 113 151 l 2,86,87
 113 127 113 127 123.5 105.5 c 128,-1,88
 134 84 134 84 152 68.5 c 128,-1,89
 170 53 170 53 194.5 43.5 c 128,-1,90
 219 34 219 34 247 34 c 256,91,92
 275 34 275 34 299.5 43.5 c 128,-1,93
 324 53 324 53 342.5 68.5 c 128,-1,94
 361 84 361 84 371.5 105.5 c 128,-1,95
 382 127 382 127 382 151 c 2,96,-1
 382 326 l 2,75,76
EndSplineSet
EndChar
StartChar: oe
Encoding: 339 339 196
Width: 624
Flags: W
Fore
341 108 m 2,0,1
 341 77 341 77 365 54 c 128,-1,2
 389 31 389 31 427 31 c 0,3,4
 445 31 445 31 461 37.5 c 128,-1,5
 477 44 477 44 488.5 55 c 128,-1,6
 500 66 500 66 506.5 80.5 c 128,-1,7
 513 95 513 95 513 111 c 1,8,9
 522 111 522 111 532 107.5 c 128,-1,10
 542 104 542 104 550.5 98 c 128,-1,11
 559 92 559 92 562.5 83.5 c 128,-1,12
 566 75 566 75 562 65 c 0,13,14
 547 33 547 33 511 13.5 c 128,-1,15
 475 -6 475 -6 427 -6 c 0,16,17
 390 -6 390 -6 359.5 6.5 c 128,-1,18
 329 19 329 19 310 39 c 1,19,20
 291 19 291 19 260.5 6.5 c 128,-1,21
 230 -6 230 -6 195 -6 c 0,22,23
 164 -6 164 -6 137.5 3 c 128,-1,24
 111 12 111 12 91.5 27.5 c 128,-1,25
 72 43 72 43 60.5 63.5 c 128,-1,26
 49 84 49 84 49 108 c 2,27,-1
 49 231 l 2,28,29
 49 255 49 255 60.5 276 c 128,-1,30
 72 297 72 297 91.5 312.5 c 128,-1,31
 111 328 111 328 137.5 337 c 128,-1,32
 164 346 164 346 195 346 c 0,33,34
 230 346 230 346 261 334 c 128,-1,35
 292 322 292 322 311 302 c 1,36,37
 330 322 330 322 359.5 334 c 128,-1,38
 389 346 389 346 427 346 c 0,39,40
 457 346 457 346 484 337 c 128,-1,41
 511 328 511 328 530.5 312.5 c 128,-1,42
 550 297 550 297 561.5 276 c 128,-1,43
 573 255 573 255 573 231 c 2,44,-1
 573 195 l 2,45,46
 573 187 573 187 563.5 181.5 c 128,-1,47
 554 176 554 176 543 176 c 2,48,-1
 341 176 l 1,49,-1
 341 108 l 2,0,1
195 310 m 0,50,51
 157 310 157 310 132.5 286.5 c 128,-1,52
 108 263 108 263 108 231 c 2,53,-1
 108 108 l 2,54,55
 108 77 108 77 132.5 54 c 128,-1,56
 157 31 157 31 195 31 c 0,57,58
 230 31 230 31 255.5 53.5 c 128,-1,59
 281 76 281 76 281 108 c 2,60,-1
 281 231 l 2,61,62
 281 263 281 263 256.5 286.5 c 128,-1,63
 232 310 232 310 195 310 c 0,50,51
341 212 m 1,64,-1
 513 212 l 1,65,-1
 513 231 l 2,66,67
 513 263 513 263 488.5 286.5 c 128,-1,68
 464 310 464 310 427 310 c 0,69,70
 389 310 389 310 365 286.5 c 128,-1,71
 341 263 341 263 341 231 c 2,72,-1
 341 212 l 1,64,-1
EndSplineSet
EndChar
StartChar: florin
Encoding: 402 402 202
Width: 402
Flags: W
Fore
352 433 m 1,0,1
 341 438 341 438 328.5 441.5 c 128,-1,2
 316 445 316 445 306 445 c 0,3,4
 286 445 286 445 272 435 c 128,-1,5
 258 425 258 425 248.5 408 c 128,-1,6
 239 391 239 391 233.5 368.5 c 128,-1,7
 228 346 228 346 226 322 c 2,8,-1
 222 291 l 1,9,-1
 325 291 l 1,10,11
 325 274 325 274 313.5 264.5 c 128,-1,12
 302 255 302 255 282 255 c 2,13,-1
 219 255 l 1,14,-1
 202 106 l 2,15,16
 194 32 194 32 164 -12.5 c 128,-1,17
 134 -57 134 -57 69 -57 c 0,18,19
 50 -57 50 -57 39 -53 c 0,20,21
 5 -40 5 -40 19 -3 c 1,22,23
 39 -14 39 -14 50.5 -17.5 c 128,-1,24
 62 -21 62 -21 73 -21 c 0,25,26
 89 -21 89 -21 100.5 -11.5 c 128,-1,27
 112 -2 112 -2 120 13.5 c 128,-1,28
 128 29 128 29 132.5 48.5 c 128,-1,29
 137 68 137 68 139 89 c 2,30,-1
 157 255 l 1,31,-1
 82 255 l 1,32,33
 82 272 82 272 93.5 281.5 c 128,-1,34
 105 291 105 291 126 291 c 2,35,-1
 161 291 l 1,36,37
 161 298 161 298 163 306 c 2,38,39
 163 310 163 310 163.5 314.5 c 128,-1,40
 164 319 164 319 164 323 c 0,41,42
 172 394 172 394 208 438 c 128,-1,43
 244 482 244 482 311 482 c 0,44,45
 322 482 322 482 332.5 480 c 128,-1,46
 343 478 343 478 351 475 c 1,47,48
 365 467 365 467 370.5 456 c 128,-1,49
 376 445 376 445 369 434 c 1,50,-1
 352 433 l 1,0,1
EndSplineSet
EndChar
StartChar: circumflex
Encoding: 710 710 203
Width: 326
Flags: W
Fore
162 478 m 256,0,1
 176 478 176 478 182 472 c 2,2,-1
 269 382 l 1,3,4
 254 370 254 370 235 370 c 128,-1,5
 216 370 216 370 205 381 c 2,6,-1
 162 426 l 1,7,-1
 119 381 l 2,8,9
 108 370 108 370 89.5 370 c 128,-1,10
 71 370 71 370 56 382 c 1,11,-1
 142 472 l 2,12,13
 148 478 148 478 162 478 c 256,0,1
EndSplineSet
EndChar
StartChar: breve
Encoding: 728 728 205
Width: 320
Flags: W
Fore
159 370 m 256,0,1
 141 370 141 370 120.5 375.5 c 128,-1,2
 100 381 100 381 82.5 392 c 128,-1,3
 65 403 65 403 53 418.5 c 128,-1,4
 41 434 41 434 40 454 c 0,5,6
 39 465 39 465 56 473 c 128,-1,7
 73 481 73 481 97 481 c 1,8,9
 97 449 97 449 114.5 428.5 c 128,-1,10
 132 408 132 408 159 408 c 0,11,12
 187 408 187 408 204.5 428.5 c 128,-1,13
 222 449 222 449 222 481 c 1,14,15
 246 481 246 481 262.5 473 c 128,-1,16
 279 465 279 465 278 454 c 0,17,18
 277 434 277 434 265.5 418.5 c 128,-1,19
 254 403 254 403 236.5 392 c 128,-1,20
 219 381 219 381 198 375.5 c 128,-1,21
 177 370 177 370 159 370 c 256,0,1
EndSplineSet
EndChar
StartChar: dotaccent
Encoding: 729 729 206
Width: 178
Flags: W
Fore
43 459 m 0,0,1
 43 473 43 473 56 483.5 c 128,-1,2
 69 494 69 494 89 494 c 256,3,4
 109 494 109 494 121.5 483.5 c 128,-1,5
 134 473 134 473 134 459 c 0,6,7
 134 444 134 444 121.5 433.5 c 128,-1,8
 109 423 109 423 89 423 c 256,9,10
 69 423 69 423 56 433.5 c 128,-1,11
 43 444 43 444 43 459 c 0,0,1
EndSplineSet
EndChar
StartChar: ring
Encoding: 730 730 207
Width: 298
Flags: W
Fore
70 459 m 0,0,1
 70 483 70 483 91.5 504.5 c 128,-1,2
 113 526 113 526 148 526 c 256,3,4
 183 526 183 526 204.5 504.5 c 128,-1,5
 226 483 226 483 226 459 c 0,6,7
 226 430 226 430 204.5 411 c 128,-1,8
 183 392 183 392 148 392 c 0,9,10
 116 392 116 392 93 411.5 c 128,-1,11
 70 431 70 431 70 459 c 0,0,1
119 459 m 0,12,13
 119 442 119 442 127.5 431 c 128,-1,14
 136 420 136 420 148 420 c 0,15,16
 161 420 161 420 169.5 431 c 128,-1,17
 178 442 178 442 178 459 c 0,18,19
 178 473 178 473 170 485.5 c 128,-1,20
 162 498 162 498 148 498 c 256,21,22
 134 498 134 498 126.5 485.5 c 128,-1,23
 119 473 119 473 119 459 c 0,12,13
EndSplineSet
EndChar
StartChar: ogonek
Encoding: 731 731 208
Width: 194
Flags: W
Fore
28 -77 m 0,0,1
 28 -59 28 -59 46 -45 c 128,-1,2
 64 -31 64 -31 90 -28 c 1,3,-1
 63 11 l 1,4,-1
 113 11 l 1,5,-1
 157 -55 l 1,6,7
 130 -53 130 -53 108.5 -59.5 c 128,-1,8
 87 -66 87 -66 87 -82 c 0,9,10
 87 -94 87 -94 95.5 -101 c 128,-1,11
 104 -108 104 -108 113 -108 c 0,12,13
 134 -108 134 -108 165 -84 c 1,14,15
 176 -99 176 -99 174 -109.5 c 128,-1,16
 172 -120 172 -120 160 -128 c 0,17,18
 143 -139 143 -139 113 -139 c 0,19,20
 98 -139 98 -139 82.5 -135 c 128,-1,21
 67 -131 67 -131 55 -123 c 128,-1,22
 43 -115 43 -115 35.5 -103.5 c 128,-1,23
 28 -92 28 -92 28 -77 c 0,0,1
EndSplineSet
EndChar
StartChar: tilde
Encoding: 732 732 209
Width: 253
Flags: W
Fore
144 447 m 1,0,1
 153 439 153 439 161 433.5 c 128,-1,2
 169 428 169 428 174 428 c 0,3,4
 182 428 182 428 186 440.5 c 128,-1,5
 190 453 190 453 182 470 c 1,6,7
 196 475 196 475 207 474 c 128,-1,8
 218 473 218 473 225.5 468.5 c 128,-1,9
 233 464 233 464 236.5 457 c 128,-1,10
 240 450 240 450 239 443 c 0,11,12
 236 422 236 422 219 407.5 c 128,-1,13
 202 393 202 393 174 393 c 0,14,15
 151 393 151 393 138.5 400 c 128,-1,16
 126 407 126 407 114 416 c 1,17,-1
 116 416 l 1,18,-1
 107 421 l 2,19,20
 99 427 99 427 90.5 433 c 128,-1,21
 82 439 82 439 77 439 c 0,22,23
 69 439 69 439 65.5 426.5 c 128,-1,24
 62 414 62 414 69 398 c 1,25,26
 55 393 55 393 44 393.5 c 128,-1,27
 33 394 33 394 25.5 398.5 c 128,-1,28
 18 403 18 403 14 410 c 128,-1,29
 10 417 10 417 12 424 c 0,30,31
 16 446 16 446 33.5 460 c 128,-1,32
 51 474 51 474 77 474 c 0,33,34
 100 474 100 474 112.5 467.5 c 128,-1,35
 125 461 125 461 136 452 c 1,36,-1
 134 452 l 1,37,-1
 141 447 l 1,38,-1
 144 447 l 1,0,1
EndSplineSet
EndChar
StartChar: uni0E01
Encoding: 3585 3585 212
Width: 438
Flags: W
Fore
76 193 m 1,0,1
 75 195 75 195 69.5 205.5 c 128,-1,2
 64 216 64 216 58 228 c 0,3,4
 51 242 51 242 42 259 c 0,5,6
 39 265 39 265 39 269 c 0,7,8
 39 299 39 299 54 323.5 c 128,-1,9
 69 348 69 348 93 366 c 128,-1,10
 117 384 117 384 147 393.5 c 128,-1,11
 177 403 177 403 208 403 c 0,12,13
 238 403 238 403 268.5 394 c 128,-1,14
 299 385 299 385 323.5 367.5 c 128,-1,15
 348 350 348 350 363 325 c 128,-1,16
 378 300 378 300 378 269 c 2,17,-1
 378 38 l 2,18,19
 378 19 378 19 360 6.5 c 128,-1,20
 342 -6 342 -6 316 -6 c 1,21,-1
 316 269 l 2,22,23
 316 288 316 288 307.5 305 c 128,-1,24
 299 322 299 322 284 335.5 c 128,-1,25
 269 349 269 349 249.5 357 c 128,-1,26
 230 365 230 365 208 365 c 0,27,28
 187 365 187 365 167.5 357.5 c 128,-1,29
 148 350 148 350 133.5 337.5 c 128,-1,30
 119 325 119 325 110 308.5 c 128,-1,31
 101 292 101 292 100 274 c 1,32,33
 101 271 101 271 107 260.5 c 128,-1,34
 113 250 113 250 119 238 c 0,35,36
 126 224 126 224 135 208 c 1,37,-1
 138 198 l 1,38,-1
 138 -6 l 1,39,40
 112 -6 112 -6 94 6.5 c 128,-1,41
 76 19 76 19 76 38 c 2,42,-1
 76 193 l 1,43,-1
 76 193 l 1,0,1
EndSplineSet
EndChar
StartChar: uni0E02
Encoding: 3586 3586 213
Width: 421
Flags: W
Fore
299 358 m 2,0,1
 299 376 299 376 317 389 c 128,-1,2
 335 402 335 402 361 402 c 1,3,-1
 361 92 l 2,4,5
 361 70 361 70 351.5 52 c 128,-1,6
 342 34 342 34 325.5 21 c 128,-1,7
 309 8 309 8 287.5 1 c 128,-1,8
 266 -6 266 -6 243 -6 c 256,9,10
 220 -6 220 -6 198.5 1 c 128,-1,11
 177 8 177 8 161 21 c 128,-1,12
 145 34 145 34 135.5 52 c 128,-1,13
 126 70 126 70 126 92 c 2,14,-1
 126 111 l 2,15,16
 126 146 126 146 143.5 176.5 c 128,-1,17
 161 207 161 207 184 238 c 0,18,19
 205 262 205 262 205 290 c 0,20,21
 205 319 205 319 187 342 c 128,-1,22
 169 365 169 365 144 365 c 0,23,24
 124 365 124 365 108.5 354 c 128,-1,25
 93 343 93 343 85 326 c 1,26,27
 90 327 90 327 94 327.5 c 128,-1,28
 98 328 98 328 103 328 c 0,29,30
 134 328 134 328 155 311.5 c 128,-1,31
 176 295 176 295 176 269 c 256,32,33
 176 243 176 243 155 224 c 128,-1,34
 134 205 134 205 103 205 c 0,35,36
 66 205 66 205 43.5 230.5 c 128,-1,37
 21 256 21 256 21 290 c 0,38,39
 21 313 21 313 30.5 333.5 c 128,-1,40
 40 354 40 354 56.5 369.5 c 128,-1,41
 73 385 73 385 95.5 394 c 128,-1,42
 118 403 118 403 144 403 c 0,43,44
 169 403 169 403 191.5 394 c 128,-1,45
 214 385 214 385 230.5 369.5 c 128,-1,46
 247 354 247 354 257 333.5 c 128,-1,47
 267 313 267 313 267 290 c 0,48,49
 267 272 267 272 256 252 c 128,-1,50
 245 232 245 232 228 212 c 256,51,52
 211 192 211 192 199.5 167.5 c 128,-1,53
 188 143 188 143 187 111 c 2,54,-1
 187 92 l 2,55,56
 187 66 187 66 203.5 49 c 128,-1,57
 220 32 220 32 243 32 c 256,58,59
 266 32 266 32 282.5 48 c 128,-1,60
 299 64 299 64 299 92 c 2,61,-1
 299 358 l 2,0,1
71 269 m 256,62,63
 71 255 71 255 80 246 c 128,-1,64
 89 237 89 237 103 237 c 256,65,66
 117 237 117 237 126 246 c 128,-1,67
 135 255 135 255 135 269 c 256,68,69
 135 283 135 283 126 292 c 128,-1,70
 117 301 117 301 103 301 c 256,71,72
 89 301 89 301 80 292 c 128,-1,73
 71 283 71 283 71 269 c 256,62,63
EndSplineSet
EndChar
StartChar: uni0E03
Encoding: 3587 3587 214
Width: 421
Flags: W
Fore
103 328 m 0,0,1
 134 328 134 328 155 311.5 c 128,-1,2
 176 295 176 295 176 269 c 256,3,4
 176 243 176 243 155 224 c 128,-1,5
 134 205 134 205 103 205 c 0,6,7
 66 205 66 205 43.5 230.5 c 128,-1,8
 21 256 21 256 21 290 c 0,9,10
 21 308 21 308 27 327.5 c 128,-1,11
 33 347 33 347 43 364 c 0,12,13
 55 382 55 382 73 392.5 c 128,-1,14
 91 403 91 403 114 403 c 0,15,16
 124 403 124 403 131.5 397.5 c 128,-1,17
 139 392 139 392 145 387 c 1,18,19
 150 392 150 392 157.5 397.5 c 128,-1,20
 165 403 165 403 177 403 c 0,21,22
 198 403 198 403 215 393 c 128,-1,23
 232 383 232 383 243.5 367 c 128,-1,24
 255 351 255 351 261 331 c 128,-1,25
 267 311 267 311 267 290 c 0,26,27
 267 272 267 272 256 252 c 128,-1,28
 245 232 245 232 228 212 c 256,29,30
 211 192 211 192 199.5 167.5 c 128,-1,31
 188 143 188 143 187 111 c 2,32,-1
 187 92 l 2,33,34
 187 66 187 66 203.5 49 c 128,-1,35
 220 32 220 32 243 32 c 256,36,37
 266 32 266 32 282.5 48 c 128,-1,38
 299 64 299 64 299 92 c 2,39,-1
 299 358 l 2,40,41
 299 376 299 376 317 389 c 128,-1,42
 335 402 335 402 361 402 c 1,43,-1
 361 92 l 2,44,45
 361 70 361 70 351.5 52 c 128,-1,46
 342 34 342 34 325.5 21 c 128,-1,47
 309 8 309 8 287.5 1 c 128,-1,48
 266 -6 266 -6 243 -6 c 256,49,50
 220 -6 220 -6 198.5 1 c 128,-1,51
 177 8 177 8 161 21 c 128,-1,52
 145 34 145 34 135.5 52 c 128,-1,53
 126 70 126 70 126 92 c 2,54,-1
 126 111 l 2,55,56
 126 146 126 146 143.5 176.5 c 128,-1,57
 161 207 161 207 184 238 c 0,58,59
 205 262 205 262 205 290 c 0,60,61
 205 309 205 309 199.5 330.5 c 128,-1,62
 194 352 194 352 186 362 c 1,63,64
 182 359 182 359 179 355.5 c 128,-1,65
 176 352 176 352 173 349 c 0,66,67
 169 345 169 345 166 343 c 0,68,69
 158 335 158 335 145.5 335 c 128,-1,70
 133 335 133 335 125 343 c 2,71,-1
 118 350 l 1,72,-1
 105 363 l 1,73,74
 100 358 100 358 94 348 c 128,-1,75
 88 338 88 338 83 325 c 1,76,77
 93 328 93 328 103 328 c 0,0,1
71 269 m 256,78,79
 71 255 71 255 80 246 c 128,-1,80
 89 237 89 237 103 237 c 256,81,82
 117 237 117 237 126 246 c 128,-1,83
 135 255 135 255 135 269 c 256,84,85
 135 283 135 283 126 292 c 128,-1,86
 117 301 117 301 103 301 c 256,87,88
 89 301 89 301 80 292 c 128,-1,89
 71 283 71 283 71 269 c 256,78,79
EndSplineSet
EndChar
StartChar: uni0E04
Encoding: 3588 3588 215
Width: 458
Flags: W
Fore
228 403 m 0,0,1
 258 403 258 403 288 393.5 c 128,-1,2
 318 384 318 384 342.5 367 c 128,-1,3
 367 350 367 350 382.5 325 c 128,-1,4
 398 300 398 300 398 269 c 2,5,-1
 398 38 l 2,6,7
 398 19 398 19 380 6.5 c 128,-1,8
 362 -6 362 -6 336 -6 c 1,9,-1
 336 269 l 2,10,11
 336 288 336 288 327.5 305 c 128,-1,12
 319 322 319 322 304 335.5 c 128,-1,13
 289 349 289 349 269.5 357 c 128,-1,14
 250 365 250 365 228 365 c 256,15,16
 206 365 206 365 186.5 357 c 128,-1,17
 167 349 167 349 152 335.5 c 128,-1,18
 137 322 137 322 128.5 305 c 128,-1,19
 120 288 120 288 120 269 c 2,20,-1
 120 141 l 1,21,-1
 161 261 l 2,22,23
 168 278 168 278 186 289 c 128,-1,24
 204 300 204 300 228 300 c 0,25,26
 257 300 257 300 279.5 281 c 128,-1,27
 302 262 302 262 302 236 c 256,28,29
 302 210 302 210 279.5 191.5 c 128,-1,30
 257 173 257 173 228 173 c 0,31,32
 204 173 204 173 189 182 c 1,33,-1
 119 -6 l 1,34,35
 93 -6 93 -6 75.5 6.5 c 128,-1,36
 58 19 58 19 58 38 c 2,37,-1
 58 269 l 2,38,39
 58 299 58 299 73 323.5 c 128,-1,40
 88 348 88 348 112 366 c 128,-1,41
 136 384 136 384 166.5 393.5 c 128,-1,42
 197 403 197 403 228 403 c 0,0,1
196 236 m 256,43,44
 196 222 196 222 205 213 c 128,-1,45
 214 204 214 204 228 204 c 256,46,47
 242 204 242 204 251 213 c 128,-1,48
 260 222 260 222 260 236 c 256,49,50
 260 250 260 250 251 259 c 128,-1,51
 242 268 242 268 228 268 c 256,52,53
 214 268 214 268 205 259 c 128,-1,54
 196 250 196 250 196 236 c 256,43,44
EndSplineSet
EndChar
StartChar: uni0E05
Encoding: 3589 3589 216
Width: 458
Flags: W
Fore
120 138 m 1,0,-1
 161 252 l 2,1,2
 168 269 168 269 186 280 c 128,-1,3
 204 291 204 291 228 291 c 0,4,5
 259 291 259 291 280.5 272 c 128,-1,6
 302 253 302 253 302 227 c 256,7,8
 302 201 302 201 280.5 182.5 c 128,-1,9
 259 164 259 164 228 164 c 0,10,11
 204 164 204 164 189 173 c 1,12,-1
 119 -6 l 1,13,14
 93 -6 93 -6 75.5 6.5 c 128,-1,15
 58 19 58 19 58 38 c 2,16,-1
 58 288 l 2,17,18
 58 315 58 315 69 336.5 c 128,-1,19
 80 358 80 358 97 373 c 128,-1,20
 114 388 114 388 134 395.5 c 128,-1,21
 154 403 154 403 171 403 c 0,22,23
 183 403 183 403 189 397 c 0,24,25
 196 391 196 391 203 387 c 2,26,27
 209 382 209 382 216 378 c 128,-1,28
 223 374 223 374 228 369 c 1,29,30
 234 374 234 374 240.5 378.5 c 128,-1,31
 247 383 247 383 253 388 c 0,32,33
 267 398 l 1,34,35
 272 403 272 403 286 403 c 0,36,37
 303 403 303 403 322.5 395.5 c 128,-1,38
 342 388 342 388 359 373 c 128,-1,39
 376 358 376 358 387 336.5 c 128,-1,40
 398 315 398 315 398 288 c 2,41,-1
 398 38 l 2,42,43
 398 19 398 19 380 6.5 c 128,-1,44
 362 -6 362 -6 336 -6 c 1,45,-1
 336 288 l 2,46,47
 336 318 336 318 323 337.5 c 128,-1,48
 310 357 310 357 297 362 c 1,49,50
 292 358 292 358 284 351.5 c 128,-1,51
 276 345 276 345 268.5 339 c 128,-1,52
 261 333 261 333 254.5 328.5 c 128,-1,53
 248 324 248 324 247 323 c 1,54,-1
 248 323 l 1,55,56
 239 315 239 315 228 315 c 128,-1,57
 217 315 217 315 208 323 c 0,58,59
 188 339 l 0,60,61
 180 346 180 346 172 352.5 c 128,-1,62
 164 359 164 359 160 362 c 1,63,64
 146 357 146 357 133 337.5 c 128,-1,65
 120 318 120 318 120 288 c 2,66,-1
 120 138 l 1,0,-1
196 227 m 256,67,68
 196 213 196 213 205 204 c 128,-1,69
 214 195 214 195 228 195 c 256,70,71
 242 195 242 195 251 204 c 128,-1,72
 260 213 260 213 260 227 c 256,73,74
 260 241 260 241 251 250 c 128,-1,75
 242 259 242 259 228 259 c 256,76,77
 214 259 214 259 205 250 c 128,-1,78
 196 241 196 241 196 227 c 256,67,68
EndSplineSet
EndChar
StartChar: uni0E06
Encoding: 3590 3590 217
Width: 479
Flags: W
Fore
105 363 m 1,0,1
 100 358 100 358 94 348 c 128,-1,2
 88 338 88 338 83 325 c 1,3,4
 93 328 93 328 103 328 c 0,5,6
 134 328 134 328 155.5 311.5 c 128,-1,7
 177 295 177 295 177 269 c 256,8,9
 177 243 177 243 155.5 224 c 128,-1,10
 134 205 134 205 103 205 c 0,11,12
 66 205 66 205 43.5 230.5 c 128,-1,13
 21 256 21 256 21 290 c 0,14,15
 21 308 21 308 27 327.5 c 128,-1,16
 33 347 33 347 44 364 c 0,17,18
 55 382 55 382 73 392.5 c 128,-1,19
 91 403 91 403 114 403 c 0,20,21
 124 403 124 403 131.5 397.5 c 128,-1,22
 139 392 139 392 145 387 c 1,23,24
 150 392 150 392 157.5 397.5 c 128,-1,25
 165 403 165 403 177 403 c 0,26,27
 198 403 198 403 215 393 c 128,-1,28
 232 383 232 383 243.5 367 c 128,-1,29
 255 351 255 351 261 331 c 128,-1,30
 267 311 267 311 267 290 c 0,31,32
 267 272 267 272 256 252 c 128,-1,33
 245 232 245 232 228 212 c 0,34,35
 212 193 212 193 199.5 168.5 c 128,-1,36
 187 144 187 144 187 115 c 0,37,38
 187 108 187 108 188 104 c 1,39,-1
 357 44 l 1,40,-1
 357 358 l 2,41,42
 357 376 357 376 375 389 c 128,-1,43
 393 402 393 402 419 402 c 1,44,-1
 419 38 l 2,45,46
 419 19 419 19 403.5 6.5 c 128,-1,47
 388 -6 388 -6 365 -6 c 1,48,-1
 188 57 l 1,49,50
 186 30 186 30 165 12 c 128,-1,51
 144 -6 144 -6 113 -6 c 0,52,53
 81 -6 81 -6 59.5 13 c 128,-1,54
 38 32 38 32 38 60 c 0,55,56
 38 86 38 86 59.5 105.5 c 128,-1,57
 81 125 81 125 113 125 c 0,58,59
 121 125 121 125 126 124 c 1,60,61
 130 154 130 154 147 182 c 128,-1,62
 164 210 164 210 184 238 c 0,63,64
 205 262 205 262 205 290 c 0,65,66
 205 309 205 309 199.5 330.5 c 128,-1,67
 194 352 194 352 186 362 c 1,68,69
 182 359 182 359 179 355.5 c 128,-1,70
 176 352 176 352 173 349 c 2,71,-1
 167 343 l 2,72,73
 159 335 159 335 146 335 c 128,-1,74
 133 335 133 335 125 343 c 2,75,-1
 118 350 l 1,76,-1
 105 363 l 1,0,1
71 269 m 256,77,78
 71 255 71 255 80 246 c 128,-1,79
 89 237 89 237 103 237 c 256,80,81
 117 237 117 237 126 246 c 128,-1,82
 135 255 135 255 135 269 c 256,83,84
 135 283 135 283 126 292 c 128,-1,85
 117 301 117 301 103 301 c 256,86,87
 89 301 89 301 80 292 c 128,-1,88
 71 283 71 283 71 269 c 256,77,78
81 60 m 256,89,90
 81 46 81 46 90 37 c 128,-1,91
 99 28 99 28 113 28 c 256,92,93
 127 28 127 28 136 37 c 128,-1,94
 145 46 145 46 145 60 c 256,95,96
 145 74 145 74 136 83 c 128,-1,97
 127 92 127 92 113 92 c 256,98,99
 99 92 99 92 90 83 c 128,-1,100
 81 74 81 74 81 60 c 256,89,90
EndSplineSet
EndChar
StartChar: uni0E07
Encoding: 3591 3591 218
Width: 382
Flags: W
Fore
249 403 m 0,0,1
 279 403 279 403 300.5 384 c 128,-1,2
 322 365 322 365 322 339 c 2,3,-1
 322 38 l 2,4,5
 322 19 322 19 305 6.5 c 128,-1,6
 288 -6 288 -6 265 -6 c 1,7,8
 182 85 182 85 137 135 c 128,-1,9
 92 185 92 185 71 208 c 2,10,-1
 43 239 l 1,11,-1
 44 239 l 1,12,13
 33 250 33 250 35 268 c 128,-1,14
 37 286 37 286 53 302 c 1,15,-1
 261 71 l 1,16,-1
 261 277 l 1,17,-1
 249 277 l 2,18,19
 218 277 218 277 196.5 295 c 128,-1,20
 175 313 175 313 175 339 c 256,21,22
 175 365 175 365 196.5 384 c 128,-1,23
 218 403 218 403 249 403 c 0,0,1
217 339 m 256,24,25
 217 325 217 325 226 316 c 128,-1,26
 235 307 235 307 249 307 c 256,27,28
 263 307 263 307 272 316 c 128,-1,29
 281 325 281 325 281 339 c 256,30,31
 281 353 281 353 272 362 c 128,-1,32
 263 371 263 371 249 371 c 256,33,34
 235 371 235 371 226 362 c 128,-1,35
 217 353 217 353 217 339 c 256,24,25
EndSplineSet
EndChar
StartChar: uni0E08
Encoding: 3592 3592 219
Width: 410
Flags: W
Fore
225 180 m 1,0,1
 210 174 210 174 189 174 c 0,2,3
 159 174 159 174 137.5 192.5 c 128,-1,4
 116 211 116 211 116 237 c 256,5,6
 116 263 116 263 137.5 282 c 128,-1,7
 159 301 159 301 189 301 c 0,8,9
 215 301 215 301 233.5 288 c 128,-1,10
 252 275 252 275 259 256 c 2,11,-1
 288 153 l 1,12,-1
 288 269 l 2,13,14
 288 288 288 288 280 305.5 c 128,-1,15
 272 323 272 323 258 336 c 128,-1,16
 244 349 244 349 225.5 357 c 128,-1,17
 207 365 207 365 185 365 c 0,18,19
 164 365 164 365 145 357 c 128,-1,20
 126 349 126 349 112 336 c 128,-1,21
 98 323 98 323 90 305.5 c 128,-1,22
 82 288 82 288 82 269 c 0,23,24
 82 262 82 262 82 258 c 128,-1,25
 82 254 82 254 83 248 c 1,26,27
 58 248 58 248 39 259.5 c 128,-1,28
 20 271 20 271 22 288 c 0,29,30
 26 312 26 312 40 333 c 128,-1,31
 54 354 54 354 76 369.5 c 128,-1,32
 98 385 98 385 125.5 394 c 128,-1,33
 153 403 153 403 185 403 c 0,34,35
 220 403 220 403 250 392.5 c 128,-1,36
 280 382 280 382 302.5 364 c 128,-1,37
 325 346 325 346 337.5 321.5 c 128,-1,38
 350 297 350 297 350 269 c 2,39,-1
 350 38 l 2,40,41
 350 20 350 20 332.5 7 c 128,-1,42
 315 -6 315 -6 289 -6 c 1,43,-1
 225 180 l 1,0,1
157 237 m 256,44,45
 157 223 157 223 166 214 c 128,-1,46
 175 205 175 205 189 205 c 256,47,48
 203 205 203 205 212 214 c 128,-1,49
 221 223 221 223 221 237 c 256,50,51
 221 251 221 251 212 260 c 128,-1,52
 203 269 203 269 189 269 c 256,53,54
 175 269 175 269 166 260 c 128,-1,55
 157 251 157 251 157 237 c 256,44,45
EndSplineSet
EndChar
StartChar: uni0E09
Encoding: 3593 3593 220
Width: 435
Flags: W
Fore
124 122 m 1,0,-1
 112 122 l 2,1,2
 81 122 81 122 60 141 c 128,-1,3
 39 160 39 160 39 186 c 256,4,5
 39 212 39 212 60 230.5 c 128,-1,6
 81 249 81 249 112 249 c 256,7,8
 143 249 143 249 164 230.5 c 128,-1,9
 185 212 185 212 185 186 c 2,10,-1
 185 51 l 1,11,-1
 277 107 l 2,12,13
 287 113 287 113 293 124 c 128,-1,14
 299 135 299 135 299 146 c 2,15,-1
 299 269 l 2,16,17
 299 288 299 288 290.5 305 c 128,-1,18
 282 322 282 322 267 335.5 c 128,-1,19
 252 349 252 349 232 357 c 128,-1,20
 212 365 212 365 190 365 c 256,21,22
 168 365 168 365 148.5 357 c 128,-1,23
 129 349 129 349 114 335.5 c 128,-1,24
 99 322 99 322 90.5 304 c 128,-1,25
 82 286 82 286 82 267 c 1,26,27
 67 266 67 266 55.5 269.5 c 128,-1,28
 44 273 44 273 36.5 279.5 c 128,-1,29
 29 286 29 286 27 294.5 c 128,-1,30
 25 303 25 303 29 312 c 0,31,32
 38 333 38 333 54.5 350 c 128,-1,33
 71 367 71 367 93 379 c 128,-1,34
 115 391 115 391 140 397 c 128,-1,35
 165 403 165 403 190 403 c 0,36,37
 219 403 219 403 249 394 c 128,-1,38
 279 385 279 385 304 367.5 c 128,-1,39
 329 350 329 350 344.5 325 c 128,-1,40
 360 300 360 300 360 269 c 2,41,-1
 360 146 l 2,42,43
 360 134 360 134 354 121 c 1,44,45
 376 114 376 114 390.5 97 c 128,-1,46
 405 80 405 80 405 60 c 0,47,48
 405 32 405 32 383 13 c 128,-1,49
 361 -6 361 -6 329 -6 c 0,50,51
 303 -6 303 -6 283 7 c 128,-1,52
 263 20 263 20 256 41 c 1,53,-1
 179 -6 l 1,54,55
 156 -6 156 -6 140 7 c 128,-1,56
 124 20 124 20 124 38 c 2,57,-1
 124 122 l 1,0,-1
80 186 m 256,58,59
 80 172 80 172 89 163 c 128,-1,60
 98 154 98 154 112 154 c 256,61,62
 126 154 126 154 135 163 c 128,-1,63
 144 172 144 172 144 186 c 256,64,65
 144 200 144 200 135 209 c 128,-1,66
 126 218 126 218 112 218 c 256,67,68
 98 218 98 218 89 209 c 128,-1,69
 80 200 80 200 80 186 c 256,58,59
295 60 m 256,70,71
 295 46 295 46 305 36 c 128,-1,72
 315 26 315 26 329 26 c 256,73,74
 343 26 343 26 353 36 c 128,-1,75
 363 46 363 46 363 60 c 256,76,77
 363 74 363 74 353 84 c 128,-1,78
 343 94 343 94 329 94 c 256,79,80
 315 94 315 94 305 84 c 128,-1,81
 295 74 295 74 295 60 c 256,70,71
EndSplineSet
EndChar
StartChar: uni0E0A
Encoding: 3594 3594 221
Width: 421
Flags: W
Fore
126 111 m 2,0,1
 126 146 126 146 143.5 176.5 c 128,-1,2
 161 207 161 207 184 238 c 0,3,4
 205 262 205 262 205 290 c 0,5,6
 205 319 205 319 187 342 c 128,-1,7
 169 365 169 365 144 365 c 0,8,9
 124 365 124 365 108.5 354 c 128,-1,10
 93 343 93 343 85 326 c 1,11,12
 90 327 90 327 94 327.5 c 128,-1,13
 98 328 98 328 103 328 c 0,14,15
 134 328 134 328 155 311.5 c 128,-1,16
 176 295 176 295 176 269 c 256,17,18
 176 243 176 243 155 224 c 128,-1,19
 134 205 134 205 103 205 c 0,20,21
 66 205 66 205 43.5 230.5 c 128,-1,22
 21 256 21 256 21 290 c 0,23,24
 21 313 21 313 30.5 333.5 c 128,-1,25
 40 354 40 354 56.5 369.5 c 128,-1,26
 73 385 73 385 95.5 394 c 128,-1,27
 118 403 118 403 144 403 c 0,28,29
 166 403 166 403 185.5 396 c 128,-1,30
 205 389 205 389 221 376.5 c 128,-1,31
 237 364 237 364 248 347.5 c 128,-1,32
 259 331 259 331 264 312 c 1,33,-1
 278 318 l 2,34,35
 287 321 287 321 294.5 329 c 128,-1,36
 302 337 302 337 307.5 348 c 128,-1,37
 313 359 313 359 316 371 c 128,-1,38
 319 383 319 383 319 394 c 0,39,40
 319 399 319 399 318.5 402.5 c 128,-1,41
 318 406 318 406 316 415 c 1,42,43
 341 415 341 415 360.5 403.5 c 128,-1,44
 380 392 380 392 378 376 c 0,45,46
 374 355 374 355 360.5 334 c 128,-1,47
 347 313 347 313 327 303 c 1,48,49
 345 289 345 289 353 267 c 128,-1,50
 361 245 361 245 361 217 c 2,51,-1
 361 92 l 2,52,53
 361 70 361 70 351.5 52 c 128,-1,54
 342 34 342 34 325.5 21 c 128,-1,55
 309 8 309 8 287.5 1 c 128,-1,56
 266 -6 266 -6 243 -6 c 256,57,58
 220 -6 220 -6 198.5 1 c 128,-1,59
 177 8 177 8 161 21 c 128,-1,60
 145 34 145 34 135.5 52 c 128,-1,61
 126 70 126 70 126 92 c 2,62,-1
 126 111 l 2,0,1
278 287 m 0,63,64
 270 289 270 289 267 291 c 1,65,-1
 267 290 l 2,66,67
 267 272 267 272 256 252 c 128,-1,68
 245 232 245 232 228 212 c 256,69,70
 211 192 211 192 199.5 167.5 c 128,-1,71
 188 143 188 143 187 111 c 2,72,-1
 187 92 l 2,73,74
 187 66 187 66 203.5 49 c 128,-1,75
 220 32 220 32 243 32 c 256,76,77
 266 32 266 32 282.5 48 c 128,-1,78
 299 64 299 64 299 92 c 2,79,-1
 299 217 l 2,80,81
 299 254 299 254 294 268.5 c 128,-1,82
 289 283 289 283 278 287 c 0,63,64
71 269 m 256,83,84
 71 255 71 255 80 246 c 128,-1,85
 89 237 89 237 103 237 c 256,86,87
 117 237 117 237 126 246 c 128,-1,88
 135 255 135 255 135 269 c 256,89,90
 135 283 135 283 126 292 c 128,-1,91
 117 301 117 301 103 301 c 256,92,93
 89 301 89 301 80 292 c 128,-1,94
 71 283 71 283 71 269 c 256,83,84
EndSplineSet
EndChar
StartChar: uni0E0B
Encoding: 3595 3595 222
Width: 421
Flags: W
Fore
126 111 m 2,0,1
 126 146 126 146 143.5 176.5 c 128,-1,2
 161 207 161 207 184 238 c 0,3,4
 205 262 205 262 205 290 c 0,5,6
 205 309 205 309 199.5 330.5 c 128,-1,7
 194 352 194 352 186 362 c 1,8,9
 182 359 182 359 179 355.5 c 128,-1,10
 176 352 176 352 173 349 c 2,11,-1
 167 343 l 2,12,13
 159 335 159 335 146 335 c 128,-1,14
 133 335 133 335 125 343 c 2,15,-1
 118 350 l 1,16,-1
 105 363 l 1,17,18
 100 358 100 358 94 348 c 128,-1,19
 88 338 88 338 83 325 c 1,20,21
 93 328 93 328 103 328 c 0,22,23
 134 328 134 328 155 311.5 c 128,-1,24
 176 295 176 295 176 269 c 256,25,26
 176 243 176 243 155 224 c 128,-1,27
 134 205 134 205 103 205 c 0,28,29
 66 205 66 205 43.5 230.5 c 128,-1,30
 21 256 21 256 21 290 c 0,31,32
 21 308 21 308 27 327.5 c 128,-1,33
 33 347 33 347 43 364 c 0,34,35
 55 382 55 382 73 392.5 c 128,-1,36
 91 403 91 403 114 403 c 0,37,38
 124 403 124 403 131.5 397.5 c 128,-1,39
 139 392 139 392 145 387 c 1,40,41
 150 392 150 392 157.5 397.5 c 128,-1,42
 165 403 165 403 177 403 c 0,43,44
 214 403 214 403 236.5 375.5 c 128,-1,45
 259 348 259 348 265 312 c 1,46,47
 268 314 268 314 278 318 c 0,48,49
 287 321 287 321 294.5 329 c 128,-1,50
 302 337 302 337 307.5 348 c 128,-1,51
 313 359 313 359 316 371 c 128,-1,52
 319 383 319 383 319 394 c 0,53,54
 319 399 319 399 318.5 402.5 c 128,-1,55
 318 406 318 406 316 415 c 1,56,57
 341 415 341 415 360.5 403.5 c 128,-1,58
 380 392 380 392 378 376 c 0,59,60
 374 355 374 355 360.5 334 c 128,-1,61
 347 313 347 313 327 303 c 1,62,63
 345 289 345 289 353 267 c 128,-1,64
 361 245 361 245 361 217 c 2,65,-1
 361 92 l 2,66,67
 361 70 361 70 351.5 52 c 128,-1,68
 342 34 342 34 325.5 21 c 128,-1,69
 309 8 309 8 287.5 1 c 128,-1,70
 266 -6 266 -6 243 -6 c 256,71,72
 220 -6 220 -6 198.5 1 c 128,-1,73
 177 8 177 8 161 21 c 128,-1,74
 145 34 145 34 135.5 52 c 128,-1,75
 126 70 126 70 126 92 c 2,76,-1
 126 111 l 2,0,1
278 287 m 0,77,78
 270 289 270 289 267 291 c 1,79,-1
 267 290 l 2,80,81
 267 272 267 272 256 252 c 128,-1,82
 245 232 245 232 228 212 c 256,83,84
 211 192 211 192 199.5 167.5 c 128,-1,85
 188 143 188 143 187 111 c 2,86,-1
 187 92 l 2,87,88
 187 66 187 66 203.5 49 c 128,-1,89
 220 32 220 32 243 32 c 256,90,91
 266 32 266 32 282.5 48 c 128,-1,92
 299 64 299 64 299 92 c 2,93,-1
 299 217 l 2,94,95
 299 254 299 254 294 268.5 c 128,-1,96
 289 283 289 283 278 287 c 0,77,78
71 269 m 256,97,98
 71 255 71 255 80 246 c 128,-1,99
 89 237 89 237 103 237 c 256,100,101
 117 237 117 237 126 246 c 128,-1,102
 135 255 135 255 135 269 c 256,103,104
 135 283 135 283 126 292 c 128,-1,105
 117 301 117 301 103 301 c 256,106,107
 89 301 89 301 80 292 c 128,-1,108
 71 283 71 283 71 269 c 256,97,98
EndSplineSet
EndChar
StartChar: uni0E0C
Encoding: 3596 3596 223
Width: 623
Flags: W
Fore
138 120 m 1,0,1
 141 121 141 121 150 121 c 0,2,3
 181 121 181 121 202 102.5 c 128,-1,4
 223 84 223 84 223 58 c 256,5,6
 223 32 223 32 202 13 c 128,-1,7
 181 -6 181 -6 150 -6 c 256,8,9
 119 -6 119 -6 98 13 c 128,-1,10
 77 32 77 32 77 58 c 2,11,-1
 77 193 l 1,12,13
 76 195 76 195 70.5 205.5 c 128,-1,14
 65 216 65 216 59 228 c 0,15,16
 51 242 51 242 42 259 c 0,17,18
 39 265 39 265 39 269 c 0,19,20
 39 299 39 299 54 323.5 c 128,-1,21
 69 348 69 348 93 366 c 128,-1,22
 117 384 117 384 147.5 393.5 c 128,-1,23
 178 403 178 403 209 403 c 0,24,25
 239 403 239 403 269 394 c 128,-1,26
 299 385 299 385 323.5 367.5 c 128,-1,27
 348 350 348 350 363 325 c 128,-1,28
 378 300 378 300 378 269 c 2,29,-1
 378 97 l 1,30,-1
 500 44 l 1,31,-1
 500 358 l 2,32,33
 500 376 500 376 518 389 c 128,-1,34
 536 402 536 402 562 402 c 1,35,-1
 562 38 l 2,36,37
 562 19 562 19 546 6.5 c 128,-1,38
 530 -6 530 -6 507 -6 c 1,39,-1
 378 49 l 1,40,41
 375 25 375 25 354.5 9.5 c 128,-1,42
 334 -6 334 -6 305 -6 c 0,43,44
 274 -6 274 -6 252.5 13 c 128,-1,45
 231 32 231 32 231 58 c 256,46,47
 231 84 231 84 252.5 102.5 c 128,-1,48
 274 121 274 121 305 121 c 0,49,50
 313 121 313 121 317 120 c 1,51,-1
 317 269 l 2,52,53
 317 288 317 288 308.5 305 c 128,-1,54
 300 322 300 322 285 335.5 c 128,-1,55
 270 349 270 349 250.5 357 c 128,-1,56
 231 365 231 365 209 365 c 256,57,58
 187 365 187 365 168 357.5 c 128,-1,59
 149 350 149 350 134 337.5 c 128,-1,60
 119 325 119 325 110 308.5 c 128,-1,61
 101 292 101 292 100 274 c 1,62,63
 101 271 101 271 107 260.5 c 128,-1,64
 113 250 113 250 119 238 c 0,65,66
 126 224 126 224 135 208 c 1,67,-1
 138 198 l 1,68,-1
 138 120 l 1,0,1
118 58 m 256,69,70
 118 44 118 44 127 35 c 128,-1,71
 136 26 136 26 150 26 c 256,72,73
 164 26 164 26 173 35 c 128,-1,74
 182 44 182 44 182 58 c 256,75,76
 182 72 182 72 173 81 c 128,-1,77
 164 90 164 90 150 90 c 256,78,79
 136 90 136 90 127 81 c 128,-1,80
 118 72 118 72 118 58 c 256,69,70
273 58 m 256,81,82
 273 44 273 44 282 35 c 128,-1,83
 291 26 291 26 305 26 c 256,84,85
 319 26 319 26 328 35 c 128,-1,86
 337 44 337 44 337 58 c 256,87,88
 337 72 337 72 328 81 c 128,-1,89
 319 90 319 90 305 90 c 256,90,91
 291 90 291 90 282 81 c 128,-1,92
 273 72 273 72 273 58 c 256,81,82
EndSplineSet
EndChar
StartChar: uni0E0D
Encoding: 3597 3597 224
Width: 603
Flags: W
Fore
150 121 m 0,0,1
 181 121 181 121 202 102.5 c 128,-1,2
 223 84 223 84 223 58 c 256,3,4
 223 32 223 32 202 13 c 128,-1,5
 181 -6 181 -6 150 -6 c 256,6,7
 119 -6 119 -6 98 13 c 128,-1,8
 77 32 77 32 77 58 c 2,9,-1
 77 193 l 1,10,11
 76 195 76 195 70.5 205.5 c 128,-1,12
 65 216 65 216 59 228 c 0,13,14
 51 242 51 242 42 259 c 0,15,16
 39 265 39 265 39 269 c 0,17,18
 39 297 39 297 51 321.5 c 128,-1,19
 63 346 63 346 84.5 364 c 128,-1,20
 106 382 106 382 135 392.5 c 128,-1,21
 164 403 164 403 199 403 c 0,22,23
 233 403 233 403 262.5 392.5 c 128,-1,24
 292 382 292 382 313.5 364 c 128,-1,25
 335 346 335 346 347 321.5 c 128,-1,26
 359 297 359 297 359 269 c 2,27,-1
 359 92 l 2,28,29
 359 68 359 68 376.5 52 c 128,-1,30
 394 36 394 36 420 36 c 256,31,32
 446 36 446 36 463 52 c 128,-1,33
 480 68 480 68 480 92 c 2,34,-1
 480 358 l 2,35,36
 480 376 480 376 498 389 c 128,-1,37
 516 402 516 402 542 402 c 1,38,-1
 542 92 l 2,39,40
 542 70 542 70 531.5 52 c 128,-1,41
 521 34 521 34 504 21 c 128,-1,42
 487 8 487 8 465 1 c 128,-1,43
 443 -6 443 -6 420 -6 c 256,44,45
 397 -6 397 -6 375.5 0.5 c 128,-1,46
 354 7 354 7 336.5 20 c 128,-1,47
 319 33 319 33 308.5 51 c 128,-1,48
 298 69 298 69 298 92 c 2,49,-1
 298 269 l 2,50,51
 298 290 298 290 289.5 307.5 c 128,-1,52
 281 325 281 325 267.5 338 c 128,-1,53
 254 351 254 351 236 358 c 128,-1,54
 218 365 218 365 199 365 c 0,55,56
 163 365 163 365 134 341 c 128,-1,57
 105 317 105 317 100 274 c 1,58,59
 101 271 101 271 107 260.5 c 128,-1,60
 113 250 113 250 119 238 c 0,61,62
 126 224 126 224 135 208 c 1,63,-1
 138 198 l 1,64,-1
 138 120 l 1,65,66
 141 121 141 121 150 121 c 0,0,1
444 -83 m 0,67,68
 444 -101 444 -101 432 -114.5 c 128,-1,69
 420 -128 420 -128 401 -134 c 1,70,71
 413 -139 413 -139 418 -139 c 0,72,73
 435 -139 435 -139 447 -128.5 c 128,-1,74
 459 -118 459 -118 465.5 -101.5 c 128,-1,75
 472 -85 472 -85 473 -65 c 128,-1,76
 474 -45 474 -45 469 -26 c 1,77,78
 498 -26 498 -26 515.5 -36.5 c 128,-1,79
 533 -47 533 -47 533 -63 c 0,80,81
 533 -84 533 -84 524.5 -104.5 c 128,-1,82
 516 -125 516 -125 501 -141 c 128,-1,83
 486 -157 486 -157 465 -167 c 128,-1,84
 444 -177 444 -177 418 -177 c 0,85,86
 397 -177 397 -177 377 -170 c 128,-1,87
 357 -163 357 -163 341.5 -150.5 c 128,-1,88
 326 -138 326 -138 316.5 -120.5 c 128,-1,89
 307 -103 307 -103 307 -83 c 0,90,91
 307 -60 307 -60 326.5 -42.5 c 128,-1,92
 346 -25 346 -25 375 -25 c 256,93,94
 404 -25 404 -25 424 -42.5 c 128,-1,95
 444 -60 444 -60 444 -83 c 0,67,68
118 58 m 256,96,97
 118 44 118 44 127 35 c 128,-1,98
 136 26 136 26 150 26 c 256,99,100
 164 26 164 26 173 35 c 128,-1,101
 182 44 182 44 182 58 c 256,102,103
 182 72 182 72 173 81 c 128,-1,104
 164 90 164 90 150 90 c 256,105,106
 136 90 136 90 127 81 c 128,-1,107
 118 72 118 72 118 58 c 256,96,97
346 -83 m 256,108,109
 346 -95 346 -95 354.5 -103.5 c 128,-1,110
 363 -112 363 -112 375 -112 c 256,111,112
 387 -112 387 -112 395.5 -103.5 c 128,-1,113
 404 -95 404 -95 404 -83 c 256,114,115
 404 -71 404 -71 395.5 -62.5 c 128,-1,116
 387 -54 387 -54 375 -54 c 256,117,118
 363 -54 363 -54 354.5 -62.5 c 128,-1,119
 346 -71 346 -71 346 -83 c 256,108,109
EndSplineSet
Substitution: 0 65534 'L026' uni0E0D.alt1
Substitution: 0 65534 'L026' uni0E0D.alt1
EndChar
StartChar: uni0E0E
Encoding: 3598 3598 225
AltUni: 63259
Width: 457
Flags: W
Fore
70 58 m 256,0,1
 70 44 70 44 79 35 c 128,-1,2
 88 26 88 26 102 26 c 256,3,4
 116 26 116 26 125 35 c 128,-1,5
 134 44 134 44 134 58 c 256,6,7
 134 72 134 72 125 81 c 128,-1,8
 116 90 116 90 102 90 c 256,9,10
 88 90 88 90 79 81 c 128,-1,11
 70 72 70 72 70 58 c 256,0,1
174 -94 m 0,12,13
 168 -95 168 -95 157.5 -100.5 c 128,-1,14
 147 -106 147 -106 147 -120 c 0,15,16
 147 -131 147 -131 156.5 -137.5 c 128,-1,17
 166 -144 166 -144 174 -145 c 0,18,19
 185 -146 185 -146 198 -136.5 c 128,-1,20
 211 -127 211 -127 222 -109 c 1,21,22
 207 -98 207 -98 195.5 -95 c 128,-1,23
 184 -92 184 -92 174 -94 c 0,12,13
102 121 m 0,24,25
 110 121 110 121 114 120 c 1,26,-1
 114 191 l 1,27,28
 112 194 112 194 103.5 205.5 c 128,-1,29
 95 217 95 217 84 230 c 0,30,31
 72 245 72 245 57 263 c 0,32,33
 56 264 56 264 56 269 c 0,34,35
 56 299 56 299 71 324 c 128,-1,36
 86 349 86 349 110 366.5 c 128,-1,37
 134 384 134 384 164.5 393.5 c 128,-1,38
 195 403 195 403 226 403 c 0,39,40
 256 403 256 403 286.5 394 c 128,-1,41
 317 385 317 385 341 367.5 c 128,-1,42
 365 350 365 350 380.5 325 c 128,-1,43
 396 300 396 300 396 269 c 2,44,-1
 396 -72 l 2,45,46
 396 -78 396 -78 392.5 -86 c 128,-1,47
 389 -94 389 -94 384 -99 c 0,48,49
 366 -117 366 -117 346 -136.5 c 128,-1,50
 326 -156 326 -156 309 -173 c 0,51,52
 305 -177 305 -177 298 -178 c 128,-1,53
 291 -179 291 -179 286 -178 c 0,54,55
 280 -177 280 -177 274 -174 c 128,-1,56
 268 -171 268 -171 266 -166 c 0,57,58
 261 -152 261 -152 254 -142 c 1,59,60
 217 -181 217 -181 166 -178 c 0,61,62
 135 -176 135 -176 116.5 -160.5 c 128,-1,63
 98 -145 98 -145 98 -120 c 0,64,65
 98 -96 98 -96 115.5 -80.5 c 128,-1,66
 133 -65 133 -65 164 -60 c 0,67,68
 203 -55 203 -55 242 -74 c 1,69,70
 251 -57 251 -57 260 -28 c 1,71,72
 282 -36 282 -36 293.5 -49.5 c 128,-1,73
 305 -63 305 -63 298 -75 c 0,74,75
 293 -83 293 -83 289.5 -89.5 c 128,-1,76
 286 -96 286 -96 282 -103 c 1,77,78
 292 -113 l 128,-1,79
 297 -118 297 -118 301 -126 c 1,80,-1
 334 -94 l 1,81,-1
 334 269 l 2,82,83
 334 288 334 288 325.5 305 c 128,-1,84
 317 322 317 322 302.5 335.5 c 128,-1,85
 288 349 288 349 268 357 c 128,-1,86
 248 365 248 365 226 365 c 0,87,88
 205 365 205 365 185.5 357.5 c 128,-1,89
 166 350 166 350 151.5 337.5 c 128,-1,90
 137 325 137 325 128 308.5 c 128,-1,91
 119 292 119 292 118 274 c 1,92,93
 120 271 120 271 127.5 260.5 c 128,-1,94
 135 250 135 250 144 239 c 0,95,96
 155 226 155 226 168 210 c 0,97,98
 175 201 175 201 175 197 c 2,99,-1
 175 58 l 2,100,101
 175 32 175 32 154 13 c 128,-1,102
 133 -6 133 -6 102 -6 c 256,103,104
 71 -6 71 -6 50 13 c 128,-1,105
 29 32 29 32 29 58 c 256,106,107
 29 84 29 84 50 102.5 c 128,-1,108
 71 121 71 121 102 121 c 0,24,25
EndSplineSet
Substitution: 0 65534 'L026' uni0E0E.alt1
Substitution: 0 65534 'L026' uni0E0E.alt1
EndChar
StartChar: uni0E0F
Encoding: 3599 3599 226
AltUni: 63260
Width: 456
Flags: W
Fore
69 58 m 256,0,1
 69 44 69 44 78 35 c 128,-1,2
 87 26 87 26 101 26 c 256,3,4
 115 26 115 26 124 35 c 128,-1,5
 133 44 133 44 133 58 c 256,6,7
 133 72 133 72 124 81 c 128,-1,8
 115 90 115 90 101 90 c 256,9,10
 87 90 87 90 78 81 c 128,-1,11
 69 72 69 72 69 58 c 256,0,1
102 121 m 0,12,13
 110 121 110 121 114 120 c 1,14,-1
 114 191 l 1,15,-1
 57 263 l 2,16,17
 56 264 56 264 56 269 c 0,18,19
 56 299 56 299 71 324 c 128,-1,20
 86 349 86 349 110 366.5 c 128,-1,21
 134 384 134 384 164.5 393.5 c 128,-1,22
 195 403 195 403 226 403 c 0,23,24
 256 403 256 403 286.5 394 c 128,-1,25
 317 385 317 385 341 367.5 c 128,-1,26
 365 350 365 350 380.5 325 c 128,-1,27
 396 300 396 300 396 269 c 2,28,-1
 396 -105 l 2,29,30
 396 -109 396 -109 392 -116 c 128,-1,31
 388 -123 388 -123 383 -128 c 2,32,-1
 337 -173 l 2,33,34
 329 -181 329 -181 318 -181 c 128,-1,35
 307 -181 307 -181 299 -173 c 1,36,37
 295 -170 295 -170 291 -165.5 c 128,-1,38
 287 -161 287 -161 283 -156 c 256,39,40
 279 -151 279 -151 273 -146 c 1,41,-1
 245 -173 l 2,42,43
 238 -180 238 -180 221 -178 c 0,44,45
 213 -177 213 -177 207.5 -173 c 128,-1,46
 202 -169 202 -169 200 -165 c 0,47,48
 198 -159 198 -159 194.5 -153 c 128,-1,49
 191 -147 191 -147 189 -142 c 1,50,51
 153 -181 153 -181 101 -178 c 0,52,53
 70 -176 70 -176 52 -160.5 c 128,-1,54
 34 -145 34 -145 34 -120 c 0,55,56
 34 -96 34 -96 51 -80.5 c 128,-1,57
 68 -65 68 -65 99 -60 c 0,58,59
 140 -55 140 -55 176 -74 c 1,60,61
 182 -65 182 -65 186.5 -54.5 c 128,-1,62
 191 -44 191 -44 196 -29 c 1,63,64
 218 -36 218 -36 228.5 -50 c 128,-1,65
 239 -64 239 -64 233 -75 c 2,66,-1
 217 -104 l 1,67,68
 223 -109 223 -109 228.5 -114.5 c 128,-1,69
 234 -120 234 -120 239 -128 c 1,70,-1
 258 -109 l 2,71,72
 266 -101 266 -101 276.5 -101 c 128,-1,73
 287 -101 287 -101 295 -109 c 2,74,-1
 320 -134 l 1,75,-1
 334 -122 l 1,76,-1
 334 269 l 2,77,78
 334 288 334 288 325.5 305 c 128,-1,79
 317 322 317 322 302.5 335.5 c 128,-1,80
 288 349 288 349 268 357 c 128,-1,81
 248 365 248 365 226 365 c 0,82,83
 205 365 205 365 185.5 357.5 c 128,-1,84
 166 350 166 350 151.5 337.5 c 128,-1,85
 137 325 137 325 128 308.5 c 128,-1,86
 119 292 119 292 118 274 c 1,87,88
 120 271 120 271 128 260.5 c 128,-1,89
 136 250 136 250 145 239 c 0,90,91
 156 226 156 226 168 210 c 0,92,93
 175 201 175 201 175 197 c 2,94,-1
 175 58 l 2,95,96
 175 32 175 32 154 13 c 128,-1,97
 133 -6 133 -6 102 -6 c 256,98,99
 71 -6 71 -6 50 13 c 128,-1,100
 29 32 29 32 29 58 c 256,101,102
 29 84 29 84 50 102.5 c 128,-1,103
 71 121 71 121 102 121 c 0,12,13
109 -145 m 0,104,105
 120 -146 120 -146 133.5 -137.5 c 128,-1,106
 147 -129 147 -129 158 -109 c 1,107,108
 143 -98 143 -98 131.5 -95 c 128,-1,109
 120 -92 120 -92 110 -94 c 0,110,111
 103 -95 103 -95 92.5 -100.5 c 128,-1,112
 82 -106 82 -106 82 -120 c 0,113,114
 82 -131 82 -131 91.5 -137.5 c 128,-1,115
 101 -144 101 -144 109 -145 c 0,104,105
EndSplineSet
Substitution: 0 65534 'L026' uni0E0F.alt1
Substitution: 0 65534 'L026' uni0E0F.alt1
EndChar
StartChar: uni0E10
Encoding: 3600 3600 227
Width: 405
Flags: W
Fore
278 -128 m 1,0,-1
 267 -128 l 2,1,2
 241 -128 241 -128 221.5 -112 c 128,-1,3
 202 -96 202 -96 202 -73 c 0,4,5
 202 -51 202 -51 221 -35 c 128,-1,6
 240 -19 240 -19 267 -19 c 0,7,8
 293 -19 293 -19 312 -35 c 128,-1,9
 331 -51 331 -51 331 -73 c 2,10,-1
 331 -135 l 2,11,12
 331 -145 331 -145 321 -155 c 0,13,14
 319 -157 319 -157 313.5 -163 c 128,-1,15
 308 -169 308 -169 302 -176 c 0,16,17
 295 -184 295 -184 286 -193 c 0,18,19
 281 -198 281 -198 269 -198 c 256,20,21
 257 -198 257 -198 252 -193 c 2,22,-1
 233 -173 l 1,23,-1
 214 -193 l 2,24,25
 209 -198 209 -198 196 -198 c 0,26,27
 188 -198 188 -198 181 -189 c 0,28,29
 174 -181 174 -181 173.5 -180.5 c 128,-1,30
 173 -180 173 -180 168 -173 c 1,31,32
 157 -184 157 -184 139 -191 c 128,-1,33
 121 -198 121 -198 102 -198 c 0,34,35
 76 -198 76 -198 59.5 -183.5 c 128,-1,36
 43 -169 43 -169 43 -149 c 0,37,38
 43 -126 43 -126 61 -112 c 128,-1,39
 79 -98 79 -98 105 -98 c 0,40,41
 121 -98 121 -98 133.5 -100 c 128,-1,42
 146 -102 146 -102 158 -108 c 1,43,44
 160 -102 160 -102 163 -92.5 c 128,-1,45
 166 -83 166 -83 170 -67 c 1,46,47
 191 -76 191 -76 197 -86.5 c 128,-1,48
 203 -97 203 -97 203 -108 c 0,49,50
 203 -113 203 -113 200 -121 c 128,-1,51
 197 -129 197 -129 192 -136 c 1,52,-1
 213 -158 l 1,53,-1
 224 -146 l 2,54,55
 229 -141 229 -141 242 -141 c 0,56,57
 250 -141 250 -141 253.5 -142.5 c 128,-1,58
 257 -144 257 -144 259 -146 c 2,59,-1
 274 -162 l 1,60,-1
 278 -157 l 1,61,-1
 278 -128 l 1,0,-1
103 -170 m 0,62,63
 111 -170 111 -170 122 -162 c 128,-1,64
 133 -154 133 -154 141 -139 c 1,65,66
 130 -131 130 -131 121 -129 c 128,-1,67
 112 -127 112 -127 105 -127 c 0,68,69
 100 -127 100 -127 91.5 -132 c 128,-1,70
 83 -137 83 -137 83 -149 c 0,71,72
 83 -158 83 -158 90.5 -164 c 128,-1,73
 98 -170 98 -170 103 -170 c 0,62,63
189 403 m 0,74,75
 224 403 224 403 253 391 c 128,-1,76
 282 379 282 379 302 360 c 1,77,-1
 325 403 l 1,78,79
 349 392 349 392 358 376.5 c 128,-1,80
 367 361 367 361 360 347 c 2,81,-1
 335 298 l 2,82,83
 324 276 324 276 306.5 278 c 128,-1,84
 289 280 289 280 282 298 c 0,85,86
 270 327 270 327 244 346 c 128,-1,87
 218 365 218 365 189 365 c 0,88,89
 159 365 159 365 136 344 c 128,-1,90
 113 323 113 323 103 297 c 1,91,-1
 296 250 l 2,92,93
 312 245 312 245 323.5 233 c 128,-1,94
 335 221 335 221 335 207 c 2,95,-1
 335 38 l 2,96,97
 335 19 335 19 317.5 6.5 c 128,-1,98
 300 -6 300 -6 276 -6 c 1,99,-1
 222 82 l 1,100,101
 202 68 202 68 175 68 c 0,102,103
 145 68 145 68 123.5 87 c 128,-1,104
 102 106 102 106 102 132 c 256,105,106
 102 158 102 158 123.5 176.5 c 128,-1,107
 145 195 145 195 175 195 c 0,108,109
 197 195 197 195 214.5 186 c 128,-1,110
 232 177 232 177 241 162 c 2,111,-1
 274 97 l 1,112,-1
 274 214 l 1,113,114
 220 227 220 227 168 240.5 c 128,-1,115
 116 254 116 254 62 267 c 0,116,117
 52 269 52 269 45 275 c 128,-1,118
 38 281 38 281 39 289 c 0,119,120
 42 313 42 313 54.5 334 c 128,-1,121
 67 355 67 355 87 370.5 c 128,-1,122
 107 386 107 386 133 394.5 c 128,-1,123
 159 403 159 403 189 403 c 0,74,75
143 132 m 256,124,125
 143 118 143 118 152 109 c 128,-1,126
 161 100 161 100 175 100 c 256,127,128
 189 100 189 100 198 109 c 128,-1,129
 207 118 207 118 207 132 c 256,130,131
 207 146 207 146 198 155 c 128,-1,132
 189 164 189 164 175 164 c 256,133,134
 161 164 161 164 152 155 c 128,-1,135
 143 146 143 146 143 132 c 256,124,125
242 -73 m 256,136,137
 242 -84 242 -84 249 -91 c 128,-1,138
 256 -98 256 -98 267 -98 c 256,139,140
 278 -98 278 -98 285 -91 c 128,-1,141
 292 -84 292 -84 292 -73 c 256,142,143
 292 -62 292 -62 285 -55 c 128,-1,144
 278 -48 278 -48 267 -48 c 256,145,146
 256 -48 256 -48 249 -55 c 128,-1,147
 242 -62 242 -62 242 -73 c 256,136,137
EndSplineSet
Substitution: 0 65534 'L026' uni0E10.alt1
Substitution: 0 65534 'L026' uni0E10.alt1
EndChar
StartChar: uni0E11
Encoding: 3601 3601 228
Width: 507
Flags: W
Fore
105 363 m 1,0,1
 100 358 100 358 94 348 c 128,-1,2
 88 338 88 338 83 325 c 1,3,4
 93 328 93 328 103 328 c 0,5,6
 134 328 134 328 155.5 311.5 c 128,-1,7
 177 295 177 295 177 269 c 256,8,9
 177 243 177 243 155.5 224 c 128,-1,10
 134 205 134 205 103 205 c 0,11,12
 67 205 67 205 44 230.5 c 128,-1,13
 21 256 21 256 21 290 c 0,14,15
 21 308 21 308 27 327.5 c 128,-1,16
 33 347 33 347 44 364 c 0,17,18
 55 382 55 382 73 392.5 c 128,-1,19
 91 403 91 403 114 403 c 0,20,21
 124 403 124 403 131.5 397.5 c 128,-1,22
 139 392 139 392 145 387 c 1,23,24
 150 392 150 392 157.5 397.5 c 128,-1,25
 165 403 165 403 178 403 c 0,26,27
 199 403 199 403 215.5 393 c 128,-1,28
 232 383 232 383 243.5 367 c 128,-1,29
 255 351 255 351 261 331 c 128,-1,30
 267 311 267 311 267 290 c 0,31,32
 267 272 267 272 256 252 c 128,-1,33
 245 232 245 232 228 212 c 256,34,35
 211 192 211 192 204 169 c 128,-1,36
 197 146 197 146 197 114 c 1,37,-1
 341 392 l 2,38,39
 344 397 344 397 352 400 c 128,-1,40
 360 403 360 403 369 403 c 0,41,42
 404 403 404 403 425 384.5 c 128,-1,43
 446 366 446 366 446 335 c 2,44,-1
 446 38 l 2,45,46
 446 19 446 19 428.5 6.5 c 128,-1,47
 411 -6 411 -6 385 -6 c 1,48,-1
 385 335 l 2,49,50
 385 341 385 341 384.5 345.5 c 128,-1,51
 384 350 384 350 382 354 c 1,52,53
 335 263 335 263 288.5 174 c 128,-1,54
 242 85 242 85 195 -6 c 1,55,56
 171 -6 171 -6 153.5 6.5 c 128,-1,57
 136 19 136 19 136 38 c 2,58,-1
 136 111 l 2,59,60
 136 146 136 146 148 176 c 128,-1,61
 160 206 160 206 185 238 c 0,62,63
 195 250 195 250 200 262.5 c 128,-1,64
 205 275 205 275 205 290 c 0,65,66
 205 309 205 309 199.5 330.5 c 128,-1,67
 194 352 194 352 186 362 c 1,68,-1
 167 343 l 2,69,70
 159 335 159 335 146 335 c 128,-1,71
 133 335 133 335 125 343 c 2,72,-1
 118 350 l 1,73,-1
 105 363 l 1,0,1
71 269 m 256,74,75
 71 255 71 255 80 246 c 128,-1,76
 89 237 89 237 103 237 c 256,77,78
 117 237 117 237 126 246 c 128,-1,79
 135 255 135 255 135 269 c 256,80,81
 135 283 135 283 126 292 c 128,-1,82
 117 301 117 301 103 301 c 256,83,84
 89 301 89 301 80 292 c 128,-1,85
 71 283 71 283 71 269 c 256,74,75
EndSplineSet
EndChar
StartChar: uni0E12
Encoding: 3602 3602 229
Width: 642
Flags: W
Fore
120 72 m 1,0,-1
 204 168 l 1,1,2
 182 174 182 174 168.5 190 c 128,-1,3
 155 206 155 206 155 227 c 0,4,5
 155 253 155 253 176.5 272 c 128,-1,6
 198 291 198 291 228 291 c 0,7,8
 257 291 257 291 279.5 272 c 128,-1,9
 302 253 302 253 302 227 c 0,10,11
 302 207 302 207 284 187 c 2,12,-1
 116 -6 l 1,13,14
 93 -6 93 -6 76 6.5 c 128,-1,15
 59 19 59 19 59 38 c 2,16,-1
 59 288 l 2,17,18
 59 315 59 315 70 336.5 c 128,-1,19
 81 358 81 358 97.5 373 c 128,-1,20
 114 388 114 388 134 395.5 c 128,-1,21
 154 403 154 403 171 403 c 0,22,23
 184 403 184 403 190 397 c 0,24,25
 197 391 197 391 204 387 c 2,26,27
 210 382 210 382 216.5 378 c 128,-1,28
 223 374 223 374 228 369 c 1,29,30
 234 374 234 374 240.5 378.5 c 128,-1,31
 247 383 247 383 253 388 c 0,32,33
 267 398 l 1,34,35
 272 403 272 403 286 403 c 0,36,37
 303 403 303 403 323 395.5 c 128,-1,38
 343 388 343 388 359.5 373 c 128,-1,39
 376 358 376 358 387 336.5 c 128,-1,40
 398 315 398 315 398 288 c 2,41,-1
 398 100 l 1,42,-1
 519 44 l 1,43,-1
 519 358 l 2,44,45
 519 376 519 376 537 389 c 128,-1,46
 555 402 555 402 581 402 c 1,47,-1
 581 38 l 2,48,49
 581 19 581 19 565 6.5 c 128,-1,50
 549 -6 549 -6 526 -6 c 1,51,-1
 397 52 l 1,52,53
 394 26 394 26 373 10 c 128,-1,54
 352 -6 352 -6 323 -6 c 0,55,56
 291 -6 291 -6 269 13 c 128,-1,57
 247 32 247 32 247 60 c 0,58,59
 247 86 247 86 269 105.5 c 128,-1,60
 291 125 291 125 323 125 c 0,61,62
 332 125 332 125 337 124 c 1,63,-1
 337 288 l 2,64,65
 337 318 337 318 324 337.5 c 128,-1,66
 311 357 311 357 297 362 c 1,67,68
 292 358 292 358 284 351.5 c 128,-1,69
 276 345 276 345 268.5 339 c 128,-1,70
 261 333 261 333 254.5 328.5 c 128,-1,71
 248 324 248 324 247 323 c 1,72,-1
 248 323 l 1,73,74
 228 307 228 307 209 323 c 0,75,76
 198 331 198 331 188 339 c 0,77,78
 180 346 180 346 172 352.5 c 128,-1,79
 164 359 164 359 160 362 c 1,80,81
 146 357 146 357 133 337.5 c 128,-1,82
 120 318 120 318 120 288 c 2,83,-1
 120 72 l 1,0,-1
196 227 m 256,84,85
 196 213 196 213 205 204 c 128,-1,86
 214 195 214 195 228 195 c 256,87,88
 242 195 242 195 251 204 c 128,-1,89
 260 213 260 213 260 227 c 256,90,91
 260 241 260 241 251 250 c 128,-1,92
 242 259 242 259 228 259 c 256,93,94
 214 259 214 259 205 250 c 128,-1,95
 196 241 196 241 196 227 c 256,84,85
289 60 m 256,96,97
 289 46 289 46 299 36 c 128,-1,98
 309 26 309 26 323 26 c 256,99,100
 337 26 337 26 347 36 c 128,-1,101
 357 46 357 46 357 60 c 256,102,103
 357 74 357 74 347 84 c 128,-1,104
 337 94 337 94 323 94 c 256,105,106
 309 94 309 94 299 84 c 128,-1,107
 289 74 289 74 289 60 c 256,96,97
EndSplineSet
EndChar
StartChar: uni0E13
Encoding: 3603 3603 230
Width: 620
Flags: W
Fore
150 121 m 0,0,1
 181 121 181 121 202.5 102.5 c 128,-1,2
 224 84 224 84 224 58 c 256,3,4
 224 32 224 32 202.5 13 c 128,-1,5
 181 -6 181 -6 150 -6 c 256,6,7
 119 -6 119 -6 98 13 c 128,-1,8
 77 32 77 32 77 58 c 2,9,-1
 77 193 l 1,10,11
 76 195 76 195 70.5 205.5 c 128,-1,12
 65 216 65 216 59 228 c 0,13,14
 51 242 51 242 42 259 c 0,15,16
 39 265 39 265 39 269 c 0,17,18
 39 297 39 297 51 321.5 c 128,-1,19
 63 346 63 346 85 364 c 128,-1,20
 107 382 107 382 136 392.5 c 128,-1,21
 165 403 165 403 200 403 c 0,22,23
 234 403 234 403 263.5 392.5 c 128,-1,24
 293 382 293 382 314.5 364 c 128,-1,25
 336 346 336 346 348 321.5 c 128,-1,26
 360 297 360 297 360 269 c 2,27,-1
 360 49 l 1,28,29
 384 63 384 63 411 78.5 c 128,-1,30
 438 94 438 94 462 108 c 0,31,32
 473 116 473 116 477.5 126.5 c 128,-1,33
 482 137 482 137 482 147 c 2,34,-1
 482 358 l 2,35,36
 482 376 482 376 500 389 c 128,-1,37
 518 402 518 402 544 402 c 1,38,-1
 544 147 l 2,39,40
 544 133 544 133 539 121 c 1,41,42
 561 113 561 113 575 96 c 128,-1,43
 589 79 589 79 589 60 c 0,44,45
 589 32 589 32 566 13 c 128,-1,46
 543 -6 543 -6 513 -6 c 0,47,48
 485 -6 485 -6 465 8 c 128,-1,49
 445 22 445 22 440 44 c 1,50,-1
 354 -6 l 1,51,52
 331 -6 331 -6 315 6.5 c 128,-1,53
 299 19 299 19 299 38 c 2,54,-1
 299 269 l 2,55,56
 299 311 299 311 273 334 c 0,57,58
 258 348 258 348 239 356.5 c 128,-1,59
 220 365 220 365 200 365 c 256,60,61
 180 365 180 365 160.5 357 c 128,-1,62
 141 349 141 349 126 335 c 0,63,64
 102 312 102 312 100 275 c 1,65,66
 101 272 101 272 107 261 c 128,-1,67
 113 250 113 250 119 238 c 0,68,69
 126 224 126 224 135 208 c 1,70,-1
 138 198 l 1,71,-1
 138 120 l 1,72,73
 141 121 141 121 150 121 c 0,0,1
118 58 m 256,74,75
 118 44 118 44 127 35 c 128,-1,76
 136 26 136 26 150 26 c 256,77,78
 164 26 164 26 173 35 c 128,-1,79
 182 44 182 44 182 58 c 256,80,81
 182 72 182 72 173 81 c 128,-1,82
 164 90 164 90 150 90 c 256,83,84
 136 90 136 90 127 81 c 128,-1,85
 118 72 118 72 118 58 c 256,74,75
479 60 m 256,86,87
 479 46 479 46 489 36 c 128,-1,88
 499 26 499 26 513 26 c 256,89,90
 527 26 527 26 537 36 c 128,-1,91
 547 46 547 46 547 60 c 256,92,93
 547 74 547 74 537 84 c 128,-1,94
 527 94 527 94 513 94 c 256,95,96
 499 94 499 94 489 84 c 128,-1,97
 479 74 479 74 479 60 c 256,86,87
EndSplineSet
EndChar
StartChar: uni0E14
Encoding: 3604 3604 231
Width: 458
Flags: W
Fore
120 75 m 1,0,-1
 204 177 l 1,1,2
 182 184 182 184 168.5 200 c 128,-1,3
 155 216 155 216 155 237 c 0,4,5
 155 263 155 263 176 282 c 128,-1,6
 197 301 197 301 228 301 c 256,7,8
 259 301 259 301 280.5 282 c 128,-1,9
 302 263 302 263 302 237 c 0,10,11
 302 219 302 219 285 197 c 2,12,-1
 116 -6 l 1,13,14
 92 -6 92 -6 75 6.5 c 128,-1,15
 58 19 58 19 58 38 c 2,16,-1
 58 269 l 2,17,18
 58 295 58 295 71.5 320 c 128,-1,19
 85 345 85 345 110 365 c 0,20,21
 157 403 157 403 228 403 c 0,22,23
 263 403 263 403 293 393 c 128,-1,24
 323 383 323 383 345 365 c 0,25,26
 371 344 371 344 384.5 319.5 c 128,-1,27
 398 295 398 295 398 269 c 2,28,-1
 398 38 l 2,29,30
 398 19 398 19 380 6.5 c 128,-1,31
 362 -6 362 -6 336 -6 c 1,32,-1
 336 269 l 2,33,34
 336 288 336 288 327.5 305 c 128,-1,35
 319 322 319 322 304 335.5 c 128,-1,36
 289 349 289 349 269.5 357 c 128,-1,37
 250 365 250 365 228 365 c 256,38,39
 206 365 206 365 186.5 357 c 128,-1,40
 167 349 167 349 152 335.5 c 128,-1,41
 137 322 137 322 128.5 305 c 128,-1,42
 120 288 120 288 120 269 c 2,43,-1
 120 75 l 1,0,-1
196 237 m 256,44,45
 196 223 196 223 205 214 c 128,-1,46
 214 205 214 205 228 205 c 256,47,48
 242 205 242 205 251 214 c 128,-1,49
 260 223 260 223 260 237 c 256,50,51
 260 251 260 251 251 260 c 128,-1,52
 242 269 242 269 228 269 c 256,53,54
 214 269 214 269 205 260 c 128,-1,55
 196 251 196 251 196 237 c 256,44,45
EndSplineSet
EndChar
StartChar: uni0E15
Encoding: 3605 3605 232
Width: 458
Flags: W
Fore
120 72 m 1,0,-1
 203 168 l 1,1,2
 182 174 182 174 168.5 190 c 128,-1,3
 155 206 155 206 155 227 c 0,4,5
 155 253 155 253 176 272 c 128,-1,6
 197 291 197 291 228 291 c 0,7,8
 257 291 257 291 279.5 272 c 128,-1,9
 302 253 302 253 302 227 c 0,10,11
 302 207 302 207 284 187 c 2,12,-1
 116 -6 l 1,13,14
 92 -6 92 -6 75 6.5 c 128,-1,15
 58 19 58 19 58 38 c 2,16,-1
 58 288 l 2,17,18
 58 315 58 315 69 336.5 c 128,-1,19
 80 358 80 358 97 373 c 128,-1,20
 114 388 114 388 134 395.5 c 128,-1,21
 154 403 154 403 171 403 c 0,22,23
 183 403 183 403 189 397 c 0,24,25
 196 391 196 391 203 387 c 2,26,27
 209 382 209 382 216 378 c 128,-1,28
 223 374 223 374 228 369 c 1,29,30
 234 374 234 374 240.5 378.5 c 128,-1,31
 247 383 247 383 253 388 c 0,32,33
 267 398 l 1,34,35
 272 403 272 403 286 403 c 0,36,37
 303 403 303 403 322.5 395.5 c 128,-1,38
 342 388 342 388 359 373 c 128,-1,39
 376 358 376 358 387 336.5 c 128,-1,40
 398 315 398 315 398 288 c 2,41,-1
 398 38 l 2,42,43
 398 19 398 19 380 6.5 c 128,-1,44
 362 -6 362 -6 336 -6 c 1,45,-1
 336 288 l 2,46,47
 336 318 336 318 323 337.5 c 128,-1,48
 310 357 310 357 297 362 c 1,49,50
 292 358 292 358 284 351.5 c 128,-1,51
 276 345 276 345 268.5 339 c 128,-1,52
 261 333 261 333 255 328.5 c 128,-1,53
 249 324 249 324 248 323 c 0,54,55
 239 315 239 315 228 315 c 128,-1,56
 217 315 217 315 208 323 c 0,57,58
 188 339 l 0,59,60
 180 346 180 346 172 352.5 c 128,-1,61
 164 359 164 359 160 362 c 1,62,63
 146 357 146 357 133 337.5 c 128,-1,64
 120 318 120 318 120 288 c 2,65,-1
 120 72 l 1,0,-1
196 227 m 256,66,67
 196 213 196 213 205 204 c 128,-1,68
 214 195 214 195 228 195 c 256,69,70
 242 195 242 195 251 204 c 128,-1,71
 260 213 260 213 260 227 c 256,72,73
 260 241 260 241 251 250 c 128,-1,74
 242 259 242 259 228 259 c 256,75,76
 214 259 214 259 205 250 c 128,-1,77
 196 241 196 241 196 227 c 256,66,67
EndSplineSet
EndChar
StartChar: uni0E16
Encoding: 3606 3606 233
Width: 438
Flags: W
Fore
150 121 m 0,0,1
 180 121 180 121 201.5 102.5 c 128,-1,2
 223 84 223 84 223 58 c 256,3,4
 223 32 223 32 201.5 13 c 128,-1,5
 180 -6 180 -6 150 -6 c 0,6,7
 119 -6 119 -6 97.5 13 c 128,-1,8
 76 32 76 32 76 58 c 2,9,-1
 76 193 l 1,10,-1
 42 259 l 2,11,12
 39 265 39 265 39 269 c 0,13,14
 39 299 39 299 54 323.5 c 128,-1,15
 69 348 69 348 93 366 c 128,-1,16
 117 384 117 384 147 393.5 c 128,-1,17
 177 403 177 403 208 403 c 0,18,19
 238 403 238 403 268.5 394 c 128,-1,20
 299 385 299 385 323.5 367.5 c 128,-1,21
 348 350 348 350 363 325 c 128,-1,22
 378 300 378 300 378 269 c 2,23,-1
 378 38 l 2,24,25
 378 19 378 19 360 6.5 c 128,-1,26
 342 -6 342 -6 316 -6 c 1,27,-1
 316 269 l 2,28,29
 316 288 316 288 307.5 305 c 128,-1,30
 299 322 299 322 284 335.5 c 128,-1,31
 269 349 269 349 249.5 357 c 128,-1,32
 230 365 230 365 208 365 c 0,33,34
 187 365 187 365 167.5 357.5 c 128,-1,35
 148 350 148 350 133.5 337.5 c 128,-1,36
 119 325 119 325 110 308.5 c 128,-1,37
 101 292 101 292 100 274 c 1,38,-1
 135 208 l 2,39,40
 138 203 138 203 138 198 c 2,41,-1
 138 120 l 1,42,43
 141 121 141 121 150 121 c 0,0,1
118 58 m 256,44,45
 118 44 118 44 127 35 c 128,-1,46
 136 26 136 26 150 26 c 256,47,48
 164 26 164 26 173 35 c 128,-1,49
 182 44 182 44 182 58 c 256,50,51
 182 72 182 72 173 81 c 128,-1,52
 164 90 164 90 150 90 c 256,53,54
 136 90 136 90 127 81 c 128,-1,55
 118 72 118 72 118 58 c 256,44,45
EndSplineSet
EndChar
StartChar: uni0E17
Encoding: 3607 3607 234
Width: 485
Flags: W
Fore
114 276 m 1,0,-1
 102 276 l 2,1,2
 71 276 71 276 50 294.5 c 128,-1,3
 29 313 29 313 29 339 c 256,4,5
 29 365 29 365 50 384 c 128,-1,6
 71 403 71 403 102 403 c 256,7,8
 133 403 133 403 154.5 384 c 128,-1,9
 176 365 176 365 176 339 c 2,10,-1
 176 126 l 1,11,12
 188 161 188 161 204.5 206 c 128,-1,13
 221 251 221 251 235.5 291.5 c 128,-1,14
 250 332 250 332 260 360 c 128,-1,15
 270 388 270 388 271 390 c 0,16,17
 273 396 273 396 281 399.5 c 128,-1,18
 289 403 289 403 300 403 c 0,19,20
 360 403 360 403 391 372 c 0,21,22
 425 339 425 339 425 288 c 2,23,-1
 425 38 l 2,24,25
 425 19 425 19 407 6.5 c 128,-1,26
 389 -6 389 -6 363 -6 c 1,27,-1
 363 288 l 2,28,29
 363 348 363 348 318 359 c 1,30,-1
 175 -6 l 1,31,32
 149 -6 149 -6 131.5 6.5 c 128,-1,33
 114 19 114 19 114 38 c 2,34,-1
 114 276 l 1,0,-1
70 339 m 256,35,36
 70 325 70 325 79 316 c 128,-1,37
 88 307 88 307 102 307 c 256,38,39
 116 307 116 307 125 316 c 128,-1,40
 134 325 134 325 134 339 c 256,41,42
 134 353 134 353 125 362 c 128,-1,43
 116 371 116 371 102 371 c 256,44,45
 88 371 88 371 79 362 c 128,-1,46
 70 353 70 353 70 339 c 256,35,36
EndSplineSet
EndChar
StartChar: uni0E18
Encoding: 3608 3608 235
Width: 405
Flags: W
Fore
345 127 m 2,0,1
 345 99 345 99 335.5 74.5 c 128,-1,2
 326 50 326 50 308 32 c 128,-1,3
 290 14 290 14 263 4 c 128,-1,4
 236 -6 236 -6 201 -6 c 256,5,6
 166 -6 166 -6 139.5 4 c 128,-1,7
 113 14 113 14 95 32 c 128,-1,8
 77 50 77 50 67.5 74.5 c 128,-1,9
 58 99 58 99 58 127 c 2,10,-1
 58 190 l 2,11,12
 58 208 58 208 76 221 c 128,-1,13
 94 234 94 234 120 234 c 1,14,-1
 120 127 l 2,15,16
 120 84 120 84 142 58 c 128,-1,17
 164 32 164 32 201 32 c 256,18,19
 238 32 238 32 261 57 c 128,-1,20
 284 82 284 82 284 127 c 2,21,-1
 284 211 l 1,22,-1
 62 267 l 2,23,24
 52 269 52 269 45 275 c 128,-1,25
 38 281 38 281 39 289 c 0,26,27
 42 313 42 313 54.5 334 c 128,-1,28
 67 355 67 355 87 370.5 c 128,-1,29
 107 386 107 386 133 394.5 c 128,-1,30
 159 403 159 403 189 403 c 0,31,32
 224 403 224 403 253 391 c 128,-1,33
 282 379 282 379 302 360 c 1,34,-1
 325 403 l 1,35,36
 349 392 349 392 358 376.5 c 128,-1,37
 367 361 367 361 360 347 c 2,38,-1
 335 298 l 2,39,40
 324 276 324 276 306.5 278 c 128,-1,41
 289 280 289 280 282 298 c 0,42,43
 270 327 270 327 244 346 c 128,-1,44
 218 365 218 365 189 365 c 0,45,46
 159 365 159 365 136 344 c 128,-1,47
 113 323 113 323 103 297 c 1,48,-1
 306 247 l 2,49,50
 322 242 322 242 333.5 230 c 128,-1,51
 345 218 345 218 345 204 c 2,52,-1
 345 127 l 2,0,1
EndSplineSet
EndChar
StartChar: uni0E19
Encoding: 3609 3609 236
Width: 491
Flags: W
Fore
114 276 m 1,0,-1
 102 276 l 2,1,2
 72 276 72 276 50.5 294.5 c 128,-1,3
 29 313 29 313 29 339 c 256,4,5
 29 365 29 365 50.5 384 c 128,-1,6
 72 403 72 403 102 403 c 0,7,8
 133 403 133 403 154.5 384 c 128,-1,9
 176 365 176 365 176 339 c 2,10,-1
 176 44 l 1,11,12
 215 60 215 60 253.5 76.5 c 128,-1,13
 292 93 292 93 331 110 c 0,14,15
 342 116 342 116 348 128 c 128,-1,16
 354 140 354 140 354 150 c 2,17,-1
 354 358 l 2,18,19
 354 376 354 376 372 389 c 128,-1,20
 390 402 390 402 416 402 c 1,21,-1
 416 150 l 2,22,23
 416 138 416 138 408 122 c 1,24,25
 431 115 431 115 445.5 98 c 128,-1,26
 460 81 460 81 460 60 c 0,27,28
 460 33 460 33 438.5 13.5 c 128,-1,29
 417 -6 417 -6 385 -6 c 0,30,31
 356 -6 356 -6 335 11 c 128,-1,32
 314 28 314 28 311 54 c 1,33,-1
 169 -6 l 1,34,35
 146 -6 146 -6 130 6.5 c 128,-1,36
 114 19 114 19 114 38 c 2,37,-1
 114 276 l 1,0,-1
70 339 m 256,38,39
 70 325 70 325 79 316 c 128,-1,40
 88 307 88 307 102 307 c 256,41,42
 116 307 116 307 125 316 c 128,-1,43
 134 325 134 325 134 339 c 256,44,45
 134 353 134 353 125 362 c 128,-1,46
 116 371 116 371 102 371 c 256,47,48
 88 371 88 371 79 362 c 128,-1,49
 70 353 70 353 70 339 c 256,38,39
351 60 m 256,50,51
 351 46 351 46 361 36 c 128,-1,52
 371 26 371 26 385 26 c 256,53,54
 399 26 399 26 409 36 c 128,-1,55
 419 46 419 46 419 60 c 256,56,57
 419 74 419 74 409 84 c 128,-1,58
 399 94 399 94 385 94 c 256,59,60
 371 94 371 94 361 84 c 128,-1,61
 351 74 351 74 351 60 c 256,50,51
EndSplineSet
EndChar
StartChar: uni0E1A
Encoding: 3610 3610 237
Width: 475
Flags: W
Fore
102 276 m 2,0,1
 71 276 71 276 50 294.5 c 128,-1,2
 29 313 29 313 29 339 c 256,3,4
 29 365 29 365 50 384 c 128,-1,5
 71 403 71 403 102 403 c 256,6,7
 133 403 133 403 154.5 384 c 128,-1,8
 176 365 176 365 176 339 c 2,9,-1
 176 128 l 2,10,11
 176 86 176 86 200.5 59 c 128,-1,12
 225 32 225 32 264 32 c 0,13,14
 302 32 302 32 327.5 59 c 128,-1,15
 353 86 353 86 353 128 c 2,16,-1
 353 358 l 2,17,18
 353 376 353 376 371 389 c 128,-1,19
 389 402 389 402 415 402 c 1,20,-1
 415 128 l 2,21,22
 415 98 415 98 403.5 73.5 c 128,-1,23
 392 49 392 49 371.5 31 c 128,-1,24
 351 13 351 13 323.5 3.5 c 128,-1,25
 296 -6 296 -6 264 -6 c 256,26,27
 232 -6 232 -6 205 3.5 c 128,-1,28
 178 13 178 13 157.5 31 c 128,-1,29
 137 49 137 49 125.5 73.5 c 128,-1,30
 114 98 114 98 114 128 c 2,31,-1
 114 276 l 1,32,-1
 102 276 l 2,0,1
70 339 m 256,33,34
 70 325 70 325 79 316 c 128,-1,35
 88 307 88 307 102 307 c 256,36,37
 116 307 116 307 125 316 c 128,-1,38
 134 325 134 325 134 339 c 256,39,40
 134 353 134 353 125 362 c 128,-1,41
 116 371 116 371 102 371 c 256,42,43
 88 371 88 371 79 362 c 128,-1,44
 70 353 70 353 70 339 c 256,33,34
EndSplineSet
EndChar
StartChar: uni0E1B
Encoding: 3611 3611 238
Width: 485
Flags: W
Fore
102 276 m 2,0,1
 71 276 71 276 50 294.5 c 128,-1,2
 29 313 29 313 29 339 c 256,3,4
 29 365 29 365 50 384 c 128,-1,5
 71 403 71 403 102 403 c 256,6,7
 133 403 133 403 154.5 384 c 128,-1,8
 176 365 176 365 176 339 c 2,9,-1
 176 128 l 2,10,11
 176 86 176 86 201.5 59 c 128,-1,12
 227 32 227 32 269 32 c 256,13,14
 311 32 311 32 337 59 c 128,-1,15
 363 86 363 86 363 128 c 2,16,-1
 363 520 l 2,17,18
 363 538 363 538 381 550.5 c 128,-1,19
 399 563 399 563 425 563 c 1,20,-1
 425 128 l 2,21,22
 425 98 425 98 412.5 73.5 c 128,-1,23
 400 49 400 49 378.5 31 c 128,-1,24
 357 13 357 13 328.5 3.5 c 128,-1,25
 300 -6 300 -6 269 -6 c 0,26,27
 239 -6 239 -6 211 3.5 c 128,-1,28
 183 13 183 13 161.5 31 c 128,-1,29
 140 49 140 49 127 73.5 c 128,-1,30
 114 98 114 98 114 128 c 2,31,-1
 114 276 l 1,32,-1
 102 276 l 2,0,1
70 339 m 256,33,34
 70 325 70 325 79 316 c 128,-1,35
 88 307 88 307 102 307 c 256,36,37
 116 307 116 307 125 316 c 128,-1,38
 134 325 134 325 134 339 c 256,39,40
 134 353 134 353 125 362 c 128,-1,41
 116 371 116 371 102 371 c 256,42,43
 88 371 88 371 79 362 c 128,-1,44
 70 353 70 353 70 339 c 256,33,34
EndSplineSet
EndChar
StartChar: uni0E1C
Encoding: 3612 3612 239
Width: 440
Flags: W
Fore
318 93 m 1,0,-1
 318 358 l 2,1,2
 318 376 318 376 336 389 c 128,-1,3
 354 402 354 402 380 402 c 1,4,-1
 380 38 l 2,5,6
 380 19 380 19 363 6.5 c 128,-1,7
 346 -6 346 -6 321 -6 c 1,8,-1
 219 172 l 1,9,-1
 117 -6 l 1,10,11
 92 -6 92 -6 75 6.5 c 128,-1,12
 58 19 58 19 58 38 c 2,13,-1
 58 339 l 2,14,15
 58 365 58 365 79.5 384 c 128,-1,16
 101 403 101 403 132 403 c 256,17,18
 163 403 163 403 184 384 c 128,-1,19
 205 365 205 365 205 339 c 256,20,21
 205 313 205 313 184 294.5 c 128,-1,22
 163 276 163 276 132 276 c 2,23,-1
 120 276 l 1,24,-1
 120 93 l 1,25,-1
 193 220 l 2,26,27
 196 225 196 225 203.5 227.5 c 128,-1,28
 211 230 211 230 219 230 c 0,29,30
 239 230 239 230 245 220 c 2,31,-1
 318 93 l 1,0,-1
100 339 m 256,32,33
 100 325 100 325 109 316 c 128,-1,34
 118 307 118 307 132 307 c 256,35,36
 146 307 146 307 155 316 c 128,-1,37
 164 325 164 325 164 339 c 256,38,39
 164 353 164 353 155 362 c 128,-1,40
 146 371 146 371 132 371 c 256,41,42
 118 371 118 371 109 362 c 128,-1,43
 100 353 100 353 100 339 c 256,32,33
EndSplineSet
EndChar
StartChar: uni0E1D
Encoding: 3613 3613 240
Width: 440
Flags: W
Fore
318 93 m 1,0,-1
 318 520 l 2,1,2
 318 538 318 538 336 550.5 c 128,-1,3
 354 563 354 563 380 563 c 1,4,-1
 380 38 l 2,5,6
 380 19 380 19 363 6.5 c 128,-1,7
 346 -6 346 -6 321 -6 c 1,8,-1
 219 172 l 1,9,-1
 117 -6 l 1,10,11
 92 -6 92 -6 75 6.5 c 128,-1,12
 58 19 58 19 58 38 c 2,13,-1
 58 339 l 2,14,15
 58 365 58 365 79.5 384 c 128,-1,16
 101 403 101 403 132 403 c 256,17,18
 163 403 163 403 184 384 c 128,-1,19
 205 365 205 365 205 339 c 256,20,21
 205 313 205 313 184 294.5 c 128,-1,22
 163 276 163 276 132 276 c 2,23,-1
 120 276 l 1,24,-1
 120 93 l 1,25,-1
 193 220 l 2,26,27
 196 225 196 225 203.5 227.5 c 128,-1,28
 211 230 211 230 219 230 c 0,29,30
 239 230 239 230 245 220 c 2,31,-1
 318 93 l 1,0,-1
100 339 m 256,32,33
 100 325 100 325 109 316 c 128,-1,34
 118 307 118 307 132 307 c 256,35,36
 146 307 146 307 155 316 c 128,-1,37
 164 325 164 325 164 339 c 256,38,39
 164 353 164 353 155 362 c 128,-1,40
 146 371 146 371 132 371 c 256,41,42
 118 371 118 371 109 362 c 128,-1,43
 100 353 100 353 100 339 c 256,32,33
EndSplineSet
EndChar
StartChar: uni0E1E
Encoding: 3614 3614 241
Width: 494
Flags: W
Fore
102 276 m 2,0,1
 71 276 71 276 50 294.5 c 128,-1,2
 29 313 29 313 29 339 c 256,3,4
 29 365 29 365 50 384 c 128,-1,5
 71 403 71 403 102 403 c 256,6,7
 133 403 133 403 154.5 384 c 128,-1,8
 176 365 176 365 176 339 c 2,9,-1
 176 135 l 1,10,-1
 245 323 l 2,11,12
 251 336 251 336 274 336 c 0,13,14
 296 336 296 336 303 323 c 1,15,-1
 372 135 l 1,16,-1
 372 358 l 2,17,18
 372 376 372 376 390 389 c 128,-1,19
 408 402 408 402 433 402 c 1,20,-1
 433 38 l 2,21,22
 433 19 433 19 416 6.5 c 128,-1,23
 399 -6 399 -6 373 -6 c 1,24,-1
 274 262 l 1,25,26
 248 195 248 195 224 128 c 128,-1,27
 200 61 200 61 175 -6 c 1,28,29
 149 -6 149 -6 131.5 6.5 c 128,-1,30
 114 19 114 19 114 38 c 2,31,-1
 114 276 l 1,32,-1
 102 276 l 2,0,1
70 339 m 256,33,34
 70 325 70 325 79 316 c 128,-1,35
 88 307 88 307 102 307 c 256,36,37
 116 307 116 307 125 316 c 128,-1,38
 134 325 134 325 134 339 c 256,39,40
 134 353 134 353 125 362 c 128,-1,41
 116 371 116 371 102 371 c 256,42,43
 88 371 88 371 79 362 c 128,-1,44
 70 353 70 353 70 339 c 256,33,34
EndSplineSet
EndChar
StartChar: uni0E1F
Encoding: 3615 3615 242
Width: 494
Flags: W
Fore
102 276 m 2,0,1
 71 276 71 276 50 294.5 c 128,-1,2
 29 313 29 313 29 339 c 256,3,4
 29 365 29 365 50 384 c 128,-1,5
 71 403 71 403 102 403 c 256,6,7
 133 403 133 403 154.5 384 c 128,-1,8
 176 365 176 365 176 339 c 2,9,-1
 176 135 l 1,10,-1
 245 323 l 2,11,12
 251 336 251 336 274 336 c 0,13,14
 296 336 296 336 303 323 c 1,15,-1
 372 135 l 1,16,-1
 372 520 l 2,17,18
 372 538 372 538 390 550.5 c 128,-1,19
 408 563 408 563 433 563 c 1,20,-1
 433 38 l 2,21,22
 433 19 433 19 416 6.5 c 128,-1,23
 399 -6 399 -6 373 -6 c 1,24,-1
 274 262 l 1,25,26
 248 195 248 195 224 128 c 128,-1,27
 200 61 200 61 175 -6 c 1,28,29
 149 -6 149 -6 131.5 6.5 c 128,-1,30
 114 19 114 19 114 38 c 2,31,-1
 114 276 l 1,32,-1
 102 276 l 2,0,1
70 339 m 256,33,34
 70 325 70 325 79 316 c 128,-1,35
 88 307 88 307 102 307 c 256,36,37
 116 307 116 307 125 316 c 128,-1,38
 134 325 134 325 134 339 c 256,39,40
 134 353 134 353 125 362 c 128,-1,41
 116 371 116 371 102 371 c 256,42,43
 88 371 88 371 79 362 c 128,-1,44
 70 353 70 353 70 339 c 256,33,34
EndSplineSet
EndChar
StartChar: uni0E20
Encoding: 3616 3616 243
Width: 456
Flags: W
Fore
102 121 m 0,0,1
 110 121 110 121 114 120 c 1,2,-1
 114 191 l 1,3,-1
 57 263 l 2,4,5
 56 264 56 264 56 269 c 0,6,7
 56 299 56 299 71 324 c 128,-1,8
 86 349 86 349 110 366.5 c 128,-1,9
 134 384 134 384 164.5 393.5 c 128,-1,10
 195 403 195 403 226 403 c 0,11,12
 256 403 256 403 286.5 394 c 128,-1,13
 317 385 317 385 341 367.5 c 128,-1,14
 365 350 365 350 380.5 325 c 128,-1,15
 396 300 396 300 396 269 c 2,16,-1
 396 38 l 2,17,18
 396 19 396 19 378 6.5 c 128,-1,19
 360 -6 360 -6 334 -6 c 1,20,-1
 334 269 l 2,21,22
 334 288 334 288 325.5 305 c 128,-1,23
 317 322 317 322 302.5 335.5 c 128,-1,24
 288 349 288 349 268 357 c 128,-1,25
 248 365 248 365 226 365 c 0,26,27
 205 365 205 365 185.5 357.5 c 128,-1,28
 166 350 166 350 151.5 337.5 c 128,-1,29
 137 325 137 325 128 308.5 c 128,-1,30
 119 292 119 292 118 274 c 1,31,-1
 168 210 l 2,32,33
 175 201 175 201 175 197 c 2,34,-1
 175 58 l 2,35,36
 175 32 175 32 154 13 c 128,-1,37
 133 -6 133 -6 102 -6 c 256,38,39
 71 -6 71 -6 50 13 c 128,-1,40
 29 32 29 32 29 58 c 256,41,42
 29 84 29 84 50 102.5 c 128,-1,43
 71 121 71 121 102 121 c 0,0,1
70 58 m 256,44,45
 70 44 70 44 79 35 c 128,-1,46
 88 26 88 26 102 26 c 256,47,48
 116 26 116 26 125 35 c 128,-1,49
 134 44 134 44 134 58 c 256,50,51
 134 72 134 72 125 81 c 128,-1,52
 116 90 116 90 102 90 c 256,53,54
 88 90 88 90 79 81 c 128,-1,55
 70 72 70 72 70 58 c 256,44,45
EndSplineSet
EndChar
StartChar: uni0E21
Encoding: 3617 3617 244
Width: 471
Flags: W
Fore
118 276 m 1,0,-1
 106 276 l 2,1,2
 75 276 75 276 54 294.5 c 128,-1,3
 33 313 33 313 33 339 c 256,4,5
 33 365 33 365 54 384 c 128,-1,6
 75 403 75 403 106 403 c 256,7,8
 137 403 137 403 158 384 c 128,-1,9
 179 365 179 365 179 339 c 2,10,-1
 179 104 l 1,11,12
 222 88 222 88 261.5 73 c 128,-1,13
 301 58 301 58 349 41 c 1,14,-1
 349 358 l 2,15,16
 349 376 349 376 367 389 c 128,-1,17
 385 402 385 402 411 402 c 1,18,-1
 411 38 l 2,19,20
 411 19 411 19 395.5 6.5 c 128,-1,21
 380 -6 380 -6 357 -6 c 1,22,-1
 179 58 l 1,23,24
 178 31 178 31 157 12.5 c 128,-1,25
 136 -6 136 -6 104 -6 c 256,26,27
 72 -6 72 -6 50.5 13 c 128,-1,28
 29 32 29 32 29 60 c 0,29,30
 29 86 29 86 50.5 105.5 c 128,-1,31
 72 125 72 125 104 125 c 0,32,33
 113 125 113 125 118 124 c 1,34,-1
 118 276 l 1,0,-1
74 339 m 256,35,36
 74 325 74 325 83 316 c 128,-1,37
 92 307 92 307 106 307 c 256,38,39
 120 307 120 307 129 316 c 128,-1,40
 138 325 138 325 138 339 c 256,41,42
 138 353 138 353 129 362 c 128,-1,43
 120 371 120 371 106 371 c 256,44,45
 92 371 92 371 83 362 c 128,-1,46
 74 353 74 353 74 339 c 256,35,36
70 60 m 256,47,48
 70 46 70 46 80 36 c 128,-1,49
 90 26 90 26 104 26 c 256,50,51
 118 26 118 26 128 36 c 128,-1,52
 138 46 138 46 138 60 c 256,53,54
 138 74 138 74 128 84 c 128,-1,55
 118 94 118 94 104 94 c 256,56,57
 90 94 90 94 80 84 c 128,-1,58
 70 74 70 74 70 60 c 256,47,48
EndSplineSet
EndChar
StartChar: uni0E22
Encoding: 3618 3618 245
Width: 429
Flags: W
Fore
40 122 m 0,0,1
 40 151 40 151 54 173 c 128,-1,2
 68 195 68 195 94 211 c 1,3,4
 66 228 66 228 52.5 253 c 128,-1,5
 39 278 39 278 39 305 c 0,6,7
 39 321 39 321 46 338 c 128,-1,8
 53 355 53 355 65 369.5 c 128,-1,9
 77 384 77 384 94.5 393.5 c 128,-1,10
 112 403 112 403 133 403 c 0,11,12
 163 403 163 403 184.5 384 c 128,-1,13
 206 365 206 365 206 339 c 256,14,15
 206 313 206 313 184.5 295 c 128,-1,16
 163 277 163 277 133 277 c 0,17,18
 126 277 126 277 118 278 c 128,-1,19
 110 279 110 279 102 283 c 1,20,21
 113 236 113 236 163 236 c 2,22,-1
 194 236 l 2,23,24
 208 236 208 236 216.5 230 c 128,-1,25
 225 224 225 224 225 215 c 0,26,27
 225 207 225 207 216.5 200.5 c 128,-1,28
 208 194 208 194 194 194 c 0,29,30
 179 194 179 194 163 190.5 c 128,-1,31
 147 187 147 187 133 178.5 c 128,-1,32
 119 170 119 170 110 156.5 c 128,-1,33
 101 143 101 143 101 122 c 0,34,35
 101 83 101 83 131 57.5 c 128,-1,36
 161 32 161 32 204 32 c 0,37,38
 248 32 248 32 277.5 57.5 c 128,-1,39
 307 83 307 83 307 122 c 2,40,-1
 307 358 l 2,41,42
 307 376 307 376 325 389 c 128,-1,43
 343 402 343 402 369 402 c 1,44,-1
 369 122 l 2,45,46
 369 94 369 94 356 70.5 c 128,-1,47
 343 47 343 47 321 30 c 128,-1,48
 299 13 299 13 268.5 3.5 c 128,-1,49
 238 -6 238 -6 204 -6 c 0,50,51
 169 -6 169 -6 139 3.5 c 128,-1,52
 109 13 109 13 87 30 c 128,-1,53
 65 47 65 47 52.5 70.5 c 128,-1,54
 40 94 40 94 40 122 c 0,0,1
101 339 m 256,55,56
 101 325 101 325 110 316 c 128,-1,57
 119 307 119 307 133 307 c 256,58,59
 147 307 147 307 156 316 c 128,-1,60
 165 325 165 325 165 339 c 256,61,62
 165 353 165 353 156 362 c 128,-1,63
 147 371 147 371 133 371 c 256,64,65
 119 371 119 371 110 362 c 128,-1,66
 101 353 101 353 101 339 c 256,55,56
EndSplineSet
EndChar
StartChar: uni0E23
Encoding: 3619 3619 246
Width: 405
Flags: W
Fore
262 121 m 0,0,1
 270 121 270 121 274 120 c 1,2,-1
 274 214 l 1,3,4
 220 227 220 227 168 240.5 c 128,-1,5
 116 254 116 254 62 267 c 0,6,7
 52 269 52 269 45 275 c 128,-1,8
 38 281 38 281 39 289 c 0,9,10
 42 313 42 313 54.5 334 c 128,-1,11
 67 355 67 355 87 370.5 c 128,-1,12
 107 386 107 386 133 394.5 c 128,-1,13
 159 403 159 403 189 403 c 0,14,15
 224 403 224 403 253 391 c 128,-1,16
 282 379 282 379 302 360 c 1,17,-1
 325 403 l 1,18,19
 349 392 349 392 358 376.5 c 128,-1,20
 367 361 367 361 360 347 c 2,21,-1
 335 298 l 2,22,23
 324 276 324 276 306.5 278 c 128,-1,24
 289 280 289 280 282 298 c 0,25,26
 270 327 270 327 244 346 c 128,-1,27
 218 365 218 365 189 365 c 0,28,29
 159 365 159 365 136 344 c 128,-1,30
 113 323 113 323 103 297 c 1,31,-1
 296 250 l 2,32,33
 312 245 312 245 323.5 233 c 128,-1,34
 335 221 335 221 335 207 c 2,35,-1
 335 58 l 2,36,37
 335 32 335 32 313.5 13 c 128,-1,38
 292 -6 292 -6 262 -6 c 0,39,40
 231 -6 231 -6 209.5 13 c 128,-1,41
 188 32 188 32 188 58 c 256,42,43
 188 84 188 84 209.5 102.5 c 128,-1,44
 231 121 231 121 262 121 c 0,0,1
230 58 m 256,45,46
 230 44 230 44 239 35 c 128,-1,47
 248 26 248 26 262 26 c 256,48,49
 276 26 276 26 285 35 c 128,-1,50
 294 44 294 44 294 58 c 256,51,52
 294 72 294 72 285 81 c 128,-1,53
 276 90 276 90 262 90 c 256,54,55
 248 90 248 90 239 81 c 128,-1,56
 230 72 230 72 230 58 c 256,45,46
EndSplineSet
EndChar
StartChar: uni0E24
Encoding: 3620 3620 247
Width: 438
Flags: W
Fore
150 121 m 0,0,1
 180 121 180 121 201.5 102.5 c 128,-1,2
 223 84 223 84 223 58 c 256,3,4
 223 32 223 32 201.5 13 c 128,-1,5
 180 -6 180 -6 150 -6 c 0,6,7
 119 -6 119 -6 97.5 13 c 128,-1,8
 76 32 76 32 76 58 c 2,9,-1
 76 193 l 1,10,-1
 42 259 l 2,11,12
 39 265 39 265 39 269 c 0,13,14
 39 299 39 299 54 323.5 c 128,-1,15
 69 348 69 348 93 366 c 128,-1,16
 117 384 117 384 147 393.5 c 128,-1,17
 177 403 177 403 208 403 c 0,18,19
 238 403 238 403 268.5 394 c 128,-1,20
 299 385 299 385 323.5 367.5 c 128,-1,21
 348 350 348 350 363 325 c 128,-1,22
 378 300 378 300 378 269 c 2,23,-1
 378 -116 l 2,24,25
 378 -135 378 -135 360 -147.5 c 128,-1,26
 342 -160 342 -160 316 -160 c 1,27,-1
 316 269 l 2,28,29
 316 288 316 288 307.5 305 c 128,-1,30
 299 322 299 322 284 335.5 c 128,-1,31
 269 349 269 349 249.5 357 c 128,-1,32
 230 365 230 365 208 365 c 0,33,34
 187 365 187 365 167.5 357.5 c 128,-1,35
 148 350 148 350 133.5 337.5 c 128,-1,36
 119 325 119 325 110 308.5 c 128,-1,37
 101 292 101 292 100 274 c 1,38,-1
 135 208 l 2,39,40
 138 203 138 203 138 198 c 2,41,-1
 138 120 l 1,42,43
 141 121 141 121 150 121 c 0,0,1
118 58 m 256,44,45
 118 44 118 44 127 35 c 128,-1,46
 136 26 136 26 150 26 c 256,47,48
 164 26 164 26 173 35 c 128,-1,49
 182 44 182 44 182 58 c 256,50,51
 182 72 182 72 173 81 c 128,-1,52
 164 90 164 90 150 90 c 256,53,54
 136 90 136 90 127 81 c 128,-1,55
 118 72 118 72 118 58 c 256,44,45
EndSplineSet
EndChar
